<?xml version="1.0" encoding="utf-8"?>
<!-- Generator: Adobe Illustrator 19.2.1, SVG Export Plug-In . SVG Version: 6.00 Build 0)  -->
<svg version="1.1" id="Layer_1" xmlns="http://www.w3.org/2000/svg" xmlns:xlink="http://www.w3.org/1999/xlink" x="0px" y="0px"
	 viewBox="0 0 400 400" style="enable-background:new 0 0 400 400;" xml:space="preserve">
<style type="text/css">
	.st0{fill:none;}
	.st1{fill:#450011;}
	.st2{fill:#C20C36;}
	.st3{fill:#830522;}
	.st4{fill:#FFFFFF;stroke:#FFFFFF;stroke-width:6;stroke-miterlimit:10;}
</style>
<g>
	<path class="st0" d="M270.5,281.3c2.3-1.5,4.5-3.3,6.6-5.2c0.5-0.4,0.9-0.9,1.4-1.3c7.8-7.8,12.4-17.1,13.6-27.6
		c4.6,5.9,6.9,13,6.9,21.2c0,9.3-3,17.3-9,23.6c-6.1,6.4-14.1,9.8-23.2,9.8c-9,0-17-3.4-23.1-9.8c-1-1.1-1.9-2.2-2.8-3.4
		c1.3,0.1,2.6,0.2,4,0.2C254.4,288.8,263,286.3,270.5,281.3z"/>
	<path class="st1" d="M192.7,187.4c-20.5,20.7-30.4,45.2-30.4,74.9c0,29.7,9.9,54.1,30.4,74.6c20.5,20.5,44.7,30.5,74.1,30.5
		c29.5,0,53.8-10,74.3-30.5c20.5-20.6,30.4-45,30.4-74.6c0-21.3-5.7-40.8-17-58.1l-3.9-6l29.3-37.8H241.8c-2.6,0-5.1,0.4-7.3,1
		l-0.3,0.1C218.9,166.4,204.9,175.1,192.7,187.4z"/>
	<path class="st2" d="M359.7,146.7H236.1c-3.2,0-6.3,0.4-9,1.3l-0.3,0.1c-18.9,6-36.1,16.7-51.1,31.8c-18.5,18.7-30,39.9-34.8,64.5
		c-26.9,14-47.9,28.4-63.1,40.2C73.3,269,46.3,167.2,109.2,95.7c15.5-17.7,35.6-32.5,60.1-44.5c34.6-16.9,68.1-22.3,100.8-16.5
		c32.6,5.9,57.7,21.8,75.3,47.7c14.3,21.1,19.1,42.2,14.5,63.5C359.8,146.3,359.7,146.5,359.7,146.7z"/>
	<path class="st3" d="M57.2,260c-14.2,1.7-26.7,4-37.2,6.2c1.7-10.1,10.2-55.6,38.6-97.1C52.1,203.1,53.8,235.7,57.2,260z"/>
</g>
<g>
	<path class="st4" d="M306.4,299.8c0.7,0.7,1.1,1.6,1.1,2.6c0,1-0.4,1.9-1.1,2.6v0c-1.4,1.4-3.7,1.4-5.1,0l-17.4-17.4
		c-0.5-0.5-1.2-0.5-1.7,0L264.6,305c-1.4,1.4-3.8,1.4-5.1,0c-0.7-0.7-1.1-1.6-1.1-2.6c0-1,0.4-1.9,1.1-2.6l17.4-17.4
		c0.5-0.5,0.5-1.2,0-1.7l-17.4-17.4c-1.4-1.4-1.4-3.7,0-5.1c0.7-0.7,1.6-1.1,2.6-1.1c1,0,1.9,0.4,2.6,1.1l17.4,17.4
		c0.5,0.5,1.3,0.5,1.7,0l17.4-17.4c1.4-1.4,3.7-1.4,5.1,0c1.4,1.4,1.4,3.7,0,5.1l-17.4,17.4c-0.2,0.2-0.4,0.5-0.4,0.9
		c0,0.3,0.1,0.6,0.4,0.9L306.4,299.8z"/>
</g>
</svg>
