<?xml version="1.0" encoding="utf-8"?>
<!-- Generator: Adobe Illustrator 19.2.1, SVG Export Plug-In . SVG Version: 6.00 Build 0)  -->
<svg version="1.1" id="Layer_1" xmlns="http://www.w3.org/2000/svg" xmlns:xlink="http://www.w3.org/1999/xlink" x="0px" y="0px"
	 viewBox="0 0 200 200" style="enable-background:new 0 0 200 200;" xml:space="preserve">
<style type="text/css">
	.st0{fill:#FFFFFF;}
</style>
<g>
	<path class="st0" d="M100,37.5c-25.9946289,0-47.5,51.3115234-47.5,77.5c0,0.75,0.0195313,1.4609375,0.0541992,2.140625
		C53.6918945,142.5830078,74.5322266,162.5,100,162.5s46.3085938-19.9169922,47.4453125-45.3417969
		C147.4804688,116.4609375,147.5,115.75,147.5,115c0-13.7167969-5.7617188-33.4711914-14.3378906-49.1557617
		C123.3125,47.8310547,111.2255859,37.5,100,37.5z M103,150.5c-23.3876953,0-38.5-15.1123047-38.5-38.5
		c0-1.3808594,1.1191406-2.5,2.5-2.5s2.5,1.1191406,2.5,2.5c0,20.6630859,12.8364258,33.5,33.5,33.5
		c1.3808594,0,2.5,1.1191406,2.5,2.5S104.3808594,150.5,103,150.5z"/>
	<path d="M137.5488281,63.4453125C126.6376953,43.4897461,113.3027344,32.5,100,32.5S73.3623047,43.4897461,62.4511719,63.4453125
		C53.3686523,80.0561523,47.5,100.2929688,47.5,115c0,0.8398438,0.0214844,1.6367188,0.0600586,2.3808594
		C48.8164063,145.4853516,71.8510742,167.5,100,167.5c28.1494141,0,51.1835938-22.0146484,52.4394531-50.1015625
		C152.4785156,116.6367188,152.5,115.8398438,152.5,115C152.5,100.2929688,146.6308594,80.0561523,137.5488281,63.4453125z
		 M147.4453125,117.1582031C146.3085938,142.5830078,125.4677734,162.5,100,162.5s-46.3081055-19.9169922-47.4458008-45.359375
		C52.5195313,116.4609375,52.5,115.75,52.5,115c0-26.1884766,21.5053711-77.5,47.5-77.5
		c11.2255859,0,23.3125,10.3310547,33.1621094,28.3442383C141.7382813,81.5288086,147.5,101.2832031,147.5,115
		C147.5,115.75,147.4804688,116.4609375,147.4453125,117.1582031z"/>
	<path d="M103,145.5c-20.6635742,0-33.5-12.8369141-33.5-33.5c0-1.3808594-1.1191406-2.5-2.5-2.5s-2.5,1.1191406-2.5,2.5
		c0,23.3876953,15.1123047,38.5,38.5,38.5c1.3808594,0,2.5-1.1191406,2.5-2.5S104.3808594,145.5,103,145.5z"/>
</g>
</svg>
