<?xml version="1.0" encoding="utf-8"?>
<!-- Generator: Adobe Illustrator 19.2.1, SVG Export Plug-In . SVG Version: 6.00 Build 0)  -->
<svg version="1.1" id="Layer_1" xmlns="http://www.w3.org/2000/svg" xmlns:xlink="http://www.w3.org/1999/xlink" x="0px" y="0px"
	 viewBox="0 0 700 200" style="enable-background:new 0 0 700 200;" xml:space="preserve">
<style type="text/css">
	.st0{fill:none;}
	.st1{fill:#FFFFFF;}
</style>
<g>
	<path class="st0" d="M521.7563477,87.1679688c-1.6347656-1.6333008-3.5449219-2.8569336-5.6787109-3.6357422
		c-2.1767578-0.793457-4.5878906-1.1958008-7.1640625-1.1958008c-4.9472656,0-9.0136719,1.6494141-12.4326172,5.0429688
		c-3.0400391,3.0170898-5.1113281,7.5405273-6.1542969,13.4443359c-0.0351563,0.1987305,0.0546875,0.3427734,0.1123047,0.4111328
		c0.0566406,0.0673828,0.1826172,0.1816406,0.3857422,0.1816406h36.6738281c0.2021484,0,0.328125-0.1142578,0.3847656-0.1816406
		c0.0576172-0.0683594,0.1484375-0.2138672,0.1123047-0.4155273c-0.484375-2.7495117-1.1826172-5.1958008-2.0742188-7.2714844
		C524.8120117,90.9702148,523.4106445,88.8232422,521.7563477,87.1679688z"/>
	<path class="st0" d="M90.8105469,65.9604492c-2.8320313-3.5400391-6.3149414-6.3188477-10.3525391-8.2592773
		c-4.0385742-1.9399414-8.6791992-2.9233398-13.793457-2.9233398c-5.1708984,0-9.8676758,0.9975586-13.9594727,2.9648438
		c-4.0952148,1.96875-7.621582,4.7631836-10.4819336,8.3061523c-2.8842773,3.5712891-5.1411133,7.9023438-6.7089844,12.8730469
		c-1.5786133,5.0024414-2.3789063,10.6176758-2.3789063,16.6899414c0,6.2900391,0.8139648,12.0292969,2.4194336,17.0585938
		c1.5922852,4.9902344,3.8867188,9.3027344,6.8193359,12.8173828c2.9125977,3.4902344,6.465332,6.21875,10.5585938,8.1074219
		c4.0981445,1.8916016,8.7177734,2.8505859,13.7319336,2.8505859c2.3271484,0,4.449707-0.1855469,6.3081055-0.5527344
		c0.6484375-0.1279297,1.2856445-0.2753906,1.894043-0.4384766c0.234375-0.0625,0.3173828-0.234375,0.3461914-0.3681641
		c0.0249023-0.1152344,0.0351563-0.3339844-0.1743164-0.5048828l-5.1767578-4.2324219
		c-0.7324219-0.5986328-1.1835938-1.4462891-1.2705078-2.3886719c-0.0869141-0.9404297,0.2011719-1.8564453,0.8110352-2.5791016
		l7.2973633-8.6474609c1.2260742-1.4511719,3.4194336-1.6533203,4.8891602-0.453125l9.5507813,7.8037109
		c0.1396484,0.1142578,0.2875977,0.1210938,0.3862305,0.1083984c0.0839844-0.0117188,0.2412109-0.0556641,0.3549805-0.2177734
		c2.3632813-3.3691406,4.21875-7.2226563,5.5146484-11.4541016c1.5263672-4.9775391,2.300293-10.6669922,2.300293-16.9091797
		c0-6.1323242-0.7739258-11.7797852-2.3007813-16.7866211C95.8818359,73.8583984,93.6665039,69.5302734,90.8105469,65.9604492z"/>
	<path class="st0" d="M285.2094727,114.9584961h-6.7988281c-9.1704102,0-16.125,1.2255859-20.6699219,3.6425781
		c-4.2963867,2.2841797-6.3847656,5.734375-6.3847656,10.5458984c0,3.4423828,1.1772461,5.9472656,3.5986328,7.65625
		c2.5507813,1.8007813,6.0859375,2.7138672,10.5068359,2.7138672c2.0327148,0,4.0820313-0.2382813,6.0913086-0.7080078
		c2.0151367-0.4707031,3.9345703-1.1455078,5.7045898-2.0058594c1.7666016-0.8564453,3.4111328-1.9091797,4.8891602-3.1279297
		c1.3056641-1.0761719,2.4726563-2.2783203,3.4697266-3.5732422c0.059082-0.0771484,0.0932617-0.1875,0.0932617-0.3037109
		v-14.3398438C285.7094727,115.1831055,285.4853516,114.9584961,285.2094727,114.9584961z"/>
	<path class="st1" d="M121.5463867,147.9321289l-13.1938477-10.2089844
		c-0.1489258-0.1152344-0.1855469-0.2666016-0.1938477-0.3466797c-0.0097656-0.0917969,0-0.2255859,0.1044922-0.3505859
		c4.2451172-5.0664063,7.5522461-10.9296875,9.8295898-17.4267578c2.5068359-7.1582031,3.777832-15.2285156,3.777832-23.9873047
		c0-8.8208008-1.3574219-16.9960938-4.0351563-24.2983398c-2.6860352-7.3222656-6.5053711-13.6650391-11.3515625-18.8525391
		c-4.8540039-5.1933594-10.7519531-9.2797852-17.5292969-12.1445313
		c-6.7700195-2.8598633-14.3251953-4.3100586-22.4560547-4.3100586c-8.1328125,0-15.6748047,1.4506836-22.4169922,4.3110352
		c-6.7480469,2.8637695-12.644043,6.9482422-17.5234375,12.140625c-4.8779297,5.1889648-8.7124023,11.5327148-11.3964844,18.8554688
		c-2.6777344,7.296875-4.0351563,15.472168-4.0351563,24.2983398c0,8.7060547,1.284668,16.8037109,3.8188477,24.0683594
		c2.5458984,7.2978516,6.2519531,13.6572266,11.0141602,18.9013672c4.7734375,5.2558594,10.659668,9.4023438,17.4956055,12.3242188
		c6.8266602,2.9160156,14.5795898,4.3945313,23.043457,4.3945313c4.8017578,0,9.4331055-0.5458984,13.7666016-1.6210938
		c3.8842773-0.9648438,7.5620117-2.3808594,10.9331055-4.2109375c0.190918-0.1035156,0.4082031-0.0908203,0.5639648,0.0322266
		l17.1884766,13.7226563c0.6494141,0.5175781,1.4204102,0.7705078,2.1860352,0.7705078
		c0.9921875,0,1.9750977-0.4248047,2.6699219-1.2480469l8.2709961-9.7851563
		c0.621582-0.7353516,0.9086914-1.6679688,0.8076172-2.6259766
		C122.7856445,149.3891602,122.2978516,148.5141602,121.5463867,147.9321289z M97.3955078,112.5209961
		c-1.2958984,4.2314453-3.1513672,8.0849609-5.5146484,11.4541016c-0.1137695,0.1621094-0.2709961,0.2060547-0.3549805,0.2177734
		c-0.0986328,0.0126953-0.246582,0.0058594-0.3862305-0.1083984l-9.5507813-7.8037109
		c-1.4697266-1.2001953-3.6630859-0.9980469-4.8891602,0.453125l-7.2973633,8.6474609
		c-0.6098633,0.7226563-0.8979492,1.6386719-0.8110352,2.5791016c0.0869141,0.9423828,0.5380859,1.7900391,1.2705078,2.3886719
		l5.1767578,4.2324219c0.2094727,0.1708984,0.1992188,0.3896484,0.1743164,0.5048828
		c-0.0288086,0.1337891-0.1118164,0.3056641-0.3461914,0.3681641c-0.6083984,0.1630859-1.2456055,0.3105469-1.894043,0.4384766
		c-1.8583984,0.3671875-3.980957,0.5527344-6.3081055,0.5527344c-5.0141602,0-9.6337891-0.9589844-13.7319336-2.8505859
		c-4.0932617-1.8886719-7.6459961-4.6171875-10.5585938-8.1074219c-2.9326172-3.5146484-5.2270508-7.8271484-6.8193359-12.8173828
		c-1.6054688-5.0292969-2.4194336-10.7685547-2.4194336-17.0585938c0-6.0722656,0.800293-11.6875,2.3789063-16.6899414
		c1.5678711-4.9707031,3.824707-9.3017578,6.7089844-12.8730469c2.8603516-3.5429688,6.3867188-6.3374023,10.4819336-8.3061523
		c4.0917969-1.9672852,8.7885742-2.9648438,13.9594727-2.9648438c5.1142578,0,9.7548828,0.9833984,13.793457,2.9233398
		c4.0375977,1.9404297,7.5205078,4.7192383,10.3525391,8.2592773c2.855957,3.5698242,5.0712891,7.8979492,6.5844727,12.8647461
		c1.5268555,5.0068359,2.3007813,10.6542969,2.3007813,16.7866211
		C99.6958008,101.8540039,98.921875,107.543457,97.3955078,112.5209961z"/>
	<path class="st1" d="M209.7592773,68.9604492h-14.3447266c-1.9296875,0-3.5,1.5703125-3.5,3.5v54.3896484
		c0,0.1201172-0.0424805,0.2402344-0.1157227,0.3291016c-2.8901367,3.5087891-5.894043,6.2412109-8.9282227,8.1220703
		c-3.0932617,1.9160156-6.4160156,2.8876953-9.8759766,2.8876953c-4.3701172,0-7.3920898-1.1425781-9.2387695-3.4941406
		c-1.9072266-2.4267578-2.8745117-6.5273438-2.8745117-12.1884766V72.4604492c0-1.9296875-1.5703125-3.5-3.5-3.5h-14.1787109
		c-1.9296875,0-3.5,1.5703125-3.5,3.5v51.2080078c0,20.9892578,9.8325195,31.6318359,29.2246094,31.6318359
		c4.7998047,0,9.4482422-1.0849609,13.8173828-3.2246094c3.0214844-1.4804688,5.9321289-3.5,8.6513672-6.0009766
		c0.2216797-0.2050781,0.4477539-0.1503906,0.5629883-0.0986328c0.1313477,0.0576172,0.2875977,0.1816406,0.2875977,0.4462891
		v3.46875c0,1.9296875,1.5703125,3.5,3.5,3.5h14.0126953c1.9296875,0,3.5-1.5703125,3.5-3.5V72.4604492
		C213.2592773,70.5307617,211.6889648,68.9604492,209.7592773,68.9604492z"/>
	<path class="st1" d="M296.9326172,73.4521484c-3.4057617-2.3081055-7.3339844-3.9746094-11.6762695-4.953125
		c-4.2695313-0.9604492-9.2539063-1.4477539-14.8144531-1.4477539c-22.8505859,0-35.484375,8.1748047-37.5498047,24.296875
		c-0.1269531,0.9907227,0.1806641,1.9912109,0.8442383,2.7446289c0.6669922,0.7583008,1.6274414,1.1928711,2.6347656,1.1928711
		h13.2983398c1.7509766,0,3.2412109-1.3251953,3.4672852-3.0820313c0.3959961-3.078125,1.6948242-5.3491211,3.9711914-6.9423828
		c2.7724609-1.940918,6.9516602-2.9248047,12.4208984-2.9248047c5.6298828,0,9.6547852,1.0205078,12.0234375,3.0834961
		c1.7885742,1.402832,2.9443359,3.3012695,3.5375977,5.8237305c0.2509766,1.0039063,0.4179688,2.3989258,0.4970703,4.144043
		c0.0576172,1.3022461,0.0957031,2.7661133,0.1123047,4.3515625c0.0019531,0.1855469-0.0922852,0.309082-0.1489258,0.3662109
		c-0.0551758,0.0556641-0.1743164,0.1489258-0.3525391,0.1489258h-4.9609375c-16.5698242,0-29.2075195,2.4414063-37.5625,7.2558594
		c-8.6230469,4.96875-12.9951172,12.5830078-12.9951172,22.6328125c0,4.0947266,0.809082,7.7587891,2.4047852,10.890625
		c1.5874023,3.1171875,3.7802734,5.7724609,6.519043,7.8935547c2.7119141,2.0986328,5.9072266,3.7050781,9.4960938,4.7744141
		c3.5561523,1.0605469,7.3588867,1.5986328,11.3027344,1.5986328c10.0449219,0,18.6879883-2.5185547,25.6889648-7.484375
		c0.2192383-0.1542969,0.4194336-0.0898438,0.5195313-0.0380859c0.0986328,0.0507813,0.2651367,0.1767578,0.2651367,0.4394531
		v1.6738281c0,1.9296875,1.5703125,3.5,3.5,3.5h14.0957031c1.9296875,0,3.5-1.5703125,3.5-3.5V99.1811523
		c0-6.8032227-0.8193359-12.2583008-2.4360352-16.2148438C302.8774414,78.9116211,300.3164063,75.7084961,296.9326172,73.4521484z
		 M285.7094727,129.7983398c0,0.1162109-0.0341797,0.2265625-0.0932617,0.3037109
		c-0.9970703,1.2949219-2.1640625,2.4970703-3.4697266,3.5732422c-1.4780273,1.21875-3.1225586,2.2714844-4.8891602,3.1279297
		c-1.7700195,0.8603516-3.6894531,1.5351563-5.7045898,2.0058594c-2.0092773,0.4697266-4.0585938,0.7080078-6.0913086,0.7080078
		c-4.4208984,0-7.9560547-0.9130859-10.5068359-2.7138672c-2.4213867-1.7089844-3.5986328-4.2138672-3.5986328-7.65625
		c0-4.8115234,2.0883789-8.2617188,6.3847656-10.5458984c4.5449219-2.4169922,11.4995117-3.6425781,20.6699219-3.6425781h6.7988281
		c0.2758789,0,0.5,0.2246094,0.5,0.5V129.7983398z"/>
	<path class="st1" d="M372.3725586,67.0512695c-8.2587891,0-15.8759766,3.1245117-22.6401367,9.2871094
		c-0.2197266,0.199707-0.4438477,0.1450195-0.5576172,0.0952148c-0.1313477-0.0576172-0.2875977-0.1826172-0.2875977-0.4467773
		v-3.5263672c0-1.9296875-1.5703125-3.5-3.5-3.5h-13.8466797c-1.9296875,0-3.5,1.5703125-3.5,3.5v77.4306641
		c0,1.9296875,1.5703125,3.5,3.5,3.5h14.1787109c1.9296875,0,3.5-1.5703125,3.5-3.5v-54.34375
		c0-0.125,0.0483398-0.253418,0.1293945-0.34375c3.1469727-3.5200195,6.3227539-6.2602539,9.4399414-8.1445313
		c3.1767578-1.921875,6.3789063-2.8964844,9.5166016-2.8964844c4.3007813,0,7.3759766,1.1704102,9.1425781,3.4790039
		c1.8613281,2.4306641,2.8046875,6.5366211,2.8046875,12.2036133v50.0458984c0,1.9296875,1.5703125,3.5,3.5,3.5h14.1787109
		c1.9296875,0,3.5-1.5703125,3.5-3.5V98.5170898C401.4311523,77.6376953,391.6547852,67.0512695,372.3725586,67.0512695z"/>
	<path class="st1" d="M456.621582,137.699707c-0.3984375,0.0517578-0.7919922,0.0917969-1.1875,0.1191406
		c-2.1943359,0.1582031-4.4550781,0.2636719-6.0869141-0.2958984c-0.6757813-0.2314453-1.2392578-0.6669922-1.7216797-1.3300781
		c-0.5390625-0.7421875-0.9707031-1.8505859-1.2832031-3.2978516c-0.3359375-1.5410156-0.5058594-3.6123047-0.5058594-6.1552734
		V86.0737305c0-0.2758789,0.2246094-0.5,0.5-0.5h9.1982422c1.9296875,0,3.5-1.5703125,3.5-3.5v-9.6132813
		c0-1.9296875-1.5703125-3.5-3.5-3.5h-9.1982422c-0.2753906,0-0.5-0.2241211-0.5-0.5V52.206543c0-1.9296875-1.5703125-3.5-3.5-3.5
		h-14.1787109c-1.9296875,0-3.5,1.5703125-3.5,3.5v16.2539063c0,0.2758789-0.2246094,0.5-0.5,0.5h-6.3759766
		c-1.9296875,0-3.5,1.5703125-3.5,3.5v9.6132813c0,1.9296875,1.5703125,3.5,3.5,3.5h6.3759766c0.2753906,0,0.5,0.2241211,0.5,0.5
		v42.9072266c0,4.1132813,0.3017578,7.7695313,0.8984375,10.8681641c0.6269531,3.2509766,1.8496094,6.0019531,3.6328125,8.1777344
		c1.8017578,2.2001953,4.2880859,3.8642578,7.3896484,4.9482422c2.9951172,1.046875,6.8613281,1.578125,11.4931641,1.578125
		c2.1386719,0,4.140625-0.0859375,5.9501953-0.2558594c1.2666016-0.1181641,2.5361328-0.3076172,3.7753906-0.5625
		c1.6308594-0.3349609,2.8144531-1.7802734,2.8144531-3.4375v-9.1347656c0-1-0.4306641-1.9521484-1.1806641-2.6113281
		C458.6645508,137.878418,457.644043,137.5708008,456.621582,137.699707z"/>
	<path class="st1" d="M538.8393555,78.46875c-3.5966797-3.7402344-7.984375-6.6132813-13.0400391-8.5385742
		c-5.0185547-1.9101563-10.7001953-2.8789063-16.8857422-2.8789063c-6.3046875,0-12.0488281,1.0131836-17.0732422,3.0117188
		c-5.0537109,2.0107422-9.4248047,4.9545898-12.9892578,8.75c-3.5595703,3.7885742-6.3222656,8.465332-8.2099609,13.8994141
		c-1.8730469,5.3920898-2.8222656,11.5615234-2.8222656,18.3388672s0.9492188,12.9609375,2.8212891,18.3789063
		c1.8876953,5.4638672,4.6796875,10.1699219,8.2978516,13.9882813c3.625,3.8271484,8.1386719,6.7998047,13.4150391,8.8349609
		c5.2431641,2.0214844,11.2617188,3.046875,17.8886719,3.046875c4.9833984,0,9.671875-0.6054688,13.9345703-1.7988281
		c4.2919922-1.2021484,8.1445313-2.9765625,11.4501953-5.2763672c3.3310547-2.3164063,6.1220703-5.2255859,8.296875-8.6445313
		c1.7441406-2.7470703,3.0302734-5.8466797,3.8212891-9.2128906c0.2451172-1.0400391,0.0039063-2.1210938-0.6640625-2.9638672
		c-0.6708984-0.8476563-1.6748047-1.3339844-2.7529297-1.3339844h-13.7441406c-1.6445313,0-3.046875,1.1279297-3.4101563,2.7431641
		c-0.3544922,1.5722656-0.9267578,2.953125-1.6992188,4.1044922c-1.015625,1.5107422-2.2822266,2.765625-3.7646484,3.7294922
		c-1.5097656,0.9804688-3.2373047,1.7089844-5.1347656,2.1640625c-1.9521484,0.46875-4.0273438,0.7060547-6.1669922,0.7060547
		c-2.84375,0-5.5078125-0.4814453-7.9179688-1.4326172c-2.3798828-0.9345703-4.5-2.3876953-6.3017578-4.3173828
		c-1.8203125-1.9472656-3.3222656-4.4755859-4.4638672-7.5146484c-0.9619141-2.5576172-1.6064453-5.5820313-1.9160156-8.9892578
		c-0.0185547-0.1982422,0.0761719-0.3339844,0.1337891-0.3974609c0.0566406-0.0615234,0.1787109-0.1640625,0.3681641-0.1640625
		h56.1982422c1.9296875,0,3.5-1.5703125,3.5-3.5v-2.3164063c0-6.9423828-0.9648438-13.1987305-2.8662109-18.5947266
		C545.2241211,86.8554688,542.4311523,82.2050781,538.8393555,78.46875z M527.8833008,101.2348633
		c-0.0566406,0.0673828-0.1826172,0.1816406-0.3847656,0.1816406H490.824707c-0.203125,0-0.3291016-0.1142578-0.3857422-0.1816406
		c-0.0576172-0.0683594-0.1474609-0.2124023-0.1123047-0.4111328c1.0429688-5.9038086,3.1142578-10.4272461,6.1542969-13.4443359
		c3.4189453-3.3935547,7.4853516-5.0429688,12.4326172-5.0429688c2.5761719,0,4.9873047,0.4023438,7.1640625,1.1958008
		c2.1337891,0.7788086,4.0439453,2.0024414,5.6787109,3.6357422c1.6542969,1.6552734,3.0556641,3.8022461,4.1650391,6.3798828
		c0.8916016,2.0756836,1.5898438,4.5219727,2.0742188,7.2714844
		C528.0317383,101.0209961,527.940918,101.1665039,527.8833008,101.2348633z"/>
	<path class="st1" d="M610.6108398,109.8344727c-0.1162109-0.1708984-0.1171875-0.390625,0-0.5625l23.6738281-34.8447266v-0.0004883
		c0.7294922-1.0751953,0.8046875-2.456543,0.1962891-3.6049805c-0.6083984-1.1479492-1.7929688-1.8613281-3.0917969-1.8613281
		h-15.671875c-1.2275391,0-2.3808594,0.6557617-3.0078125,1.7109375l-14.3886719,24.1953125
		c-0.1259766,0.2124023-0.3232422,0.2446289-0.4296875,0.2446289s-0.3027344-0.0317383-0.4296875-0.2436523l-14.4648438-24.203125
		c-0.6289063-1.0512695-1.7792969-1.7041016-3.0039063-1.7041016h-15.8427734c-1.2988281,0-2.4833984,0.7128906-3.0917969,1.8603516
		c-0.6083984,1.1479492-0.5341797,2.5292969,0.1953125,3.6049805l23.7607422,35.012207
		c0.1162109,0.1708984,0.1162109,0.3916016-0.0009766,0.5625l-25.9716797,37.9130859
		c-0.7363281,1.0742188-0.8164063,2.4580078-0.2089844,3.609375c0.6074219,1.1523438,1.7929688,1.8681641,3.0957031,1.8681641
		h16.1699219c1.2099609,0,2.3535156-0.640625,2.9833984-1.6708984l16.3837891-26.7216797
		c0.1269531-0.2080078,0.3203125-0.2392578,0.4257813-0.2392578c0.1054688,0.0009766,0.2998047,0.0322266,0.4267578,0.2402344
		l16.3056641,26.7158203c0.6318359,1.0332031,1.7763672,1.6757813,2.9873047,1.6757813h16.1699219
		c1.3017578,0,2.4882813-0.7148438,3.0957031-1.8662109c0.6074219-1.1523438,0.5283203-2.5351563-0.2070313-3.6103516
		L610.6108398,109.8344727z"/>
	<path class="st1" d="M687.6928711,138.5512695c-0.7666016-0.6728516-1.7880859-0.9804688-2.8095703-0.8515625
		c-0.3984375,0.0517578-0.7919922,0.0917969-1.1875,0.1191406c-2.1953125,0.1582031-4.4550781,0.2636719-6.0869141-0.2958984
		c-0.6757813-0.2314453-1.2392578-0.6669922-1.7216797-1.3300781c-0.5390625-0.7421875-0.9707031-1.8505859-1.2832031-3.2978516
		c-0.3359375-1.5410156-0.5058594-3.6123047-0.5058594-6.1552734V86.0737305c0-0.2758789,0.2246094-0.5,0.5-0.5h9.1982422
		c1.9296875,0,3.5-1.5703125,3.5-3.5v-9.6132813c0-1.9296875-1.5703125-3.5-3.5-3.5h-9.1982422c-0.2753906,0-0.5-0.2241211-0.5-0.5
		V52.206543c0-1.9296875-1.5703125-3.5-3.5-3.5h-14.1787109c-1.9296875,0-3.5,1.5703125-3.5,3.5v16.2539063
		c0,0.2758789-0.2246094,0.5-0.5,0.5h-6.3759766c-1.9296875,0-3.5,1.5703125-3.5,3.5v9.6132813c0,1.9296875,1.5703125,3.5,3.5,3.5
		h6.3759766c0.2753906,0,0.5,0.2241211,0.5,0.5v42.9072266c0,4.1132813,0.3017578,7.7695313,0.8984375,10.8681641
		c0.6269531,3.2509766,1.8496094,6.0019531,3.6328125,8.1777344c1.8017578,2.2001953,4.2880859,3.8642578,7.3896484,4.9482422
		c2.9951172,1.046875,6.8613281,1.578125,11.4931641,1.578125c2.1386719,0,4.140625-0.0859375,5.9501953-0.2558594
		c1.2666016-0.1181641,2.5361328-0.3076172,3.7753906-0.5625c1.6308594-0.3349609,2.8144531-1.7802734,2.8144531-3.4375v-9.1347656
		C688.8735352,140.1625977,688.4428711,139.2104492,687.6928711,138.5512695z"/>
</g>
</svg>
