<?xml version="1.0" encoding="utf-8"?>
<!-- Generator: Adobe Illustrator 19.2.1, SVG Export Plug-In . SVG Version: 6.00 Build 0)  -->
<svg version="1.1" id="Layer_1" xmlns="http://www.w3.org/2000/svg" xmlns:xlink="http://www.w3.org/1999/xlink" x="0px" y="0px"
	 viewBox="0 0 400 400" style="enable-background:new 0 0 400 400;" xml:space="preserve">
<style type="text/css">
	.st0{fill:#FFFFFF;}
	.st1{fill:#193E45;}
	.st2{fill:#57B0C2;}
	.st3{fill:#307583;}
</style>
<g>
	<path class="st0" d="M244.9,111.2c9.5,0,18.1,2.5,25.6,7.4c2.3,1.5,4.5,3.3,6.6,5.2c0.5,0.4,0.9,0.9,1.4,1.3
		c7.8,7.8,12.4,17.1,13.6,27.6c4.6-5.9,6.9-13,6.9-21.2c0-9.3-3-17.3-9-23.6c-6.1-6.4-14.1-9.8-23.2-9.8c-9,0-17,3.4-23.1,9.8
		c-1,1.1-1.9,2.2-2.8,3.4C242.2,111.3,243.5,111.2,244.9,111.2z"/>
	<path class="st1" d="M234.2,238.4l0.3,0.1c2.2,0.7,4.7,1,7.3,1H380l-29.3-37.8l3.9-6c11.3-17.3,17-36.9,17-58.1
		c0-29.6-9.9-54.1-30.4-74.6c-20.5-20.5-44.8-30.5-74.3-30.5c-29.4,0-53.7,10-74.1,30.5c-20.5,20.6-30.4,45-30.4,74.6
		c0,29.8,10,54.3,30.4,74.9C204.9,224.9,218.9,233.6,234.2,238.4z M266.8,98.2c9.1,0,17.2,3.4,23.2,9.8c6,6.3,9,14.3,9,23.6
		c0,8.2-2.3,15.3-6.9,21.2c-1.2-10.6-5.8-19.8-13.6-27.6c-0.5-0.4-0.9-0.9-1.4-1.3c-2.1-2-4.3-3.7-6.6-5.2c-7.5-5-16.1-7.4-25.6-7.4
		c-1.3,0-2.7,0.1-4,0.2c0.8-1.2,1.8-2.3,2.8-3.4C249.8,101.6,257.7,98.2,266.8,98.2z"/>
	<path class="st2" d="M359.7,253.3H236.1c-3.2,0-6.3-0.4-9-1.3l-0.3-0.1c-18.9-6-36.1-16.7-51.1-31.8c-18.5-18.7-30-39.9-34.8-64.5
		c-26.9-14-47.9-28.4-63.1-40.2c-4.5,15.5-31.4,117.3,31.4,188.7c15.5,17.7,35.6,32.5,60.1,44.5c34.6,16.9,68.1,22.3,100.8,16.5
		c32.6-5.9,57.7-21.8,75.3-47.7c14.3-21.1,19.1-42.2,14.5-63.5C359.8,253.7,359.7,253.5,359.7,253.3z"/>
	<path class="st3" d="M57.2,140c-14.2-1.7-26.7-4-37.2-6.2c1.7,10.1,10.2,55.6,38.6,97.1C52.1,196.9,53.8,164.3,57.2,140z"/>
</g>
</svg>
