<?xml version="1.0" encoding="utf-8"?>
<!-- Generator: Adobe Illustrator 19.2.1, SVG Export Plug-In . SVG Version: 6.00 Build 0)  -->
<svg version="1.1" id="Layer_1" xmlns="http://www.w3.org/2000/svg" xmlns:xlink="http://www.w3.org/1999/xlink" x="0px" y="0px"
	 viewBox="0 0 200 200" style="enable-background:new 0 0 200 200;" xml:space="preserve">
<style type="text/css">
	.st0{fill:none;}
	.st1{fill:#57B0C2;}
	.st2{fill:#EE8825;}
</style>
<g>
	<path class="st0" d="M54.8728561,42.3465805c-0.0083809-0.1225548-0.0171814-0.244957-0.0225868-0.3683014l0.0040359,0.3696976
		C54.8604698,42.347702,54.8666916,42.3468552,54.8728561,42.3465805z"/>
	<path class="st1" d="M84.8275757,68.6202087c-4.2968445-2.2432327-10.2891693-5.3754921-14.003479-10.8184052
		c-0.3423157-0.5016022-0.6671143-1.020874-0.9675674-1.5628815c-0.0339661,0.0002441-0.0674515,0.0025826-0.1014862,0.0025826
		c-0.4939499,0-0.9820099-0.0254707-1.4637909-0.0726166c-6.3601456-0.6222458-11.558979-5.2544823-13.0342484-11.3279877
		c-3.6771202,0.1134148-7.4667778,1.211853-10.4320374,3.1942787c-5.7192917,3.8240509-8.3669167,10.5403557-7.3122559,16.9239655
		c0.8293152,3.4457932,1.946846,6.0173721,3.2744522,7.4020233c1.3840141,1.3270035,3.9540443,2.4442291,7.3977737,3.2734528
		c2.7681465,0.6665344,6.098278,1.1471329,9.8266144,1.4014359c1.650795,0.1126022,3.3783379,0.1815109,5.1706619,0.2018814
		c11.0084763,0.1282349,21.7036514-1.5951233,25.4359665-4.0907745c1.0190506-0.6814728,1.2337418-1.112793,1.2283936-1.209938
		C89.8077164,71.2202911,86.810791,69.6552887,84.8275757,68.6202087z"/>
	<path class="st2" d="M86.7875366,33.5083275l-3.9343414,0.6707878c0.3910446,0.7143784,0.7224579,1.4653091,0.9938889,2.2441711
		L86.7875366,33.5083275z"/>
	<path class="st1" d="M57.5379066,43.623764c0.0830612,0.4413109,0.1880684,0.8748512,0.3165703,1.2985268
		c1.3809776,4.5534286,5.3079147,8.0086021,10.1172562,8.7025223c0.2371902,0.0342407,0.476799,0.0604706,0.7180862,0.0810547
		c0.3514862,0.0299911,0.7061234,0.0487251,1.0652237,0.0487251c0.2574387,0,0.5123825-0.0103836,0.7659912-0.025898
		c0.2781067-0.0169678,0.553299-0.0444717,0.8262177-0.0795364c6.106781-0.7845078,10.8423538-6.0123634,10.8423538-12.3291283
		c0-6.8564949-5.578064-12.4345608-12.4345627-12.4345608c-6.6364288,0-12.0747566,5.2258549-12.4170418,11.7785892
		c-0.0113525,0.2172699-0.0175171,0.4359093-0.0175171,0.6559715c0,0.3571281,0.0186386,0.7098274,0.0482979,1.0594292
		C57.4045143,42.8005524,57.4611015,43.2155418,57.5379066,43.623764z M72.2420197,34.8540306
		c1.3712006,0,2.486908,1.1157074,2.486908,2.4869118c0,1.3712006-1.1157074,2.4869118-2.486908,2.4869118
		s-2.4869156-1.1157112-2.4869156-2.4869118C69.7551041,35.969738,70.8708191,34.8540306,72.2420197,34.8540306z"/>
	<path class="st1" d="M43.4425926,45.9679337c3.2988014-2.2057076,7.3869667-3.4443665,11.4117126-3.619957l-0.0040359-0.3696976
		c-5.1398811-3.7324944-8.147583-9.4926758-10.3220825-13.657465c-1.0355644-1.9832153-2.6003265-4.9801388-3.3170166-5.0189953
		c-0.0012131-0.0002441-0.0024261-0.0002441-0.003643-0.0002441c-0.1039429,0-0.5330811,0.2212486-1.2065392,1.2286415
		c-2.4954147,3.7323112-4.2156067,14.4294319-4.0905342,25.4354782c0.0203705,1.7930222,0.0893135,3.5212631,0.2019691,5.1726379
		C37.5061836,51.5208015,39.9821663,48.2815933,43.4425926,45.9679337z"/>
	<circle cx="72.2420197" cy="37.3409424" r="2.486912"/>
	<path d="M85.9782639,66.4154968c-4.3991241-2.2967758-10.0971603-5.2756386-13.3921127-10.4468498
		c6.8780518-1.3268471,12.0903702-7.3890305,12.0903702-14.6486168c0-0.7032089-0.0524902-1.3941231-0.1470566-2.0717087
		l4.5681839-4.5278664c0.6965256-0.6909447,0.8631287-1.7410812,0.4143219-2.6134453
		c-0.4483261-0.8723602-1.3998566-1.3474007-2.3664551-1.182497l-5.8160095,0.9916992
		c-2.7382431-3.3639183-6.9089203-5.5176544-11.5744629-5.5176544c-7.4230003,0-13.5954094,5.4491673-14.7321587,12.5569324
		c-3.8813667-3.3447914-6.3331566-8.0371094-8.2902336-11.7856007c-1.9606285-3.7551403-3.2558136-6.235981-5.3871765-6.3513412
		c-1.7833405-0.1071014-3.0105247,1.7291813-3.4117317,2.3292961c-4.4369774,6.6362171-6.0902939,28.8311176-2.8709984,42.2338486
		c0.0001488,0.000824,0.0003319,0.0016708,0.0004845,0.0024948l-4.5353355,4.5353317h-5.9511032
		c-0.6868153,0-1.2434559,0.5566406-1.2434559,1.2434616c0,0.6868134,0.5566406,1.243454,1.2434559,1.243454h3.4641895
		l-2.8512058,2.8512039c-0.4857235,0.4857254-0.4857235,1.2725983,0,1.7583237
		c0.2426205,0.2428665,0.5610123,0.364296,0.8791637,0.364296c0.3181496,0,0.6365414-0.1214294,0.8791618-0.364296
		l2.8512058-2.8512039v3.4641876c0,0.686821,0.5566406,1.2434616,1.2434559,1.2434616s1.2434559-0.5566406,1.2434559-1.2434616
		v-5.9511032l3.4688339-3.4688339c0.5381546,1.6562042,1.3056602,3.266655,2.3202782,4.7841797
		c0.2490883,0.372551,0.5552444,0.7263412,0.9032059,1.0656509c0.3721275,0.3969879,0.7637749,0.7381821,1.1766701,1.0142212
		c1.5186195,1.0153809,3.1303749,1.7799149,4.7876091,2.3163681l-3.4725075,3.4725037h-5.9511032
		c-0.6868172,0-1.2434578,0.5566406-1.2434578,1.2434616c0,0.6868134,0.5566406,1.243454,1.2434578,1.243454h3.4641914
		l-2.8512077,2.8512039c-0.4857254,0.4857254-0.4857254,1.2725983,0,1.7583237
		c0.2426186,0.2428665,0.5610123,0.364296,0.8791618,0.364296s0.6365433-0.1214294,0.8791618-0.364296l2.8512077-2.8512039
		v3.4641876c0,0.686821,0.5566406,1.2434616,1.243454,1.2434616c0.6868172,0,1.2434578-0.5566406,1.2434578-1.2434616v-5.9511032
		l4.5370064-4.5370026c4.7947121,1.1520157,10.7107201,1.6828842,16.6425514,1.6828842
		c10.6475754,0,21.3301239-1.7019806,25.5923615-4.5517273c0.5998688-0.401207,2.4261932-1.6223221,2.3290482-3.4117355
		C92.2144852,69.6713181,89.7333984,68.375885,85.9782639,66.4154968z M86.7875366,33.5083275l-2.9404526,2.914959
		c-0.271431-0.778862-0.6028442-1.5297928-0.9938889-2.2441711L86.7875366,33.5083275z M57.3380013,40.6640587
		c0.3422852-6.5527344,5.7806129-11.7785892,12.4170418-11.7785892c6.8564987,0,12.4345627,5.5780659,12.4345627,12.4345608
		c0,6.3167648-4.7355728,11.5446205-10.8423538,12.3291283c-0.2729187,0.0350647-0.548111,0.0625687-0.8262177,0.0795364
		c-0.2536087,0.0155144-0.5085526,0.025898-0.7659912,0.025898c-0.3591003,0-0.7137375-0.018734-1.0652237-0.0487251
		c-0.2412872-0.0205841-0.480896-0.046814-0.7180862-0.0810547c-4.8093414-0.6939201-8.7362785-4.1490936-10.1172562-8.7025223
		c-0.1285019-0.4236755-0.2335091-0.8572159-0.3165703-1.2985268c-0.0768051-0.4082222-0.1333923-0.8232117-0.1691246-1.2443047
		c-0.0296593-0.3496017-0.0482979-0.702301-0.0482979-1.0594292C57.3204842,41.099968,57.3266487,40.8813286,57.3380013,40.6640587z
		 M35.9104538,49.9656944c-0.1250725-11.0060463,1.5951195-21.703167,4.0905342-25.4354782
		c0.6734581-1.0073929,1.1025963-1.2286415,1.2065392-1.2286415c0.0012169,0,0.00243,0,0.003643,0.0002441
		c0.7166901,0.0388565,2.2814522,3.03578,3.3170166,5.0189953c2.1744995,4.1647892,5.1822014,9.9249706,10.3220825,13.657465
		c0.0054054,0.1233444,0.0142059,0.2457466,0.0225868,0.3683014c-0.0061646,0.0002747-0.0123863,0.0011215-0.0185509,0.0013962
		c-4.0247459,0.1755905-8.1129112,1.4142494-11.4117126,3.619957c-3.4604263,2.3136597-5.936409,5.5528679-7.3301697,9.1703987
		C35.9997673,53.4869576,35.9308243,51.7587166,35.9104538,49.9656944z M88.6181793,73.1471634
		c-3.7323151,2.4956512-14.4274902,4.2190094-25.4359665,4.0907745c-1.7923241-0.0203705-3.5198669-0.0892792-5.1706619-0.2018814
		c-3.7283363-0.254303-7.0584679-0.7349014-9.8266144-1.4014359c-3.4437294-0.8292236-6.0137596-1.9464493-7.3977737-3.2734528
		c-1.3276062-1.3846512-2.445137-3.9562302-3.2744522-7.4020233c-1.0546608-6.3836098,1.5929642-13.0999146,7.3122559-16.9239655
		c2.9652596-1.9824257,6.7549171-3.080864,10.4320374-3.1942787c1.4752693,6.0735054,6.6741028,10.7057419,13.0342484,11.3279877
		c0.481781,0.0471458,0.969841,0.0726166,1.4637909,0.0726166c0.0340347,0,0.0675201-0.0023384,0.1014862-0.0025826
		c0.3004532,0.5420074,0.6252518,1.0612793,0.9675674,1.5628815c3.7143097,5.4429131,9.7066345,8.5751724,14.003479,10.8184052
		c1.9832153,1.03508,4.9801407,2.6000824,5.0189972,3.3170166C89.8519211,72.0343704,89.6372299,72.4656906,88.6181793,73.1471634z"
		/>
</g>
<g>
	<path class="st0" d="M139.206192,75.287117c-0.0083771-0.122551-0.0171814-0.244957-0.022583-0.3683014l0.0040283,0.3696976
		C139.1938019,75.2882385,139.2000275,75.2873917,139.206192,75.287117z"/>
	<path class="st1" d="M169.1609192,101.5607452c-4.2968597-2.2432327-10.2891846-5.3754883-14.0034943-10.8184052
		c-0.3423157-0.5016022-0.6671143-1.020874-0.9675598-1.5628815c-0.0339661,0.0002441-0.0674591,0.0025864-0.1014862,0.0025864
		c-0.4939575,0-0.9820099-0.0254745-1.4637909-0.0726166c-6.3601532-0.6222458-11.5589905-5.2544861-13.034256-11.3279877
		c-3.6771088,0.1134109-7.4667664,1.211853-10.4320374,3.1942749c-5.7192841,3.8240509-8.3669128,10.5403595-7.3122559,16.9239655
		c0.8293152,3.4457932,1.9468536,6.0173721,3.2744598,7.4020233c1.3840103,1.3270035,3.9540405,2.4442291,7.3977661,3.2734528
		c2.768158,0.6665421,6.0982819,1.1471329,9.8266144,1.4014435c1.6508026,0.1125946,3.3783417,0.1815033,5.1706696,0.2018738
		c11.0084686,0.1282349,21.7036438-1.5951157,25.4359589-4.0907745c1.0190582-0.6814728,1.2337494-1.112793,1.2283936-1.209938
		C174.1410522,104.1608276,171.1441193,102.5958252,169.1609192,101.5607452z"/>
	<path class="st2" d="M171.1208801,66.4488678l-3.9343567,0.670784c0.3910522,0.7143784,0.7224579,1.4653091,0.9938965,2.2441711
		L171.1208801,66.4488678z"/>
	<path class="st1" d="M141.8712463,76.5643005c0.0830536,0.4413147,0.1880646,0.874855,0.3165588,1.2985229
		c1.3809814,4.5534363,5.3079224,8.008606,10.1172638,8.7025299c0.2371826,0.0342407,0.4768066,0.0604706,0.7180786,0.0810547
		c0.3514862,0.0299911,0.706131,0.0487213,1.0652313,0.0487213c0.257431,0,0.5123749-0.0103836,0.7659912-0.0258942
		c0.2781067-0.0169678,0.553299-0.0444717,0.8262177-0.0795364c6.106781-0.7845078,10.8423462-6.0123672,10.8423462-12.3291321
		c0-6.8564911-5.578064-12.4345589-12.4345551-12.4345589c-6.6364288,0-12.0747528,5.2258568-12.417038,11.7785912
		c-0.0113678,0.2172699-0.0175171,0.4359055-0.0175171,0.6559677c0,0.357132,0.018631,0.7098312,0.0482941,1.0594254
		C141.737854,75.7410889,141.7944336,76.1560822,141.8712463,76.5643005z M156.5753479,67.7945633
		c1.3712006,0,2.486908,1.115715,2.486908,2.4869156s-1.1157074,2.4869156-2.486908,2.4869156
		s-2.486908-1.115715-2.486908-2.4869156S155.2041473,67.7945633,156.5753479,67.7945633z"/>
	<path class="st1" d="M127.7759247,78.9084702c3.2987976-2.2057037,7.3869629-3.4443665,11.4117126-3.619957l-0.0040283-0.3696976
		c-5.1398926-3.7324905-8.147583-9.4926758-10.3220825-13.6574631c-1.0355682-1.9832153-2.6003342-4.9801369-3.3170242-5.0189972
		c-0.0012131-0.0002403-0.0024261-0.0002403-0.0036392-0.0002403c-0.1039429,0-0.5330811,0.2212448-1.206543,1.2286415
		c-2.4954147,3.7323112-4.2156067,14.4294281-4.0905304,25.4354782c0.0203705,1.7930222,0.0893097,3.5212631,0.2019653,5.1726379
		C121.8395157,84.4613419,124.3154984,81.2221298,127.7759247,78.9084702z"/>
	<circle cx="156.5753479" cy="70.2814789" r="2.486912"/>
	<path d="M170.3115997,99.356041c-4.3991241-2.2967834-10.097168-5.2756424-13.3921051-10.4468536
		c6.8780365-1.3268509,12.0903625-7.3890305,12.0903625-14.6486206c0-0.7032089-0.0524902-1.3941193-0.1470642-2.0717087
		l4.5681915-4.5278625c0.6965332-0.6909485,0.8631287-1.7410812,0.4143219-2.6134491
		c-0.4483337-0.8723602-1.3998566-1.3473969-2.3664551-1.1824951l-5.8160095,0.9916992
		c-2.7382507-3.3639183-6.9089203-5.5176544-11.5744629-5.5176544c-7.4230042,0-13.5954132,5.4491653-14.7321625,12.5569305
		c-3.8813629-3.3447876-6.3331604-8.0371056-8.2902374-11.7855988c-1.9606171-3.7551422-3.2558136-6.235981-5.3871689-6.3513412
		c-1.7833405-0.1071014-3.0105286,1.7291832-3.4117355,2.3292961c-4.4369736,6.6362152-6.0902939,28.8311195-2.8710022,42.2338524
		c0.0001526,0.0008163,0.0003357,0.0016708,0.0004883,0.0024872l-4.5353317,4.5353394h-5.9511032
		c-0.686821,0-1.2434616,0.5566406-1.2434616,1.243454s0.5566406,1.243454,1.2434616,1.243454h3.4641876l-2.8512039,2.8512039
		c-0.4857254,0.4857254-0.4857254,1.2726059,0,1.7583237c0.2426147,0.2428665,0.5610123,0.364296,0.879158,0.364296
		c0.3181534,0,0.6365433-0.1214294,0.8791656-0.364296l2.8512039-2.8512039v3.4641953
		c0,0.6868134,0.5566406,1.243454,1.243454,1.243454c0.686821,0,1.2434616-0.5566406,1.2434616-1.243454v-5.9511032
		l3.4688339-3.4688416c0.5381546,1.6562042,1.3056564,3.266655,2.3202744,4.7841797
		c0.2490921,0.372551,0.5552444,0.7263412,0.9032059,1.0656509c0.3721313,0.3969879,0.7637787,0.7381821,1.1766739,1.0142288
		c1.5186157,1.0153732,3.1303711,1.7799072,4.7876129,2.3163605l-3.4725113,3.4725113h-5.9511032
		c-0.686821,0-1.2434616,0.5566406-1.2434616,1.243454s0.5566406,1.243454,1.2434616,1.243454h3.4641876l-2.8512039,2.8512039
		c-0.4857254,0.4857254-0.4857254,1.2726059,0,1.7583237c0.2426147,0.2428665,0.5610123,0.364296,0.879158,0.364296
		c0.3181534,0,0.6365433-0.1214294,0.8791656-0.364296l2.8512039-2.8512039v3.4641953
		c0,0.6868134,0.5566406,1.243454,1.243454,1.243454c0.686821,0,1.2434616-0.5566406,1.2434616-1.243454v-5.9511032
		l4.5370026-4.5370102c4.7947083,1.1520233,10.7107239,1.6828842,16.6425476,1.6828842
		c10.647583,0,21.3301239-1.7019806,25.5923615-4.5517273c0.5998688-0.401207,2.4262085-1.6223221,2.3290558-3.4117279
		C176.547821,102.6118546,174.0667419,101.3164215,170.3115997,99.356041z M171.1208801,66.4488678l-2.9404602,2.9149551
		c-0.2714386-0.778862-0.6028442-1.5297928-0.9938965-2.2441711L171.1208801,66.4488678z M141.6713409,73.604599
		c0.3422852-6.5527344,5.7806091-11.7785912,12.417038-11.7785912c6.8564911,0,12.4345551,5.5780678,12.4345551,12.4345589
		c0,6.3167648-4.7355652,11.5446243-10.8423462,12.3291321c-0.2729187,0.0350647-0.548111,0.0625687-0.8262177,0.0795364
		c-0.2536163,0.0155106-0.5085602,0.0258942-0.7659912,0.0258942c-0.3591003,0-0.7137451-0.0187302-1.0652313-0.0487213
		c-0.241272-0.0205841-0.480896-0.046814-0.7180786-0.0810547c-4.8093414-0.693924-8.7362823-4.1490936-10.1172638-8.7025299
		c-0.1284943-0.4236679-0.2335052-0.8572083-0.3165588-1.2985229c-0.0768127-0.4082184-0.1333923-0.8232117-0.1691284-1.2443085
		c-0.0296631-0.3495941-0.0482941-0.7022934-0.0482941-1.0594254
		C141.6538239,74.0405045,141.6599731,73.8218689,141.6713409,73.604599z M120.2437897,82.9062347
		c-0.1250763-11.0060501,1.5951157-21.703167,4.0905304-25.4354782c0.6734619-1.0073967,1.1026001-1.2286415,1.206543-1.2286415
		c0.0012131,0,0.0024261,0,0.0036392,0.0002403c0.7166901,0.0388603,2.281456,3.0357819,3.3170242,5.0189972
		c2.1744995,4.1647873,5.1821899,9.9249725,10.3220825,13.6574631c0.0054016,0.1233444,0.0142059,0.2457504,0.022583,0.3683014
		c-0.0061646,0.0002747-0.0123901,0.0011215-0.0185547,0.0013962c-4.0247498,0.1755905-8.112915,1.4142532-11.4117126,3.619957
		c-3.4604263,2.3136597-5.936409,5.5528717-7.3301697,9.1704025
		C120.3330994,86.4274979,120.2641602,84.6992569,120.2437897,82.9062347z M172.9515076,106.0876999
		c-3.7323151,2.4956589-14.4274902,4.2190094-25.4359589,4.0907745c-1.7923279-0.0203705-3.5198669-0.0892792-5.1706696-0.2018738
		c-3.7283325-0.2543106-7.0584564-0.7349014-9.8266144-1.4014435c-3.4437256-0.8292236-6.0137558-1.9464493-7.3977661-3.2734528
		c-1.3276062-1.3846512-2.4451447-3.9562302-3.2744598-7.4020233c-1.054657-6.383606,1.5929718-13.0999146,7.3122559-16.9239655
		c2.965271-1.9824219,6.7549286-3.080864,10.4320374-3.1942749c1.4752655,6.0735016,6.6741028,10.7057419,13.034256,11.3279877
		c0.481781,0.047142,0.9698334,0.0726166,1.4637909,0.0726166c0.0340271,0,0.0675201-0.0023422,0.1014862-0.0025864
		c0.3004456,0.5420074,0.6252441,1.0612793,0.9675598,1.5628815c3.7143097,5.4429169,9.7066345,8.5751724,14.0034943,10.8184052
		c1.9832001,1.03508,4.9801331,2.6000824,5.0189819,3.3170166
		C174.185257,104.9749069,173.9705658,105.4062271,172.9515076,106.0876999z"/>
</g>
<g>
	<path class="st0" d="M66.7946243,131.7177124c-0.0083771-0.1225586-0.0171814-0.2449646-0.022583-0.3683014l0.0040359,0.3696899
		C66.7822418,131.7188263,66.7884674,131.7179871,66.7946243,131.7177124z"/>
	<path class="st1" d="M96.7493515,157.991333c-4.2968445-2.2432251-10.2891769-5.3754883-14.0034866-10.8184052
		c-0.342308-0.5016022-0.6671066-1.020874-0.9675598-1.5628815c-0.0339737,0.0002441-0.0674591,0.002594-0.1014862,0.002594
		c-0.4939499,0-0.9820175-0.0254822-1.4637909-0.0726166c-6.3601456-0.6222534-11.5589828-5.2544861-13.034256-11.3279877
		c-3.6771164,0.1134033-7.466774,1.211853-10.4320335,3.1942749c-5.7192917,3.8240509-8.3669167,10.5403595-7.3122559,16.9239655
		c0.8293152,3.4457855,1.946846,6.0173645,3.2744522,7.4020233c1.3840141,1.3269958,3.9540443,2.4442291,7.3977776,3.2734528
		c2.7681465,0.6665344,6.0982742,1.1471252,9.8266068,1.4014435c1.6508026,0.1125946,3.3783417,0.1815033,5.1706696,0.2018738
		c11.0084686,0.1282349,21.7036514-1.5951233,25.4359589-4.0907745c1.0190506-0.6814728,1.2337418-1.112793,1.2284012-1.2099457
		C101.7294922,160.5914154,98.7325668,159.026413,96.7493515,157.991333z"/>
	<path class="st2" d="M98.7093124,122.8794556l-3.9343414,0.6707916c0.391037,0.7143784,0.7224503,1.4653091,0.9938812,2.2441711
		L98.7093124,122.8794556z"/>
	<path class="st1" d="M69.4596786,132.9948883c0.0830612,0.4413147,0.1880646,0.8748627,0.3165741,1.2985229
		c1.3809738,4.5534363,5.3079071,8.008606,10.1172562,8.7025299c0.2371826,0.0342407,0.476799,0.0604706,0.7180862,0.0810547
		c0.3514786,0.0299988,0.7061234,0.0487213,1.0652237,0.0487213c0.257431,0,0.5123749-0.010376,0.7659836-0.0258942
		c0.2781143-0.0169678,0.5533066-0.0444641,0.8262253-0.0795288c6.1067734-0.7845154,10.8423538-6.0123749,10.8423538-12.3291321
		c0-6.8564987-5.5780716-12.4345627-12.4345627-12.4345627c-6.6364288,0-12.0747604,5.225853-12.4170456,11.7785873
		c-0.0113525,0.2172699-0.0175171,0.4359131-0.0175171,0.6559753c0,0.357132,0.0186386,0.7098236,0.0483017,1.059433
		C69.3262863,132.1716766,69.3828735,132.5866699,69.4596786,132.9948883z M84.1637878,124.2251587
		c1.3712006,0,2.4869156,1.1157074,2.4869156,2.4869156c0,1.3711929-1.115715,2.4869156-2.4869156,2.4869156
		s-2.486908-1.1157227-2.486908-2.4869156C81.6768799,125.3408661,82.7925873,124.2251587,84.1637878,124.2251587z"/>
	<path class="st1" d="M55.3643646,135.3390656c3.2988014-2.2057037,7.3869667-3.4443665,11.4117126-3.6199646l-0.0040359-0.3696899
		c-5.1398811-3.7324982-8.147583-9.4926758-10.3220825-13.6574631c-1.0355644-1.9832153-2.6003265-4.9801407-3.3170166-5.0189972
		c-0.0012131-0.0002441-0.0024261-0.0002441-0.003643-0.0002441c-0.1039429,0-0.5330811,0.2212448-1.2065392,1.2286377
		c-2.4954109,3.7323151-4.2156067,14.4294357-4.0905342,25.4354782c0.0203705,1.7930298,0.0893135,3.5212708,0.201973,5.1726379
		C49.4279556,140.8919373,51.9039383,137.6527252,55.3643646,135.3390656z"/>
	<circle cx="84.1637878" cy="126.7120743" r="2.486912"/>
	<path d="M97.900032,155.7866364c-4.3991165-2.2967834-10.0971603-5.27565-13.3921051-10.4468536
		c6.8780518-1.3268585,12.0903625-7.3890381,12.0903625-14.6486206c0-0.7032166-0.0524902-1.3941193-0.147049-2.0717163
		l4.5681763-4.5278625c0.6965332-0.6909409,0.8631363-1.7410812,0.4143295-2.6134415
		c-0.4483261-0.8723602-1.3998642-1.3474045-2.3664551-1.1824951l-5.8160095,0.9916916
		c-2.7382431-3.3639145-6.9089203-5.5176468-11.5744629-5.5176468c-7.4230042,0-13.5954132,5.4491653-14.7321625,12.5569229
		c-3.8813667-3.3447876-6.3331566-8.0371017-8.2902336-11.7855988c-1.9606285-3.7551346-3.2558136-6.2359772-5.3871765-6.3513336
		c-1.7833405-0.1071091-3.0105247,1.7291794-3.4117317,2.3292923c-4.4369774,6.6362152-6.0902939,28.8311234-2.8709984,42.2338486
		c0.0001526,0.000824,0.0003319,0.0016785,0.0004845,0.0024872l-4.5353355,4.5353394h-5.9511032
		c-0.6868134,0-1.2434578,0.5566406-1.2434578,1.243454s0.5566444,1.243454,1.2434578,1.243454h3.4641914l-2.8512077,2.8512115
		c-0.4857254,0.4857178-0.4857254,1.2725983,0,1.758316c0.2426224,0.2428741,0.5610123,0.3643036,0.8791618,0.3643036
		c0.3181534,0,0.6365433-0.1214294,0.8791656-0.3643036l2.8512039-2.8511963v3.4641876
		c0,0.6868134,0.5566406,1.243454,1.2434578,1.243454c0.6868134,0,1.243454-0.5566406,1.243454-1.243454v-5.9510956
		l3.4688377-3.4688416c0.5381508,1.6562042,1.3056564,3.2666473,2.3202782,4.7841797
		c0.2490845,0.3725433,0.5552444,0.7263336,0.9032059,1.0656433c0.3721237,0.3969879,0.7637711,0.7381897,1.1766663,1.0142365
		c1.5186195,1.0153656,3.1303787,1.7799072,4.7876091,2.3163605l-3.4725075,3.4725037h-5.9511032
		c-0.6868134,0-1.2434578,0.5566406-1.2434578,1.243454s0.5566444,1.243454,1.2434578,1.243454h3.4641914l-2.8512077,2.8512115
		c-0.4857254,0.4857178-0.4857254,1.2725983,0,1.758316c0.2426224,0.2428741,0.5610123,0.3643036,0.8791618,0.3643036
		c0.3181534,0,0.6365433-0.1214294,0.8791656-0.3643036l2.8512039-2.8511963v3.4641876
		c0,0.6868134,0.5566406,1.243454,1.2434578,1.243454c0.6868134,0,1.243454-0.5566406,1.243454-1.243454v-5.9510956
		l4.5370064-4.5370178c4.7947159,1.1520233,10.7107239,1.6828918,16.6425476,1.6828918
		c10.6475754,0,21.3301315-1.7019806,25.5923691-4.5517273c0.5998688-0.4012146,2.4261932-1.6223297,2.3290482-3.4117279
		C104.1362534,159.04245,101.6551743,157.7470093,97.900032,155.7866364z M98.7093124,122.8794556l-2.9404602,2.9149628
		c-0.271431-0.778862-0.6028442-1.5297928-0.9938812-2.2441711L98.7093124,122.8794556z M69.2597733,130.0351868
		c0.3422852-6.5527344,5.7806168-11.7785873,12.4170456-11.7785873c6.8564911,0,12.4345627,5.578064,12.4345627,12.4345627
		c0,6.3167572-4.7355804,11.5446167-10.8423538,12.3291321c-0.2729187,0.0350647-0.548111,0.062561-0.8262253,0.0795288
		c-0.2536087,0.0155182-0.5085526,0.0258942-0.7659836,0.0258942c-0.3591003,0-0.7137451-0.0187225-1.0652237-0.0487213
		c-0.2412872-0.0205841-0.4809036-0.046814-0.7180862-0.0810547c-4.8093491-0.693924-8.7362823-4.1490936-10.1172562-8.7025299
		c-0.1285095-0.4236603-0.2335129-0.8572083-0.3165741-1.2985229c-0.0768051-0.4082184-0.1333923-0.8232117-0.1691208-1.2442932
		c-0.0296631-0.3496094-0.0483017-0.702301-0.0483017-1.059433
		C69.2422562,130.4710999,69.2484207,130.2524567,69.2597733,130.0351868z M47.8322258,139.3368225
		c-0.1250725-11.0060425,1.5951233-21.7031631,4.0905342-25.4354782c0.6734581-1.0073929,1.1025963-1.2286377,1.2065392-1.2286377
		c0.0012169,0,0.00243,0,0.003643,0.0002441c0.7166901,0.0388565,2.2814522,3.0357819,3.3170166,5.0189972
		c2.1744995,4.1647873,5.1822014,9.9249649,10.3220825,13.6574631c0.0054016,0.1233368,0.0142059,0.2457428,0.022583,0.3683014
		c-0.0061569,0.0002747-0.0123825,0.0011139-0.0185471,0.0013885c-4.0247459,0.1755981-8.1129112,1.4142609-11.4117126,3.6199646
		c-3.4604263,2.3136597-5.936409,5.5528717-7.3301659,9.1703949
		C47.9215393,142.8580933,47.8525963,141.1298523,47.8322258,139.3368225z M100.5399475,162.5182953
		c-3.7323074,2.4956512-14.4274902,4.2190094-25.4359589,4.0907745c-1.7923279-0.0203705-3.5198669-0.0892792-5.1706696-0.2018738
		c-3.7283325-0.2543182-7.0584602-0.7349091-9.8266068-1.4014435c-3.4437332-0.8292236-6.0137634-1.9464569-7.3977776-3.2734528
		c-1.3276062-1.3846588-2.445137-3.9562378-3.2744522-7.4020233c-1.0546608-6.383606,1.5929642-13.0999146,7.3122559-16.9239655
		c2.9652596-1.9824219,6.7549171-3.0808716,10.4320335-3.1942749c1.4752731,6.0735016,6.6741104,10.7057343,13.034256,11.3279877
		c0.4817734,0.0471344,0.969841,0.0726166,1.4637909,0.0726166c0.0340271,0,0.0675125-0.0023499,0.1014862-0.002594
		c0.3004532,0.5420074,0.6252518,1.0612793,0.9675598,1.5628815c3.7143097,5.4429169,9.7066422,8.5751801,14.0034866,10.8184052
		c1.9832153,1.03508,4.9801407,2.6000824,5.0189972,3.3170166
		C101.7736893,161.4055023,101.5589981,161.8368225,100.5399475,162.5182953z"/>
</g>
</svg>
