<?xml version="1.0" encoding="utf-8"?>
<!-- Generator: Adobe Illustrator 19.2.1, SVG Export Plug-In . SVG Version: 6.00 Build 0)  -->
<svg version="1.1" id="Layer_1" xmlns="http://www.w3.org/2000/svg" xmlns:xlink="http://www.w3.org/1999/xlink" x="0px" y="0px"
	 viewBox="0 0 200 200" style="enable-background:new 0 0 200 200;" xml:space="preserve">
<style type="text/css">
	.st0{fill:#FFFFFF;}
	.st1{fill:#327684;}
	.st2{fill:#57B0C2;}
	.st3{fill:#1A3F45;}
</style>
<g>
	<path class="st0" d="M127.9641571,65.9837723c0.9488373,0.6236038,1.8597717,1.3413696,2.7318573,2.1553116
		c0.1889648,0.1763687,0.3777313,0.353241,0.5630951,0.5385361c3.2305908,3.2314224,5.0974426,7.0266953,5.6107178,11.3818665
		c1.8952026-2.4300995,2.85466-5.3607178,2.85466-8.7308044c0-3.8483353-1.2512817-7.1239319-3.7202454-9.737484
		c-2.4951019-2.6392975-5.8040771-4.0341606-9.5687561-4.0341606c-3.7264633,0-7.0147247,1.3952637-9.5092316,4.0349655
		c-0.4191742,0.4435616-0.8003693,0.9078331-1.1491852,1.3892784c0.5377808-0.0400429,1.081665-0.0653076,1.6359863-0.0653076
		C121.3420868,62.9159737,124.8577499,63.9422112,127.9641571,65.9837723z"/>
	<rect x="26.9498501" y="73.1238174" class="st1" width="9.8846931" height="9.8846931"/>
	<rect x="43.4243393" y="73.1238174" class="st2" width="9.8846931" height="9.8846931"/>
	<rect x="55.7802048" y="73.1238174" class="st2" width="9.8846931" height="9.8846931"/>
	<rect x="43.4243393" y="85.4796829" class="st2" width="9.8846931" height="9.8846931"/>
	<rect x="55.7802048" y="85.4796829" class="st2" width="9.8846931" height="9.8846931"/>
	<rect x="68.1360703" y="85.4796829" class="st2" width="9.8846931" height="9.8846931"/>
	<path class="st3" d="M113.1366425,115.3464584c0.9238739,0.2855682,1.9416656,0.4303589,3.0256195,0.4303589h56.8878937
		l-12.0879974-15.5819855l1.5993805-2.4562912c4.6414948-7.1271439,6.9948273-15.1805801,6.9948273-23.9362717
		c0-12.2106705-4.0971069-22.2622795-12.5256042-30.729187c-8.4238892-8.4600677-18.4318695-12.5726547-30.5952759-12.5726547
		c-9.0006332,0-16.8231735,2.2689133-23.7029877,6.8983383c-2.3873901,1.6064758-4.662056,3.4951477-6.8319244,5.6747208
		c-1.090416,1.0951881-2.1068268,2.2175026-3.0527725,3.3670425v1.9715538v9.8846931v2.4711723v9.8846931v2.4711761v9.8846893
		v2.4711761v9.8846893v5.9051132c0.9477081,1.1568298,1.9660721,2.2863846,3.0587997,3.3886642
		c2.1463394,2.1652908,4.4264908,4.056633,6.8258972,5.671524c3.2248077,2.1703949,6.6659393,3.8393631,10.2957458,4.9829941
		L113.1366425,115.3464584z M116.9262543,61.5920029c2.4945068-2.6397018,5.7827682-4.0349655,9.5092316-4.0349655
		c3.764679,0,7.0736542,1.3948631,9.5687561,4.0341606c2.4689636,2.6135521,3.7202454,5.8891487,3.7202454,9.737484
		c0,3.3700867-0.9594574,6.300705-2.85466,8.7308044c-0.5132751-4.3551712-2.380127-8.150444-5.6107178-11.3818665
		c-0.1853638-0.1852951-0.3741302-0.3621674-0.5630951-0.5385361c-0.8720856-0.813942-1.78302-1.5317078-2.7318573-2.1553116
		c-3.1064072-2.0415611-6.6220703-3.0677986-10.5511017-3.0677986c-0.5543213,0-1.0982056,0.0252647-1.6359863,0.0653076
		C116.125885,62.499836,116.5070801,62.0355644,116.9262543,61.5920029z"/>
	<rect x="80.4919357" y="73.1238174" class="st3" width="9.8846931" height="9.8846931"/>
	<rect x="80.4919357" y="60.7679482" class="st3" width="9.8846931" height="9.8846931"/>
	<rect x="80.4919357" y="85.4796829" class="st3" width="9.8846931" height="9.8846931"/>
	<rect x="80.4919357" y="48.4120827" class="st3" width="9.8846931" height="9.8846931"/>
	<rect x="55.7802048" y="97.8355484" class="st2" width="9.8846931" height="9.8846931"/>
	<rect x="68.1360703" y="97.8355484" class="st2" width="9.8846931" height="9.8846931"/>
	<rect x="55.7802048" y="110.1914139" class="st2" width="9.8846931" height="9.8846931"/>
	<rect x="68.1360703" y="110.1914139" class="st2" width="9.8846931" height="9.8846931"/>
	<rect x="55.7802048" y="122.5472794" class="st2" width="9.8846931" height="9.8846931"/>
	<rect x="68.1360703" y="122.5472794" class="st2" width="9.8846931" height="9.8846931"/>
	<rect x="55.7802048" y="134.9031525" class="st2" width="9.8846931" height="9.8846931"/>
	<rect x="68.1360703" y="134.9031525" class="st2" width="9.8846931" height="9.8846931"/>
	<rect x="80.4919357" y="110.1914139" class="st2" width="9.8846931" height="9.8846931"/>
	<rect x="80.4919357" y="122.5472794" class="st2" width="9.8846931" height="9.8846931"/>
	<rect x="80.4919357" y="134.9031525" class="st2" width="9.8846931" height="9.8846931"/>
	<rect x="80.4919357" y="147.2590179" class="st2" width="9.8846931" height="9.8846931"/>
	<rect x="92.8478012" y="122.5472794" class="st2" width="9.8846931" height="9.8846931"/>
	<rect x="92.8478012" y="134.9031525" class="st2" width="9.8846931" height="9.8846931"/>
	<rect x="92.8478012" y="147.2590179" class="st2" width="9.8846931" height="9.8846931"/>
	<rect x="92.8478012" y="159.6148834" class="st2" width="9.8846931" height="9.8846931"/>
	<path class="st2" d="M164.699585,121.4496765h-49.6112213h-1.281517c-1.3328705,0-2.5843658-0.1780548-3.7204056-0.5291824
		l-0.1332855-0.0415497c-1.6145401-0.5086975-3.1970367-1.1064072-4.7494888-1.7822189v48.1568909
		c3.3177032,0.6562042,6.6127777,1.0482025,9.884697,1.1700745c4.2696991,0.1590424,8.5004654-0.1366272,12.6923599-0.8871307
		c13.4316483-2.4112854,23.7720718-8.963974,31.0133438-19.6618652c5.8713226-8.6739655,7.8580627-17.3960419,5.9682617-26.1678314
		C164.7435455,121.6197357,164.7190399,121.5363541,164.699585,121.4496765z"/>
	<rect x="68.1360703" y="147.2590179" class="st2" width="9.8846931" height="9.8846931"/>
	<rect x="43.4243393" y="97.8355484" class="st2" width="9.8846931" height="9.8846931"/>
	<rect x="43.4243393" y="110.1914139" class="st2" width="9.8846931" height="9.8846931"/>
	<rect x="43.4243393" y="60.7679482" class="st2" width="9.8846931" height="9.8846931"/>
	<rect x="26.9498501" y="85.4796829" class="st1" width="9.8846931" height="9.8846931"/>
</g>
</svg>
