<?xml version="1.0" encoding="utf-8"?>
<!-- Generator: Adobe Illustrator 19.2.1, SVG Export Plug-In . SVG Version: 6.00 Build 0)  -->
<svg version="1.1" id="Layer_1" xmlns="http://www.w3.org/2000/svg" xmlns:xlink="http://www.w3.org/1999/xlink" x="0px" y="0px"
	 viewBox="0 0 1147.7272949 365.9090881" style="enable-background:new 0 0 1147.7272949 365.9090881;" xml:space="preserve">
<style type="text/css">
	.st0{fill:none;}
	.st1{fill:#57B0C2;}
	.st2{fill:#333645;}
	.st3{fill:#FFFFFF;}
</style>
<g>
	<path class="st0" d="M455.66922,230.9825134c-0.0976563-0.3251953-0.1791992-0.6962891-0.2441406-1.1132813h-0.078125
		c-0.078125,0.4169922-0.1660156,0.7880859-0.2636719,1.1132813c-0.0976563,0.3256836-0.1923828,0.6123047-0.2832031,0.859375
		l-3.6829224,10.1279907l1.8097534,2.3329468h7.5958252l-4.5703125-12.4609375
		C455.8611145,231.5948181,455.7668762,231.308197,455.66922,230.9825134z"/>
	<path class="st0" d="M497.4563293,245.7286072c-0.6386719,0.1953125-1.1660156,0.4589844-1.5820313,0.7910156
		c-0.4169922,0.3320313-0.7226563,0.7421875-0.9179688,1.2304688s-0.2929688,1.0908203-0.2929688,1.8066406
		c0,0.5341797,0.09375,1.0283203,0.2832031,1.484375c0.1884766,0.4560547,0.4619141,0.8496094,0.8203125,1.1816406
		c0.3574219,0.3320313,0.7939453,0.5888672,1.3085938,0.7714844c0.5136719,0.1826172,1.0966797,0.2734375,1.7480469,0.2734375
		c0.8847656,0,1.6992188-0.1689453,2.4414063-0.5078125s1.3828125-0.8076172,1.9238281-1.40625
		c0.5400391-0.5986328,0.9628906-1.3154297,1.2695313-2.1484375c0.3056641-0.8330078,0.4589844-1.7382813,0.4589844-2.7148438
		v-1.9726563l-5.15625,0.7226563C498.8625793,245.370697,498.0940247,245.5332947,497.4563293,245.7286072z"/>
	<path class="st0" d="M843.5891113,236.6465759c-1.09375,0-2.0839844,0.1889648-2.96875,0.5664063
		c-0.8857422,0.3779297-1.6445313,0.9277344-2.2753906,1.6503906c-0.6318359,0.7226563-1.1171875,1.6083984-1.4550781,2.65625
		c-0.3388672,1.0483398-0.5078125,2.2363281-0.5078125,3.5644531c0,1.25,0.1689453,2.3759766,0.5078125,3.3789063
		c0.3378906,1.0029297,0.8164063,1.8623047,1.4355469,2.578125c0.6181641,0.7158203,1.3701172,1.2666016,2.2558594,1.6503906
		c0.8847656,0.3837891,1.875,0.5761719,2.96875,0.5761719c1.1191406,0,2.109375-0.1855469,2.96875-0.5566406
		s1.5878906-0.9111328,2.1875-1.6210938c0.5986328-0.7099609,1.0507813-1.5791016,1.3574219-2.6074219
		c0.3056641-1.0283203,0.4589844-2.2001953,0.4589844-3.515625c0-2.6953125-0.5996094-4.7558594-1.796875-6.1816406
		C847.5275879,237.3594666,845.8156738,236.6465759,843.5891113,236.6465759z"/>
	<path class="st0" d="M904.0187988,236.6465759c-0.8466797,0-1.6308594,0.1499023-2.3535156,0.4492188
		c-0.7226563,0.2998047-1.3574219,0.7324219-1.9042969,1.2988281s-1,1.2568359-1.3574219,2.0703125
		c-0.3583984,0.8139648-0.609375,1.7285156-0.7519531,2.7441406h11.8164063
		c-0.0390625-2.0830078-0.5341797-3.6977539-1.484375-4.84375
		C907.0324707,237.2198181,905.7111816,236.6465759,904.0187988,236.6465759z"/>
	<path class="st0" d="M600.6398926,238.4825134c-0.5341797-0.5595703-1.1689453-1.0058594-1.9042969-1.3378906
		c-0.7363281-0.3320313-1.546875-0.4980469-2.4316406-0.4980469c-1.0419922,0-1.9824219,0.2021484-2.8222656,0.6054688
		c-0.8398438,0.4038086-1.5566406,0.9765625-2.1484375,1.71875c-0.5927734,0.7421875-1.0488281,1.644043-1.3671875,2.7050781
		c-0.3193359,1.0615234-0.4785156,2.2558594-0.4785156,3.5839844c0,1.2241211,0.1494141,2.3310547,0.4492188,3.3203125
		c0.2988281,0.9892578,0.7226563,1.8291016,1.2695313,2.5195313s1.2070313,1.2236328,1.9824219,1.6015625
		c0.7744141,0.3779297,1.6367188,0.5664063,2.5878906,0.5664063c0.9892578,0,1.8876953-0.1787109,2.6953125-0.5371094
		c0.8066406-0.3583984,1.4970703-0.8525391,2.0703125-1.484375c0.5722656-0.6318359,1.015625-1.3740234,1.328125-2.2265625
		s0.46875-1.7744141,0.46875-2.7636719v-3.4570313c0-0.8330078-0.1503906-1.6210938-0.4492188-2.3632813
		C601.5900879,239.6934509,601.1730957,239.042572,600.6398926,238.4825134z"/>
	<path class="st0" d="M522.0393066,154.4253845h-0.1953125c-0.3261719,1.9858398-0.7001953,3.5483398-1.1230469,4.6875
		l-10.8886414,29.8339844h24.2675476l-10.9863281-29.8339844C522.755127,158.136322,522.3967285,156.573822,522.0393066,154.4253845
		z"/>
	<path class="st0" d="M685.5617676,238.4629822c-0.5341797-0.5595703-1.1757813-1.0024414-1.9238281-1.328125
		c-0.7490234-0.3251953-1.5722656-0.4882813-2.4707031-0.4882813c-0.9902344,0-1.9013672,0.1953125-2.734375,0.5859375
		c-0.8339844,0.390625-1.546875,0.9541016-2.1386719,1.6894531c-0.5927734,0.7358398-1.0546875,1.6308594-1.3867188,2.6855469
		s-0.4980469,2.2529297-0.4980469,3.59375c0,1.2631836,0.1494141,2.3955078,0.4492188,3.3984375
		c0.2988281,1.0029297,0.7255859,1.8486328,1.2792969,2.5390625c0.5527344,0.6904297,1.2138672,1.2177734,1.9824219,1.5820313
		c0.7675781,0.3642578,1.6210938,0.546875,2.5585938,0.546875c1.015625,0,1.9296875-0.1826172,2.7441406-0.546875
		c0.8134766-0.3642578,1.5039063-0.8662109,2.0703125-1.5039063s1.0019531-1.3867188,1.3085938-2.2460938
		c0.3056641-0.859375,0.4589844-1.7773438,0.4589844-2.7539063v-3.3398438c0-0.8720703-0.1503906-1.6860352-0.4492188-2.4414063
		C686.5119629,239.6807556,686.0949707,239.0230408,685.5617676,238.4629822z"/>
	<path class="st0" d="M1012.5539551,236.6465759c-1.09375,0-2.0839844,0.1889648-2.96875,0.5664063
		c-0.8857422,0.3779297-1.6445313,0.9277344-2.2753906,1.6503906c-0.6318359,0.7226563-1.1171875,1.6083984-1.4550781,2.65625
		c-0.3388672,1.0483398-0.5078125,2.2363281-0.5078125,3.5644531c0,1.25,0.1689453,2.3759766,0.5078125,3.3789063
		c0.3378906,1.0029297,0.8164063,1.8623047,1.4355469,2.578125c0.6181641,0.7158203,1.3701172,1.2666016,2.2558594,1.6503906
		c0.8847656,0.3837891,1.875,0.5761719,2.96875,0.5761719c1.1191406,0,2.109375-0.1855469,2.96875-0.5566406
		s1.5878906-0.9111328,2.1875-1.6210938c0.5986328-0.7099609,1.0507813-1.5791016,1.3574219-2.6074219
		c0.3056641-1.0283203,0.4589844-2.2001953,0.4589844-3.515625c0-2.6953125-0.5996094-4.7558594-1.796875-6.1816406
		C1016.4924316,237.3594666,1014.7805176,236.6465759,1012.5539551,236.6465759z"/>
	<path class="st0" d="M1069.1359863,236.6465759c-0.8466797,0-1.6308594,0.1499023-2.3535156,0.4492188
		c-0.7226563,0.2998047-1.3574219,0.7324219-1.9042969,1.2988281s-1,1.2568359-1.3574219,2.0703125
		c-0.3583984,0.8139648-0.609375,1.7285156-0.7519531,2.7441406h11.8164063
		c-0.0390625-2.0830078-0.5341797-3.6977539-1.484375-4.84375
		C1072.1496582,237.2198181,1070.8283691,236.6465759,1069.1359863,236.6465759z"/>
	<path class="st0" d="M825.942627,238.6973572c-0.5273438-0.6640625-1.1660156-1.171875-1.9140625-1.5234375
		c-0.7490234-0.3515625-1.5859375-0.5273438-2.5097656-0.5273438c-1.0419922,0-1.9794922,0.1923828-2.8125,0.5761719
		c-0.8339844,0.3842773-1.5429688,0.9082031-2.1289063,1.5722656s-1.0351563,1.4423828-1.3476563,2.3339844
		c-0.3125,0.8920898-0.46875,1.8393555-0.46875,2.8417969v2.65625c0,0.9111328,0.1523438,1.7675781,0.4589844,2.5683594
		c0.3056641,0.8007813,0.7324219,1.5039063,1.2792969,2.109375s1.2070313,1.0839844,1.9824219,1.4355469
		c0.7744141,0.3515625,1.6308594,0.5273438,2.5683594,0.5273438c1.0019531,0,1.9072266-0.2119141,2.7148438-0.6347656
		c0.8066406-0.4228516,1.4941406-1.0253906,2.0605469-1.8066406s1.0019531-1.7255859,1.3085938-2.8320313
		c0.3056641-1.1064453,0.4589844-2.34375,0.4589844-3.7109375c0-1.171875-0.1435547-2.2294922-0.4296875-3.1738281
		C826.8762207,240.1656189,826.4699707,239.3614197,825.942627,238.6973572z"/>
	<path class="st0" d="M703.8234863,236.6465759c-0.8466797,0-1.6308594,0.1499023-2.3535156,0.4492188
		c-0.7226563,0.2998047-1.3574219,0.7324219-1.9042969,1.2988281s-1,1.2568359-1.3574219,2.0703125
		c-0.3583984,0.8139648-0.609375,1.7285156-0.7519531,2.7441406h11.8164063
		c-0.0390625-2.0830078-0.5341797-3.6977539-1.484375-4.84375
		C706.8371582,237.2198181,705.5158691,236.6465759,703.8234863,236.6465759z"/>
	<path class="st0" d="M783.0812988,236.6465759c-0.8466797,0-1.6308594,0.1499023-2.3535156,0.4492188
		c-0.7226563,0.2998047-1.3574219,0.7324219-1.9042969,1.2988281s-1,1.2568359-1.3574219,2.0703125
		c-0.3583984,0.8139648-0.609375,1.7285156-0.7519531,2.7441406h11.8164063
		c-0.0390625-2.0830078-0.5341797-3.6977539-1.484375-4.84375
		C786.0949707,237.2198181,784.7736816,236.6465759,783.0812988,236.6465759z"/>
	<path class="st1" d="M276.6291809,257.1324158c-1.9829102-0.5102539-3.965332-1.074707-5.8920898-1.6787109
		c-18.570816-5.8164063-35.3764801-16.2207031-49.9487457-30.9228516
		c-24.0351563-24.2456055-36.2226563-54.1889648-36.2226563-88.9975586c0-12.5842896,1.6103516-24.5253296,4.7979736-35.7908936
		c-18.4543457,16.7823486-32.350708,41.171936-41.9161377,73.3875732l-0.8237305,2.7749023l-2.8798828-0.2885742
		c-43.3989182-4.34375-76.9580002-24.0449219-99.8305588-58.5844727l-1.1967773,1.6567383
		c10.4233398,58.7280273,37.3056641,108.3618164,79.9169922,147.5488281
		c42.8788986,39.4335938,90.4462814,59.4277344,141.3808594,59.4277344c40.3076172,0,73.7480469-11.9130859,99.3935547-35.4086914
		c10.6535034-9.7629395,19.1092529-20.7224731,25.3579712-32.809082H277.8547668L276.6291809,257.1324158z"/>
	<path class="st2" d="M396.8303528,193.6504822c11.2695313-17.3046875,16.9833984-36.8579102,16.9833984-58.1171875
		c0-29.6474609-9.9477539-54.0527344-30.4121094-74.6098633c-20.453125-20.5410156-44.7524414-30.5268536-74.2851563-30.5268536
		c-29.4370117,0-53.6880035,9.9853497-74.1386871,30.5268536c-20.4643555,20.5546913-30.4121094,44.9594765-30.4121094,74.6098633
		c0,29.7587891,9.9526367,54.2646484,30.4267578,74.9179688c12.2558594,12.3642578,26.2934723,21.0839844,41.7236481,25.9169922
		c1.2128906,0.3803711,2.4526367,0.7416992,3.7001953,1.0791016h141.8803711l-29.3496094-37.8334961L396.8303528,193.6504822z
		 M334.4512024,150.7261047c-1.2461548-10.5744019-5.7789307-19.7893066-13.6228027-27.6351929
		c-0.4501953-0.4500122-0.9086304-0.8795776-1.3675537-1.3079224c-0.4631958-0.7643433-1.0077515-1.4840088-1.647583-2.1613159
		c-1.4572754-1.5414429-3.065918-2.541626-4.9851074-3.0715332c-7.5422974-4.9568481-16.0783081-7.4484863-25.6179199-7.4484863
		c-1.3392944,0-2.6534424,0.0610352-3.9529419,0.1572876c0.8453369-1.1660156,1.7554932-2.2976685,2.770813-3.3721313v-0.0004883
		c3.7854004-4.0054321,8.3236084-6.8308105,13.4039307-8.3865356c3.0481567-0.9334717,6.2915039-1.4098511,9.6844482-1.4098511
		c9.140625,0,17.1748047,3.387207,23.2329102,9.7949219c5.9951172,6.3466797,9.0327148,14.2998047,9.0327148,23.6425781
		C341.3821106,137.7102966,339.0526428,144.8259583,334.4512024,150.7261047z"/>
	<polygon class="st3" points="450.2688293,244.3028259 452.9269104,244.3028259 451.117157,241.9698792 	"/>
	<path class="st3" d="M446.3821106,254.9473572h-2.890625l5.8250122-15.298645l-31.9729614-41.2155151
		c6.8592529-11.9474487,11.5919189-24.7138062,14.168457-38.1811523v-14.3227539h1.8911133
		c0.2628784-3.4276123,0.4106445-6.8902588,0.4106445-10.3959961c0-34.7148438-12.1923828-64.5649414-36.2387695-88.7207031
		c-24.0600586-24.1640606-53.8217773-36.4160156-88.4584961-36.4160156c-34.5424805,0-64.2548981,12.2524424-88.312027,36.4160156
		c-12.1264038,12.1798706-21.2340698,25.8105507-27.2879028,40.7820473
		c-23.2631836,17.24823-40.6313477,44.2112427-51.9313354,80.7457886
		c-41.5170822-4.887207-73.3022385-24.8500977-94.5107346-59.3666992l-2.7470703-4.4711914l-9.012207,12.4785156l0.25,1.4506836
		c10.5058594,60.9169922,38.2060547,112.3793945,82.3300781,152.9580078
		c44.2119064,40.6591797,93.3735275,61.2753906,146.1191406,61.2753906c42.1137695,0,77.1455078-12.5317383,104.1225586-37.2475586
		c12.230835-11.2084351,21.7269287-23.895813,28.4726563-37.9702148h66.5141602l-8.3635864-10.78125h-5.3703003
		L446.3821106,254.9473572z M363.4079895,290.2564392c-25.6455078,23.4956055-59.0859375,35.4086914-99.3935547,35.4086914
		c-50.9345856,0-98.5019684-19.9941406-141.3808594-59.4277344
		c-42.6113281-39.1870117-69.4936523-88.8208008-79.9169922-147.5488281l1.1967773-1.6567383
		c22.8725586,34.5395508,56.4316406,54.2407227,99.8305588,58.5844727l2.8798828,0.2885742l0.8237305-2.7749023
		c9.5654297-32.2156372,23.461792-56.6052246,41.9161377-73.3875732c-3.1876221,11.265564-4.7979736,23.206604-4.7979736,35.7908936
		c0,34.8085938,12.1875,64.7519531,36.2226563,88.9975586c14.5722656,14.7021484,31.3779297,25.1064453,49.9487457,30.9228516
		c1.9267578,0.6040039,3.9091797,1.168457,5.8920898,1.6787109l1.2255859,0.3149414h110.9111938
		C382.5172424,269.5339661,374.0614929,280.4934998,363.4079895,290.2564392z M280.4162903,237.4473572
		c-1.2475586-0.3374023-2.4873047-0.6987305-3.7001953-1.0791016
		c-15.4301758-4.8330078-29.4677887-13.5527344-41.7236481-25.9169922
		c-20.4741211-20.6533203-30.4267578-45.1591797-30.4267578-74.9179688c0-29.6503906,9.9477539-54.0551758,30.4121094-74.6098633
		c20.4506836-20.5415039,44.7016754-30.5268536,74.1386871-30.5268536c29.5327148,0,53.8320313,9.9858379,74.2851563,30.5268536
		c20.4643555,20.5571327,30.4121094,44.9624062,30.4121094,74.6098633c0,21.2592773-5.7138672,40.8125-16.9833984,58.1171875
		l-3.8833008,5.9633789l29.3496094,37.8334961H280.4162903z"/>
	<path class="st3" d="M309.1164856,96.0899353c-3.3929443,0-6.6362915,0.4763794-9.6844482,1.4098511
		c-5.0803223,1.5557251-9.6185303,4.3811035-13.4039307,8.3865356v0.0004883
		c-1.0153198,1.0744629-1.9254761,2.2061157-2.770813,3.3721313c1.2994995-0.0962524,2.6136475-0.1572876,3.9529419-0.1572876
		c9.5396118,0,18.0756226,2.4916382,25.6179199,7.4484863c1.9191895,0.5299072,3.527832,1.5300903,4.9851074,3.0715332
		c0.6398315,0.6773071,1.1843872,1.3969727,1.647583,2.1613159c0.4589233,0.4283447,0.9173584,0.8579102,1.3675537,1.3079224
		c7.8438721,7.8458862,12.3766479,17.060791,13.6228027,27.6351929c4.6014404-5.9001465,6.9309082-13.0158081,6.9309082-21.1986694
		c0-9.3427734-3.0375977-17.2958984-9.0327148-23.6425781C326.2912903,99.4771423,318.2571106,96.0899353,309.1164856,96.0899353z"
		/>
	<path class="st2" d="M431.5119934,160.2520447v28.4995117c0,18.9130859,8.4960938,28.3691406,25.4882813,28.3691406
		c17.7402344,0,26.6113281-9.8305664,26.6113281-29.4921875v-41.6992188h-8.203125v43.0175781
		c0,13.8671875-5.84375,20.8007813-17.5292969,20.8007813c-12.109375,0-18.1640625-7.1777344-18.1640625-21.5332031v-42.2851563
		h-6.3120117h-1.8911133V160.2520447z"/>
	<path class="st2" d="M517.8400879,145.9292908l-26.8554382,70.0195313h9.1308594l6.9824219-19.6289063h29.6874695
		l7.421875,19.6289063h9.0820313l-26.953125-70.0195313H517.8400879z M509.8323059,188.9468689l10.8886414-29.8339844
		c0.4228516-1.1391602,0.796875-2.7016602,1.1230469-4.6875h0.1953125c0.3574219,2.1484375,0.7158203,3.7109375,1.0742188,4.6875
		l10.9863281,29.8339844H509.8323059z"/>
	<path class="st2" d="M611.8342285,195.245697c0,4.8505859,0.1621094,8.284668,0.4882813,10.3027344h-0.1953125
		c-0.4238281-0.8461914-1.3671875-2.4086914-2.8320313-4.6875l-35.0585938-54.9316406H563.592041v70.0195313h8.203125v-50.5859375
		c0-4.9150391-0.1308594-8.121582-0.390625-9.6191406h0.2929688c0.5859375,1.5302734,1.3339844,2.9951172,2.2460938,4.3945313
		l36.0351563,55.8105469h10.0585938v-70.0195313h-8.203125V195.245697z"/>
	<polygon class="st2" points="651.3850098,215.948822 659.5881348,215.948822 659.5881348,153.3511658 679.8029785,153.3511658 
		679.8029785,145.9292908 631.2189941,145.9292908 631.2189941,153.3511658 651.3850098,153.3511658 	"/>
	<polygon class="st2" points="727.8986816,208.526947 698.9924316,208.526947 698.9924316,184.0152283 724.2854004,184.0152283 
		724.2854004,176.6421814 698.9924316,176.6421814 698.9924316,153.3511658 726.3361816,153.3511658 726.3361816,145.9292908 
		690.7893066,145.9292908 690.7893066,215.948822 727.8986816,215.948822 	"/>
	<path class="st2" d="M780.0959473,215.948822h10.0097656l-22.3144531-35.3027344l22.0214844-34.7167969h-9.4238281
		l-14.8925781,24.4140625c-0.78125,1.2373047-1.6933594,2.9296875-2.734375,5.078125h-0.1953125
		c-0.7167969-1.6274414-1.546875-3.2548828-2.4902344-4.8828125l-14.3066406-24.609375h-10.0585938l21.5820313,34.8144531
		l-23.4375,35.2050781h10.0585938l16.6015625-26.8066406c0.78125-1.5625,1.3339844-2.7177734,1.6601563-3.4667969h0.1953125
		c0.5859375,1.4975586,1.1230469,2.6533203,1.6113281,3.4667969L780.0959473,215.948822z"/>
	<polygon class="st2" points="815.3498535,215.948822 823.5529785,215.948822 823.5529785,153.3511658 843.7678223,153.3511658 
		843.7678223,145.9292908 795.1838379,145.9292908 795.1838379,153.3511658 815.3498535,153.3511658 	"/>
	<path class="st2" d="M454.1555481,226.9395447l-4.8390503,12.7091675l-5.8250122,15.298645h2.890625l3.0078125-8.28125h5.3703003
		h6.6414185l3.0859375,8.28125h2.890625l-10.6054688-28.0078125H454.1555481z M452.9269104,244.3028259h-2.6580811
		l0.8483276-2.3329468l3.6829224-10.1279907c0.0908203-0.2470703,0.1855469-0.5336914,0.2832031-0.859375
		c0.0976563-0.3251953,0.1855469-0.6962891,0.2636719-1.1132813h0.078125
		c0.0649414,0.4169922,0.1464844,0.7880859,0.2441406,1.1132813c0.0976563,0.3256836,0.1918945,0.6123047,0.2832031,0.859375
		l4.5703125,12.4609375H452.9269104z"/>
	<path class="st2" d="M480.6594543,234.4786072c-2.9824219,0-5.2148438,1.3154297-6.6992188,3.9453125h-0.078125v-3.4765625h-2.5v20
		h2.5v-11.4453125c0-0.9765625,0.1523438-1.8847656,0.4589844-2.7246094
		c0.3056641-0.8398438,0.7285156-1.5654297,1.2695313-2.1777344c0.5400391-0.6118164,1.1816406-1.090332,1.9238281-1.4355469
		c0.7421875-0.3447266,1.5488281-0.5175781,2.421875-0.5175781c3.28125,0,4.921875,2.2592773,4.921875,6.7773438v11.5234375h2.5
		v-12.1875c0-2.6821289-0.5732422-4.7329102-1.71875-6.1523438
		C484.51297,235.1885681,482.8469543,234.4786072,480.6594543,234.4786072z"/>
	<path class="st2" d="M500.6594543,234.4786072c-0.5859375,0-1.1884766,0.0488281-1.8066406,0.1464844
		c-0.6191406,0.0976563-1.2207031,0.234375-1.8066406,0.4101563s-1.1425781,0.3842773-1.6699219,0.625
		c-0.5273438,0.2412109-1,0.5112305-1.4160156,0.8105469v2.734375c1.9921875-1.7055664,4.1533203-2.5585938,6.484375-2.5585938
		c2.9814453,0,4.4726563,1.9208984,4.4726563,5.7617188l-6.0742188,0.8789063
		c-2.265625,0.3256836-3.9589844,1.0253906-5.078125,2.0996094c-1.1201172,1.0742188-1.6796875,2.5166016-1.6796875,4.3261719
		c0,0.8466797,0.1464844,1.6210938,0.4394531,2.3242188s0.7089844,1.3056641,1.25,1.8066406
		c0.5400391,0.5009766,1.1972656,0.8886719,1.9726563,1.1621094c0.7744141,0.2734375,1.6435547,0.4101563,2.6074219,0.4101563
		c1.4189453,0,2.6914063-0.3515625,3.8183594-1.0546875c1.1259766-0.703125,2.0146484-1.6923828,2.6660156-2.96875h0.078125
		v3.5546875h2.5v-13.0078125c0-2.4736328-0.5703125-4.3359375-1.7089844-5.5859375
		C504.568634,235.1036072,502.8860168,234.4786072,500.6594543,234.4786072z M504.9172668,246.4903259
		c0,0.9765625-0.1533203,1.8818359-0.4589844,2.7148438c-0.3066406,0.8330078-0.7294922,1.5498047-1.2695313,2.1484375
		c-0.5410156,0.5986328-1.1816406,1.0673828-1.9238281,1.40625s-1.5566406,0.5078125-2.4414063,0.5078125
		c-0.6513672,0-1.234375-0.0908203-1.7480469-0.2734375c-0.5146484-0.1826172-0.9511719-0.4394531-1.3085938-0.7714844
		c-0.3583984-0.3320313-0.6318359-0.7255859-0.8203125-1.1816406c-0.1894531-0.4560547-0.2832031-0.9501953-0.2832031-1.484375
		c0-0.7158203,0.0976563-1.3183594,0.2929688-1.8066406s0.5009766-0.8984375,0.9179688-1.2304688
		c0.4160156-0.3320313,0.9433594-0.5957031,1.5820313-0.7910156c0.6376953-0.1953125,1.40625-0.3579102,2.3046875-0.4882813
		l5.15625-0.7226563V246.4903259z"/>
	<rect x="513.4328613" y="225.3379822" class="st2" width="2.5" height="29.609375"/>
	<path class="st2" d="M528.9406738,250.8653259c-0.1044922,0.2734375-0.1855469,0.5244141-0.2441406,0.7519531
		s-0.1210938,0.4521484-0.1855469,0.6738281h-0.0976563c-0.0654297-0.2607422-0.1337891-0.5244141-0.2050781-0.7910156
		c-0.0722656-0.2666016-0.1464844-0.5048828-0.2246094-0.7128906l-5.7226563-15.8398438h-2.7734375l7.6953125,19.9023438
		l-1.7382813,4.1015625c-0.4433594,1.0419922-0.9667969,1.8193359-1.5722656,2.3339844s-1.3183594,0.7714844-2.1386719,0.7714844
		c-0.2998047,0-0.5957031-0.0263672-0.8886719-0.078125s-0.5830078-0.1298828-0.8691406-0.234375v2.34375
		c0.4941406,0.1689453,1.0996094,0.2539063,1.8164063,0.2539063c1.4453125,0,2.6757813-0.4716797,3.6914063-1.4160156
		s1.9140625-2.3925781,2.6953125-4.3457031l9.4726563-23.6328125h-2.6367188L528.9406738,250.8653259z"/>
	<path class="st2" d="M551.0305176,246.3438416c-0.4560547-0.4492188-1.0351563-0.8657227-1.7382813-1.25
		c-0.703125-0.3837891-1.5371094-0.7714844-2.5-1.1621094c-0.7558594-0.3125-1.3964844-0.6054688-1.9238281-0.8789063
		s-0.9570313-0.5595703-1.2890625-0.859375c-0.3320313-0.2993164-0.5761719-0.6347656-0.7324219-1.0058594
		s-0.234375-0.8037109-0.234375-1.2988281c0-0.4814453,0.1005859-0.9208984,0.3027344-1.3183594
		c0.2011719-0.3969727,0.484375-0.7387695,0.8496094-1.0253906c0.3642578-0.2861328,0.8037109-0.5078125,1.3183594-0.6640625
		c0.5136719-0.15625,1.0839844-0.234375,1.7089844-0.234375c1.7314453,0,3.3457031,0.4819336,4.84375,1.4453125v-2.6367188
		c-1.2890625-0.6508789-2.7998047-0.9765625-4.53125-0.9765625c-0.9375,0-1.8330078,0.1269531-2.6855469,0.3808594
		c-0.8535156,0.2539063-1.6054688,0.6220703-2.2558594,1.1035156c-0.6513672,0.4819336-1.1689453,1.0678711-1.5527344,1.7578125
		c-0.3847656,0.6904297-0.5761719,1.4780273-0.5761719,2.3632813c0,0.703125,0.1035156,1.331543,0.3125,1.8847656
		c0.2080078,0.5537109,0.5273438,1.0615234,0.9570313,1.5234375c0.4296875,0.4624023,0.9765625,0.8886719,1.640625,1.2792969
		s1.4580078,0.7749023,2.3828125,1.1523438c0.6894531,0.2866211,1.3085938,0.5600586,1.8554688,0.8203125
		c0.546875,0.2607422,1.015625,0.5439453,1.40625,0.8496094s0.6894531,0.6445313,0.8984375,1.015625
		c0.2080078,0.3710938,0.3125,0.8105469,0.3125,1.3183594c0,2.2265625-1.484375,3.3398438-4.453125,3.3398438
		c-0.4296875,0-0.8828125-0.0419922-1.3574219-0.1269531c-0.4755859-0.0849609-0.9472656-0.2119141-1.4160156-0.3808594
		s-0.9248047-0.3710938-1.3671875-0.6054688c-0.4433594-0.234375-0.8535156-0.5009766-1.2304688-0.8007813v2.7929688
		c1.3798828,0.8466797,3.0791016,1.2695313,5.0976563,1.2695313c1.0410156,0,2.0048828-0.1240234,2.890625-0.3710938
		c0.8847656-0.2470703,1.65625-0.6123047,2.3144531-1.09375c0.6572266-0.4814453,1.171875-1.0742188,1.5429688-1.7773438
		s0.5566406-1.5039063,0.5566406-2.4023438c0-0.7294922-0.1113281-1.3701172-0.3320313-1.9238281
		C551.8244629,247.2940369,551.4855957,246.7930603,551.0305176,246.3438416z"/>
	<rect x="557.3586426" y="234.9473572" class="st2" width="2.5" height="20"/>
	<path class="st2" d="M559.8684082,226.8223572c-0.1630859-0.15625-0.3554688-0.2763672-0.5761719-0.3613281
		c-0.2216797-0.0844727-0.4560547-0.1269531-0.703125-0.1269531c-0.4824219,0-0.8984375,0.1660156-1.25,0.4980469
		s-0.5273438,0.7519531-0.5273438,1.2597656c0,0.5209961,0.1757813,0.9506836,0.5273438,1.2890625
		c0.3515625,0.3388672,0.7675781,0.5078125,1.25,0.5078125c0.2597656,0,0.4980469-0.0454102,0.7128906-0.1367188
		c0.2148438-0.0908203,0.40625-0.2177734,0.5761719-0.3808594c0.1689453-0.1625977,0.2988281-0.3544922,0.390625-0.5761719
		c0.0908203-0.2211914,0.1367188-0.4555664,0.1367188-0.703125c0-0.2602539-0.0488281-0.4980469-0.1464844-0.7128906
		S560.0305176,226.9786072,559.8684082,226.8223572z"/>
	<path class="st2" d="M575.5812988,234.4786072c-2.9824219,0-5.2148438,1.3154297-6.6992188,3.9453125h-0.078125v-3.4765625h-2.5v20
		h2.5v-11.4453125c0-0.9765625,0.1523438-1.8847656,0.4589844-2.7246094
		c0.3056641-0.8398438,0.7285156-1.5654297,1.2695313-2.1777344c0.5400391-0.6118164,1.1816406-1.090332,1.9238281-1.4355469
		c0.7421875-0.3447266,1.5488281-0.5175781,2.421875-0.5175781c3.28125,0,4.921875,2.2592773,4.921875,6.7773438v11.5234375h2.5
		v-12.1875c0-2.6821289-0.5732422-4.7329102-1.71875-6.1523438
		C579.4348145,235.1885681,577.7687988,234.4786072,575.5812988,234.4786072z"/>
	<path class="st2" d="M602.3391113,237.9161072h-0.078125c-1.3027344-2.2915039-3.3662109-3.4375-6.1914063-3.4375
		c-1.40625,0-2.6728516,0.2636719-3.7988281,0.7910156c-1.1269531,0.5273438-2.0869141,1.2729492-2.8808594,2.2363281
		c-0.7949219,0.9638672-1.40625,2.1191406-1.8359375,3.4667969s-0.6445313,2.8417969-0.6445313,4.4824219
		c0,1.5498047,0.2011719,2.9394531,0.6054688,4.1699219c0.4033203,1.2304688,0.9697266,2.2753906,1.6992188,3.1347656
		c0.7285156,0.859375,1.6044922,1.5166016,2.6269531,1.9726563c1.0214844,0.4560547,2.1513672,0.6835938,3.3886719,0.6835938
		c3.1503906,0,5.4941406-1.3154297,7.03125-3.9453125h0.078125v2.4023438c0,5.5205078-2.6113281,8.28125-7.8320313,8.28125
		c-1.9667969,0-4.0371094-0.6054688-6.2109375-1.8164063v2.5390625c1.953125,0.9765625,4.0234375,1.4648438,6.2109375,1.4648438
		c3.515625,0,6.1162109-0.8955078,7.8027344-2.6855469c1.6855469-1.7900391,2.5292969-4.5410156,2.5292969-8.2519531v-18.4570313
		h-2.5V237.9161072z M602.3391113,246.2559509c0,0.9892578-0.15625,1.9111328-0.46875,2.7636719
		s-0.7558594,1.5947266-1.328125,2.2265625c-0.5732422,0.6318359-1.2636719,1.1259766-2.0703125,1.484375
		c-0.8076172,0.3583984-1.7060547,0.5371094-2.6953125,0.5371094c-0.9511719,0-1.8134766-0.1884766-2.5878906-0.5664063
		c-0.7753906-0.3779297-1.4355469-0.9111328-1.9824219-1.6015625s-0.9707031-1.5302734-1.2695313-2.5195313
		c-0.2998047-0.9892578-0.4492188-2.0961914-0.4492188-3.3203125c0-1.328125,0.1591797-2.5224609,0.4785156-3.5839844
		c0.3183594-1.0610352,0.7744141-1.9628906,1.3671875-2.7050781c0.5917969-0.7421875,1.3085938-1.3149414,2.1484375-1.71875
		c0.8398438-0.4033203,1.7802734-0.6054688,2.8222656-0.6054688c0.8847656,0,1.6953125,0.1660156,2.4316406,0.4980469
		c0.7353516,0.3320313,1.3701172,0.7783203,1.9042969,1.3378906c0.5332031,0.5600586,0.9501953,1.2109375,1.25,1.953125
		c0.2988281,0.7421875,0.4492188,1.5302734,0.4492188,2.3632813V246.2559509z"/>
	<path class="st2" d="M632.1633301,246.3438416c-0.4560547-0.4492188-1.0351563-0.8657227-1.7382813-1.25
		c-0.703125-0.3837891-1.5371094-0.7714844-2.5-1.1621094c-0.7558594-0.3125-1.3964844-0.6054688-1.9238281-0.8789063
		s-0.9570313-0.5595703-1.2890625-0.859375c-0.3320313-0.2993164-0.5761719-0.6347656-0.7324219-1.0058594
		s-0.234375-0.8037109-0.234375-1.2988281c0-0.4814453,0.1005859-0.9208984,0.3027344-1.3183594
		c0.2011719-0.3969727,0.484375-0.7387695,0.8496094-1.0253906c0.3642578-0.2861328,0.8037109-0.5078125,1.3183594-0.6640625
		c0.5136719-0.15625,1.0839844-0.234375,1.7089844-0.234375c1.7314453,0,3.3457031,0.4819336,4.84375,1.4453125v-2.6367188
		c-1.2890625-0.6508789-2.7998047-0.9765625-4.53125-0.9765625c-0.9375,0-1.8330078,0.1269531-2.6855469,0.3808594
		c-0.8535156,0.2539063-1.6054688,0.6220703-2.2558594,1.1035156c-0.6513672,0.4819336-1.1689453,1.0678711-1.5527344,1.7578125
		c-0.3847656,0.6904297-0.5761719,1.4780273-0.5761719,2.3632813c0,0.703125,0.1035156,1.331543,0.3125,1.8847656
		c0.2080078,0.5537109,0.5273438,1.0615234,0.9570313,1.5234375c0.4296875,0.4624023,0.9765625,0.8886719,1.640625,1.2792969
		s1.4580078,0.7749023,2.3828125,1.1523438c0.6894531,0.2866211,1.3085938,0.5600586,1.8554688,0.8203125
		c0.546875,0.2607422,1.015625,0.5439453,1.40625,0.8496094s0.6894531,0.6445313,0.8984375,1.015625
		c0.2080078,0.3710938,0.3125,0.8105469,0.3125,1.3183594c0,2.2265625-1.484375,3.3398438-4.453125,3.3398438
		c-0.4296875,0-0.8828125-0.0419922-1.3574219-0.1269531c-0.4755859-0.0849609-0.9472656-0.2119141-1.4160156-0.3808594
		s-0.9248047-0.3710938-1.3671875-0.6054688c-0.4433594-0.234375-0.8535156-0.5009766-1.2304688-0.8007813v2.7929688
		c1.3798828,0.8466797,3.0791016,1.2695313,5.0976563,1.2695313c1.0410156,0,2.0048828-0.1240234,2.890625-0.3710938
		c0.8847656-0.2470703,1.65625-0.6123047,2.3144531-1.09375c0.6572266-0.4814453,1.171875-1.0742188,1.5429688-1.7773438
		s0.5566406-1.5039063,0.5566406-2.4023438c0-0.7294922-0.1113281-1.3701172-0.3320313-1.9238281
		C632.9572754,247.2940369,632.6184082,246.7930603,632.1633301,246.3438416z"/>
	<path class="st2" d="M641.9289551,229.0879822l-2.5,0.8203125v5.0390625h-3.515625v2.1875h3.515625v12.6367188
		c0,3.7236328,1.6142578,5.5859375,4.84375,5.5859375c1.015625,0,1.953125-0.2148438,2.8125-0.6445313v-2.2070313
		c-0.7167969,0.46875-1.4648438,0.703125-2.2460938,0.703125c-1.0546875,0-1.8037109-0.2998047-2.2460938-0.8984375
		c-0.4433594-0.5986328-0.6640625-1.5751953-0.6640625-2.9296875v-12.2460938h5.15625v-2.1875h-5.15625V229.0879822z"/>
	<path class="st2" d="M664.2922363,246.3731384c0,1.0283203-0.1435547,1.9658203-0.4296875,2.8125
		c-0.2871094,0.8466797-0.6875,1.5722656-1.2011719,2.1777344c-0.5146484,0.6054688-1.1269531,1.0742188-1.8359375,1.40625
		c-0.7099609,0.3320313-1.4941406,0.4980469-2.3535156,0.4980469c-1.7578125,0-3.0634766-0.5732422-3.9160156-1.71875
		c-0.8535156-1.1455078-1.2792969-2.9169922-1.2792969-5.3125v-11.2890625h-2.5v11.7578125
		c0,5.8076172,2.3759766,8.7109375,7.1289063,8.7109375c2.8515625,0,4.9541016-1.2890625,6.3085938-3.8671875h0.078125v3.3984375
		h2.5v-20h-2.5V246.3731384z"/>
	<path class="st2" d="M687.2609863,237.9356384h-0.078125c-1.25-2.3046875-3.3144531-3.4570313-6.1914063-3.4570313
		c-1.3808594,0-2.6337891,0.2636719-3.7597656,0.7910156c-1.1269531,0.5273438-2.0898438,1.2695313-2.890625,2.2265625
		s-1.4199219,2.1030273-1.8554688,3.4375c-0.4365234,1.3349609-0.6542969,2.8095703-0.6542969,4.4238281
		c0,1.5625,0.1982422,2.9619141,0.5957031,4.1992188c0.3964844,1.2373047,0.9599609,2.2919922,1.6894531,3.1640625
		c0.7285156,0.8720703,1.6044922,1.5400391,2.6269531,2.0019531c1.0214844,0.4619141,2.1582031,0.6933594,3.4082031,0.6933594
		c1.5625,0,2.9589844-0.3486328,4.1894531-1.0449219s2.1777344-1.6767578,2.8417969-2.9394531h0.078125v3.515625h2.5v-29.609375
		h-2.5V237.9356384z M687.2609863,246.2168884c0,0.9765625-0.1533203,1.8945313-0.4589844,2.7539063
		c-0.3066406,0.859375-0.7421875,1.6083984-1.3085938,2.2460938s-1.2568359,1.1396484-2.0703125,1.5039063
		c-0.8144531,0.3642578-1.7285156,0.546875-2.7441406,0.546875c-0.9375,0-1.7910156-0.1826172-2.5585938-0.546875
		c-0.7685547-0.3642578-1.4296875-0.8916016-1.9824219-1.5820313c-0.5537109-0.6904297-0.9804688-1.5361328-1.2792969-2.5390625
		c-0.2998047-1.0029297-0.4492188-2.1352539-0.4492188-3.3984375c0-1.3408203,0.1660156-2.5390625,0.4980469-3.59375
		s0.7939453-1.949707,1.3867188-2.6855469c0.5917969-0.7353516,1.3046875-1.2988281,2.1386719-1.6894531
		c0.8330078-0.390625,1.7441406-0.5859375,2.734375-0.5859375c0.8984375,0,1.7216797,0.1630859,2.4707031,0.4882813
		c0.7480469,0.3256836,1.3896484,0.7685547,1.9238281,1.328125c0.5332031,0.5600586,0.9501953,1.2177734,1.25,1.9726563
		c0.2988281,0.7553711,0.4492188,1.5693359,0.4492188,2.4414063V246.2168884z"/>
	<path class="st2" d="M709.7902832,237.0762634c-0.6708984-0.8330078-1.5009766-1.4746094-2.4902344-1.9238281
		c-0.9902344-0.4492188-2.1289063-0.6738281-3.4179688-0.6738281c-1.3154297,0-2.5263672,0.2636719-3.6328125,0.7910156
		c-1.1074219,0.5273438-2.0644531,1.2568359-2.8710938,2.1875c-0.8076172,0.9311523-1.4394531,2.034668-1.8945313,3.3105469
		c-0.4560547,1.2763672-0.6835938,2.6630859-0.6835938,4.1601563c0,1.6669922,0.2080078,3.1513672,0.625,4.453125
		c0.4160156,1.3017578,1.0087891,2.3994141,1.7773438,3.2910156c0.7675781,0.8916016,1.6992188,1.5722656,2.7929688,2.0410156
		s2.3105469,0.703125,3.6523438,0.703125c2.7207031,0,5.0390625-0.6835938,6.953125-2.0507813v-2.4609375
		c-2.0058594,1.5751953-4.1347656,2.3632813-6.3867188,2.3632813c-1.0546875,0-2.0019531-0.1787109-2.8417969-0.5371094
		s-1.5527344-0.8759766-2.1386719-1.5527344s-1.0351563-1.5039063-1.3476563-2.4804688s-0.4755859-2.0766602-0.4882813-3.3007813
		h14.453125v-1.25c0-1.484375-0.1757813-2.8251953-0.5273438-4.0234375
		C710.9719238,238.9253845,710.4602051,237.9097595,709.7902832,237.0762634z M697.4562988,243.2090759
		c0.1425781-1.015625,0.3935547-1.9301758,0.7519531-2.7441406c0.3574219-0.8134766,0.8105469-1.5039063,1.3574219-2.0703125
		s1.1816406-0.9990234,1.9042969-1.2988281c0.7226563-0.2993164,1.5068359-0.4492188,2.3535156-0.4492188
		c1.6923828,0,3.0136719,0.5732422,3.9648438,1.71875c0.9501953,1.1459961,1.4453125,2.7607422,1.484375,4.84375H697.4562988z"/>
	<path class="st2" d="M726.0305176,234.4786072c-2.9824219,0-5.2148438,1.3154297-6.6992188,3.9453125h-0.078125v-3.4765625h-2.5v20
		h2.5v-11.4453125c0-0.9765625,0.1523438-1.8847656,0.4589844-2.7246094
		c0.3056641-0.8398438,0.7285156-1.5654297,1.2695313-2.1777344c0.5400391-0.6118164,1.1816406-1.090332,1.9238281-1.4355469
		c0.7421875-0.3447266,1.5488281-0.5175781,2.421875-0.5175781c3.28125,0,4.921875,2.2592773,4.921875,6.7773438v11.5234375h2.5
		v-12.1875c0-2.6821289-0.5732422-4.7329102-1.71875-6.1523438
		C729.8840332,235.1885681,728.2180176,234.4786072,726.0305176,234.4786072z"/>
	<path class="st2" d="M742.2023926,229.0879822l-2.5,0.8203125v5.0390625h-3.515625v2.1875h3.515625v12.6367188
		c0,3.7236328,1.6142578,5.5859375,4.84375,5.5859375c1.015625,0,1.953125-0.2148438,2.8125-0.6445313v-2.2070313
		c-0.7167969,0.46875-1.4648438,0.703125-2.2460938,0.703125c-1.0546875,0-1.8037109-0.2998047-2.2460938-0.8984375
		c-0.4433594-0.5986328-0.6640625-1.5751953-0.6640625-2.9296875v-12.2460938h5.15625v-2.1875h-5.15625V229.0879822z"/>
	<path class="st2" d="M770.4055176,234.5762634c-0.6123047,0-1.1953125,0.1044922-1.7480469,0.3125
		c-0.5537109,0.2084961-1.0644531,0.5112305-1.5332031,0.9082031c-0.46875,0.3974609-0.8828125,0.8857422-1.2402344,1.4648438
		c-0.3583984,0.5795898-0.6542969,1.2338867-0.8886719,1.9628906h-0.078125v-4.2773438h-2.4804688v20h2.4804688v-9.7851563
		c0-0.5595703,0.0351563-1.1523438,0.1074219-1.7773438c0.0712891-0.625,0.1884766-1.2431641,0.3515625-1.8554688
		c0.1621094-0.6118164,0.3769531-1.2011719,0.6445313-1.7675781c0.2666016-0.5664063,0.5917969-1.0644531,0.9765625-1.4941406
		c0.3837891-0.4296875,0.8300781-0.7714844,1.3378906-1.0253906s1.09375-0.3808594,1.7578125-0.3808594
		c0.9238281,0,1.6796875,0.2148438,2.265625,0.6445313v-2.6171875c-0.2607422-0.1040039-0.5507813-0.1821289-0.8691406-0.234375
		C771.170166,234.6026306,770.8088379,234.5762634,770.4055176,234.5762634z"/>
	<path class="st2" d="M789.0480957,237.0762634c-0.6708984-0.8330078-1.5009766-1.4746094-2.4902344-1.9238281
		c-0.9902344-0.4492188-2.1289063-0.6738281-3.4179688-0.6738281c-1.3154297,0-2.5263672,0.2636719-3.6328125,0.7910156
		c-1.1074219,0.5273438-2.0644531,1.2568359-2.8710938,2.1875c-0.8076172,0.9311523-1.4394531,2.034668-1.8945313,3.3105469
		c-0.4560547,1.2763672-0.6835938,2.6630859-0.6835938,4.1601563c0,1.6669922,0.2080078,3.1513672,0.625,4.453125
		c0.4160156,1.3017578,1.0087891,2.3994141,1.7773438,3.2910156c0.7675781,0.8916016,1.6992188,1.5722656,2.7929688,2.0410156
		s2.3105469,0.703125,3.6523438,0.703125c2.7207031,0,5.0390625-0.6835938,6.953125-2.0507813v-2.4609375
		c-2.0058594,1.5751953-4.1347656,2.3632813-6.3867188,2.3632813c-1.0546875,0-2.0019531-0.1787109-2.8417969-0.5371094
		s-1.5527344-0.8759766-2.1386719-1.5527344s-1.0351563-1.5039063-1.3476563-2.4804688s-0.4755859-2.0766602-0.4882813-3.3007813
		h14.453125v-1.25c0-1.484375-0.1757813-2.8251953-0.5273438-4.0234375
		C790.2297363,238.9253845,789.7180176,237.9097595,789.0480957,237.0762634z M776.7141113,243.2090759
		c0.1425781-1.015625,0.3935547-1.9301758,0.7519531-2.7441406c0.3574219-0.8134766,0.8105469-1.5039063,1.3574219-2.0703125
		s1.1816406-0.9990234,1.9042969-1.2988281c0.7226563-0.2993164,1.5068359-0.4492188,2.3535156-0.4492188
		c1.6923828,0,3.0136719,0.5732422,3.9648438,1.71875c0.9501953,1.1459961,1.4453125,2.7607422,1.484375,4.84375H776.7141113z"/>
	<path class="st2" d="M805.9328613,246.3438416c-0.4560547-0.4492188-1.0351563-0.8657227-1.7382813-1.25
		c-0.703125-0.3837891-1.5371094-0.7714844-2.5-1.1621094c-0.7558594-0.3125-1.3964844-0.6054688-1.9238281-0.8789063
		s-0.9570313-0.5595703-1.2890625-0.859375c-0.3320313-0.2993164-0.5761719-0.6347656-0.7324219-1.0058594
		s-0.234375-0.8037109-0.234375-1.2988281c0-0.4814453,0.1005859-0.9208984,0.3027344-1.3183594
		c0.2011719-0.3969727,0.484375-0.7387695,0.8496094-1.0253906c0.3642578-0.2861328,0.8037109-0.5078125,1.3183594-0.6640625
		c0.5136719-0.15625,1.0839844-0.234375,1.7089844-0.234375c1.7314453,0,3.3457031,0.4819336,4.84375,1.4453125v-2.6367188
		c-1.2890625-0.6508789-2.7998047-0.9765625-4.53125-0.9765625c-0.9375,0-1.8330078,0.1269531-2.6855469,0.3808594
		c-0.8535156,0.2539063-1.6054688,0.6220703-2.2558594,1.1035156c-0.6513672,0.4819336-1.1689453,1.0678711-1.5527344,1.7578125
		c-0.3847656,0.6904297-0.5761719,1.4780273-0.5761719,2.3632813c0,0.703125,0.1035156,1.331543,0.3125,1.8847656
		c0.2080078,0.5537109,0.5273438,1.0615234,0.9570313,1.5234375c0.4296875,0.4624023,0.9765625,0.8886719,1.640625,1.2792969
		s1.4580078,0.7749023,2.3828125,1.1523438c0.6894531,0.2866211,1.3085938,0.5600586,1.8554688,0.8203125
		c0.546875,0.2607422,1.015625,0.5439453,1.40625,0.8496094s0.6894531,0.6445313,0.8984375,1.015625
		c0.2080078,0.3710938,0.3125,0.8105469,0.3125,1.3183594c0,2.2265625-1.484375,3.3398438-4.453125,3.3398438
		c-0.4296875,0-0.8828125-0.0419922-1.3574219-0.1269531c-0.4755859-0.0849609-0.9472656-0.2119141-1.4160156-0.3808594
		s-0.9248047-0.3710938-1.3671875-0.6054688c-0.4433594-0.234375-0.8535156-0.5009766-1.2304688-0.8007813v2.7929688
		c1.3798828,0.8466797,3.0791016,1.2695313,5.0976563,1.2695313c1.0410156,0,2.0048828-0.1240234,2.890625-0.3710938
		c0.8847656-0.2470703,1.65625-0.6123047,2.3144531-1.09375c0.6572266-0.4814453,1.171875-1.0742188,1.5429688-1.7773438
		s0.5566406-1.5039063,0.5566406-2.4023438c0-0.7294922-0.1113281-1.3701172-0.3320313-1.9238281
		C806.7268066,247.2940369,806.3879395,246.7930603,805.9328613,246.3438416z"/>
	<path class="st2" d="M828.0129395,237.1348572c-0.6972656-0.8461914-1.5498047-1.5004883-2.5585938-1.9628906
		c-1.0097656-0.4619141-2.1523438-0.6933594-3.4277344-0.6933594c-1.5625,0-2.9658203,0.3681641-4.2089844,1.1035156
		c-1.2441406,0.7358398-2.2363281,1.800293-2.9785156,3.1933594h-0.078125v-3.828125h-2.5v29.1992188h2.5v-12.421875h0.078125
		c1.3925781,2.4609375,3.4960938,3.6914063,6.3085938,3.6914063c1.3925781,0,2.6464844-0.2705078,3.7597656-0.8105469
		s2.0605469-1.2988281,2.8417969-2.2753906s1.3798828-2.1455078,1.796875-3.5058594
		c0.4160156-1.3603516,0.625-2.8676758,0.625-4.5214844c0-1.5102539-0.1855469-2.8710938-0.5566406-4.0820313
		S828.7092285,237.9815369,828.0129395,237.1348572z M827.1340332,247.9942322
		c-0.3066406,1.1064453-0.7421875,2.0507813-1.3085938,2.8320313s-1.2539063,1.3837891-2.0605469,1.8066406
		c-0.8076172,0.4228516-1.7128906,0.6347656-2.7148438,0.6347656c-0.9375,0-1.7939453-0.1757813-2.5683594-0.5273438
		c-0.7753906-0.3515625-1.4355469-0.8300781-1.9824219-1.4355469s-0.9736328-1.3085938-1.2792969-2.109375
		c-0.3066406-0.8007813-0.4589844-1.6572266-0.4589844-2.5683594v-2.65625c0-1.0024414,0.15625-1.949707,0.46875-2.8417969
		c0.3125-0.8916016,0.7617188-1.6699219,1.3476563-2.3339844s1.2949219-1.1879883,2.1289063-1.5722656
		c0.8330078-0.3837891,1.7705078-0.5761719,2.8125-0.5761719c0.9238281,0,1.7607422,0.1757813,2.5097656,0.5273438
		c0.7480469,0.3515625,1.3867188,0.859375,1.9140625,1.5234375s0.9335938,1.4682617,1.2207031,2.4121094
		c0.2861328,0.9443359,0.4296875,2.0019531,0.4296875,3.1738281
		C827.5930176,245.6504822,827.4396973,246.8877869,827.1340332,247.9942322z"/>
	<path class="st2" d="M850.6008301,237.2520447c-0.8076172-0.8984375-1.7910156-1.5849609-2.9492188-2.0605469
		c-1.1591797-0.4750977-2.4609375-0.7128906-3.90625-0.7128906c-1.5107422,0-2.8779297,0.2412109-4.1015625,0.7226563
		c-1.2246094,0.4819336-2.2695313,1.1816406-3.1347656,2.0996094c-0.8662109,0.9179688-1.5332031,2.034668-2.0019531,3.3496094
		c-0.46875,1.3154297-0.703125,2.8061523-0.703125,4.4726563c0,1.5366211,0.2207031,2.9365234,0.6640625,4.1992188
		c0.4423828,1.2626953,1.0800781,2.3466797,1.9140625,3.2519531c0.8330078,0.9052734,1.8388672,1.6044922,3.0175781,2.0996094
		c1.1777344,0.4951172,2.5097656,0.7421875,3.9941406,0.7421875c1.5097656,0,2.8642578-0.2539063,4.0625-0.7617188
		c1.1972656-0.5078125,2.2128906-1.2236328,3.046875-2.1484375c0.8330078-0.9248047,1.4746094-2.0283203,1.9238281-3.3105469
		s0.6738281-2.7050781,0.6738281-4.2675781c0-1.640625-0.2148438-3.1054688-0.6445313-4.3945313
		S851.4074707,238.1504822,850.6008301,237.2520447z M850.0637207,248.4825134
		c-0.3066406,1.0283203-0.7587891,1.8974609-1.3574219,2.6074219c-0.5996094,0.7099609-1.328125,1.25-2.1875,1.6210938
		s-1.8496094,0.5566406-2.96875,0.5566406c-1.09375,0-2.0839844-0.1923828-2.96875-0.5761719
		c-0.8857422-0.3837891-1.6376953-0.9345703-2.2558594-1.6503906c-0.6191406-0.7158203-1.0976563-1.5751953-1.4355469-2.578125
		c-0.3388672-1.0029297-0.5078125-2.1289063-0.5078125-3.3789063c0-1.328125,0.1689453-2.5161133,0.5078125-3.5644531
		c0.3378906-1.0478516,0.8232422-1.9335938,1.4550781-2.65625c0.6308594-0.7226563,1.3896484-1.2724609,2.2753906-1.6503906
		c0.8847656-0.3774414,1.875-0.5664063,2.96875-0.5664063c2.2265625,0,3.9384766,0.7128906,5.1367188,2.1386719
		c1.1972656,1.4257813,1.796875,3.4863281,1.796875,6.1816406
		C850.5227051,246.2823181,850.3693848,247.4541931,850.0637207,248.4825134z"/>
	<path class="st2" d="M867.4172363,234.4786072c-2.9824219,0-5.2148438,1.3154297-6.6992188,3.9453125h-0.078125v-3.4765625h-2.5v20
		h2.5v-11.4453125c0-0.9765625,0.1523438-1.8847656,0.4589844-2.7246094
		c0.3056641-0.8398438,0.7285156-1.5654297,1.2695313-2.1777344c0.5400391-0.6118164,1.1816406-1.090332,1.9238281-1.4355469
		c0.7421875-0.3447266,1.5488281-0.5175781,2.421875-0.5175781c3.28125,0,4.921875,2.2592773,4.921875,6.7773438v11.5234375h2.5
		v-12.1875c0-2.6821289-0.5732422-4.7329102-1.71875-6.1523438
		C871.270752,235.1885681,869.6047363,234.4786072,867.4172363,234.4786072z"/>
	<path class="st2" d="M890.0734863,246.3438416c-0.4560547-0.4492188-1.0351563-0.8657227-1.7382813-1.25
		c-0.703125-0.3837891-1.5371094-0.7714844-2.5-1.1621094c-0.7558594-0.3125-1.3964844-0.6054688-1.9238281-0.8789063
		s-0.9570313-0.5595703-1.2890625-0.859375c-0.3320313-0.2993164-0.5761719-0.6347656-0.7324219-1.0058594
		s-0.234375-0.8037109-0.234375-1.2988281c0-0.4814453,0.1005859-0.9208984,0.3027344-1.3183594
		c0.2011719-0.3969727,0.484375-0.7387695,0.8496094-1.0253906c0.3642578-0.2861328,0.8037109-0.5078125,1.3183594-0.6640625
		c0.5136719-0.15625,1.0839844-0.234375,1.7089844-0.234375c1.7314453,0,3.3457031,0.4819336,4.84375,1.4453125v-2.6367188
		c-1.2890625-0.6508789-2.7998047-0.9765625-4.53125-0.9765625c-0.9375,0-1.8330078,0.1269531-2.6855469,0.3808594
		c-0.8535156,0.2539063-1.6054688,0.6220703-2.2558594,1.1035156c-0.6513672,0.4819336-1.1689453,1.0678711-1.5527344,1.7578125
		c-0.3847656,0.6904297-0.5761719,1.4780273-0.5761719,2.3632813c0,0.703125,0.1035156,1.331543,0.3125,1.8847656
		c0.2080078,0.5537109,0.5273438,1.0615234,0.9570313,1.5234375c0.4296875,0.4624023,0.9765625,0.8886719,1.640625,1.2792969
		s1.4580078,0.7749023,2.3828125,1.1523438c0.6894531,0.2866211,1.3085938,0.5600586,1.8554688,0.8203125
		c0.546875,0.2607422,1.015625,0.5439453,1.40625,0.8496094s0.6894531,0.6445313,0.8984375,1.015625
		c0.2080078,0.3710938,0.3125,0.8105469,0.3125,1.3183594c0,2.2265625-1.484375,3.3398438-4.453125,3.3398438
		c-0.4296875,0-0.8828125-0.0419922-1.3574219-0.1269531c-0.4755859-0.0849609-0.9472656-0.2119141-1.4160156-0.3808594
		s-0.9248047-0.3710938-1.3671875-0.6054688c-0.4433594-0.234375-0.8535156-0.5009766-1.2304688-0.8007813v2.7929688
		c1.3798828,0.8466797,3.0791016,1.2695313,5.0976563,1.2695313c1.0410156,0,2.0048828-0.1240234,2.890625-0.3710938
		c0.8847656-0.2470703,1.65625-0.6123047,2.3144531-1.09375c0.6572266-0.4814453,1.171875-1.0742188,1.5429688-1.7773438
		s0.5566406-1.5039063,0.5566406-2.4023438c0-0.7294922-0.1113281-1.3701172-0.3320313-1.9238281
		C890.8674316,247.2940369,890.5285645,246.7930603,890.0734863,246.3438416z"/>
	<path class="st2" d="M909.9855957,237.0762634c-0.6708984-0.8330078-1.5009766-1.4746094-2.4902344-1.9238281
		c-0.9902344-0.4492188-2.1289063-0.6738281-3.4179688-0.6738281c-1.3154297,0-2.5263672,0.2636719-3.6328125,0.7910156
		c-1.1074219,0.5273438-2.0644531,1.2568359-2.8710938,2.1875c-0.8076172,0.9311523-1.4394531,2.034668-1.8945313,3.3105469
		c-0.4560547,1.2763672-0.6835938,2.6630859-0.6835938,4.1601563c0,1.6669922,0.2080078,3.1513672,0.625,4.453125
		c0.4160156,1.3017578,1.0087891,2.3994141,1.7773438,3.2910156c0.7675781,0.8916016,1.6992188,1.5722656,2.7929688,2.0410156
		s2.3105469,0.703125,3.6523438,0.703125c2.7207031,0,5.0390625-0.6835938,6.953125-2.0507813v-2.4609375
		c-2.0058594,1.5751953-4.1347656,2.3632813-6.3867188,2.3632813c-1.0546875,0-2.0019531-0.1787109-2.8417969-0.5371094
		s-1.5527344-0.8759766-2.1386719-1.5527344s-1.0351563-1.5039063-1.3476563-2.4804688s-0.4755859-2.0766602-0.4882813-3.3007813
		h14.453125v-1.25c0-1.484375-0.1757813-2.8251953-0.5273438-4.0234375
		C911.1672363,238.9253845,910.6555176,237.9097595,909.9855957,237.0762634z M897.6516113,243.2090759
		c0.1425781-1.015625,0.3935547-1.9301758,0.7519531-2.7441406c0.3574219-0.8134766,0.8105469-1.5039063,1.3574219-2.0703125
		s1.1816406-0.9990234,1.9042969-1.2988281c0.7226563-0.2993164,1.5068359-0.4492188,2.3535156-0.4492188
		c1.6923828,0,3.0136719,0.5732422,3.9648438,1.71875c0.9501953,1.1459961,1.4453125,2.7607422,1.484375,4.84375H897.6516113z"/>
	<path class="st2" d="M926.8703613,246.3438416c-0.4560547-0.4492188-1.0351563-0.8657227-1.7382813-1.25
		c-0.703125-0.3837891-1.5371094-0.7714844-2.5-1.1621094c-0.7558594-0.3125-1.3964844-0.6054688-1.9238281-0.8789063
		s-0.9570313-0.5595703-1.2890625-0.859375c-0.3320313-0.2993164-0.5761719-0.6347656-0.7324219-1.0058594
		s-0.234375-0.8037109-0.234375-1.2988281c0-0.4814453,0.1005859-0.9208984,0.3027344-1.3183594
		c0.2011719-0.3969727,0.484375-0.7387695,0.8496094-1.0253906c0.3642578-0.2861328,0.8037109-0.5078125,1.3183594-0.6640625
		c0.5136719-0.15625,1.0839844-0.234375,1.7089844-0.234375c1.7314453,0,3.3457031,0.4819336,4.84375,1.4453125v-2.6367188
		c-1.2890625-0.6508789-2.7998047-0.9765625-4.53125-0.9765625c-0.9375,0-1.8330078,0.1269531-2.6855469,0.3808594
		c-0.8535156,0.2539063-1.6054688,0.6220703-2.2558594,1.1035156c-0.6513672,0.4819336-1.1689453,1.0678711-1.5527344,1.7578125
		c-0.3847656,0.6904297-0.5761719,1.4780273-0.5761719,2.3632813c0,0.703125,0.1035156,1.331543,0.3125,1.8847656
		c0.2080078,0.5537109,0.5273438,1.0615234,0.9570313,1.5234375c0.4296875,0.4624023,0.9765625,0.8886719,1.640625,1.2792969
		s1.4580078,0.7749023,2.3828125,1.1523438c0.6894531,0.2866211,1.3085938,0.5600586,1.8554688,0.8203125
		c0.546875,0.2607422,1.015625,0.5439453,1.40625,0.8496094s0.6894531,0.6445313,0.8984375,1.015625
		c0.2080078,0.3710938,0.3125,0.8105469,0.3125,1.3183594c0,2.2265625-1.484375,3.3398438-4.453125,3.3398438
		c-0.4296875,0-0.8828125-0.0419922-1.3574219-0.1269531c-0.4755859-0.0849609-0.9472656-0.2119141-1.4160156-0.3808594
		s-0.9248047-0.3710938-1.3671875-0.6054688c-0.4433594-0.234375-0.8535156-0.5009766-1.2304688-0.8007813v2.7929688
		c1.3798828,0.8466797,3.0791016,1.2695313,5.0976563,1.2695313c1.0410156,0,2.0048828-0.1240234,2.890625-0.3710938
		c0.8847656-0.2470703,1.65625-0.6123047,2.3144531-1.09375c0.6572266-0.4814453,1.171875-1.0742188,1.5429688-1.7773438
		s0.5566406-1.5039063,0.5566406-2.4023438c0-0.7294922-0.1113281-1.3701172-0.3320313-1.9238281
		C927.6643066,247.2940369,927.3254395,246.7930603,926.8703613,246.3438416z"/>
	<path class="st2" d="M946.6652832,226.8223572c-0.1630859-0.15625-0.3554688-0.2763672-0.5761719-0.3613281
		c-0.2216797-0.0844727-0.4560547-0.1269531-0.703125-0.1269531c-0.4824219,0-0.8984375,0.1660156-1.25,0.4980469
		s-0.5273438,0.7519531-0.5273438,1.2597656c0,0.5209961,0.1757813,0.9506836,0.5273438,1.2890625
		c0.3515625,0.3388672,0.7675781,0.5078125,1.25,0.5078125c0.2597656,0,0.4980469-0.0454102,0.7128906-0.1367188
		c0.2148438-0.0908203,0.40625-0.2177734,0.5761719-0.3808594c0.1689453-0.1625977,0.2988281-0.3544922,0.390625-0.5761719
		c0.0908203-0.2211914,0.1367188-0.4555664,0.1367188-0.703125c0-0.2602539-0.0488281-0.4980469-0.1464844-0.7128906
		S946.8273926,226.9786072,946.6652832,226.8223572z"/>
	<rect x="944.1555176" y="234.9473572" class="st2" width="2.5" height="20"/>
	<path class="st2" d="M962.3781738,234.4786072c-2.9824219,0-5.2148438,1.3154297-6.6992188,3.9453125h-0.078125v-3.4765625h-2.5v20
		h2.5v-11.4453125c0-0.9765625,0.1523438-1.8847656,0.4589844-2.7246094
		c0.3056641-0.8398438,0.7285156-1.5654297,1.2695313-2.1777344c0.5400391-0.6118164,1.1816406-1.090332,1.9238281-1.4355469
		c0.7421875-0.3447266,1.5488281-0.5175781,2.421875-0.5175781c3.28125,0,4.921875,2.2592773,4.921875,6.7773438v11.5234375h2.5
		v-12.1875c0-2.6821289-0.5732422-4.7329102-1.71875-6.1523438
		C966.2316895,235.1885681,964.5656738,234.4786072,962.3781738,234.4786072z"/>
	<path class="st2" d="M990.5617676,235.3379822c-1.2636719,0.5732422-2.3310547,1.3510742-3.203125,2.3339844
		c-0.8730469,0.9833984-1.5371094,2.1357422-1.9921875,3.4570313c-0.4560547,1.3217773-0.6835938,2.7314453-0.6835938,4.2285156
		c0,1.4453125,0.2148438,2.7832031,0.6445313,4.0136719s1.0478516,2.2978516,1.8554688,3.203125
		c0.8066406,0.9052734,1.7832031,1.6113281,2.9296875,2.1191406c1.1455078,0.5078125,2.4345703,0.7548828,3.8671875,0.7421875
		c2.109375-0.0263672,3.90625-0.4882813,5.390625-1.3867188v-2.4609375c-1.5107422,1.1201172-3.203125,1.6796875-5.078125,1.6796875
		c-1.1982422,0-2.2402344-0.2216797-3.125-0.6640625c-0.8857422-0.4423828-1.6181641-1.0380859-2.1972656-1.7871094
		c-0.5800781-0.7490234-1.0097656-1.6113281-1.2890625-2.5878906c-0.2802734-0.9765625-0.4199219-1.9985352-0.4199219-3.0664063
		c0-1.1586914,0.1660156-2.2558594,0.4980469-3.2910156s0.8134766-1.9399414,1.4453125-2.7148438
		c0.6308594-0.7744141,1.4091797-1.3867188,2.3339844-1.8359375c0.9238281-0.4492188,1.9785156-0.6738281,3.1640625-0.6738281
		c1.6923828,0,3.2675781,0.4819336,4.7265625,1.4453125v-2.65625c-1.3671875-0.6376953-2.8779297-0.9570313-4.53125-0.9570313
		C993.2697754,234.4786072,991.8244629,234.7652283,990.5617676,235.3379822z"/>
	<path class="st2" d="M1019.5656738,237.2520447c-0.8076172-0.8984375-1.7910156-1.5849609-2.9492188-2.0605469
		c-1.1591797-0.4750977-2.4609375-0.7128906-3.90625-0.7128906c-1.5107422,0-2.8779297,0.2412109-4.1015625,0.7226563
		c-1.2246094,0.4819336-2.2695313,1.1816406-3.1347656,2.0996094c-0.8662109,0.9179688-1.5332031,2.034668-2.0019531,3.3496094
		c-0.46875,1.3154297-0.703125,2.8061523-0.703125,4.4726563c0,1.5366211,0.2207031,2.9365234,0.6640625,4.1992188
		c0.4423828,1.2626953,1.0800781,2.3466797,1.9140625,3.2519531c0.8330078,0.9052734,1.8388672,1.6044922,3.0175781,2.0996094
		c1.1777344,0.4951172,2.5097656,0.7421875,3.9941406,0.7421875c1.5097656,0,2.8642578-0.2539063,4.0625-0.7617188
		c1.1972656-0.5078125,2.2128906-1.2236328,3.046875-2.1484375c0.8330078-0.9248047,1.4746094-2.0283203,1.9238281-3.3105469
		s0.6738281-2.7050781,0.6738281-4.2675781c0-1.640625-0.2148438-3.1054688-0.6445313-4.3945313
		S1020.3723145,238.1504822,1019.5656738,237.2520447z M1019.0285645,248.4825134
		c-0.3066406,1.0283203-0.7587891,1.8974609-1.3574219,2.6074219c-0.5996094,0.7099609-1.328125,1.25-2.1875,1.6210938
		s-1.8496094,0.5566406-2.96875,0.5566406c-1.09375,0-2.0839844-0.1923828-2.96875-0.5761719
		c-0.8857422-0.3837891-1.6376953-0.9345703-2.2558594-1.6503906c-0.6191406-0.7158203-1.0976563-1.5751953-1.4355469-2.578125
		c-0.3388672-1.0029297-0.5078125-2.1289063-0.5078125-3.3789063c0-1.328125,0.1689453-2.5161133,0.5078125-3.5644531
		c0.3378906-1.0478516,0.8232422-1.9335938,1.4550781-2.65625c0.6308594-0.7226563,1.3896484-1.2724609,2.2753906-1.6503906
		c0.8847656-0.3774414,1.875-0.5664063,2.96875-0.5664063c2.2265625,0,3.9384766,0.7128906,5.1367188,2.1386719
		c1.1972656,1.4257813,1.796875,3.4863281,1.796875,6.1816406
		C1019.4875488,246.2823181,1019.3342285,247.4541931,1019.0285645,248.4825134z"/>
	<path class="st2" d="M1036.3820801,234.4786072c-2.9824219,0-5.2148438,1.3154297-6.6992188,3.9453125h-0.078125v-3.4765625h-2.5
		v20h2.5v-11.4453125c0-0.9765625,0.1523438-1.8847656,0.4589844-2.7246094
		c0.3056641-0.8398438,0.7285156-1.5654297,1.2695313-2.1777344c0.5400391-0.6118164,1.1816406-1.090332,1.9238281-1.4355469
		c0.7421875-0.3447266,1.5488281-0.5175781,2.421875-0.5175781c3.28125,0,4.921875,2.2592773,4.921875,6.7773438v11.5234375h2.5
		v-12.1875c0-2.6821289-0.5732422-4.7329102-1.71875-6.1523438
		C1040.2355957,235.1885681,1038.5695801,234.4786072,1036.3820801,234.4786072z"/>
	<path class="st2" d="M1052.5539551,229.0879822l-2.5,0.8203125v5.0390625h-3.515625v2.1875h3.515625v12.6367188
		c0,3.7236328,1.6142578,5.5859375,4.84375,5.5859375c1.015625,0,1.953125-0.2148438,2.8125-0.6445313v-2.2070313
		c-0.7167969,0.46875-1.4648438,0.703125-2.2460938,0.703125c-1.0546875,0-1.8037109-0.2998047-2.2460938-0.8984375
		c-0.4433594-0.5986328-0.6640625-1.5751953-0.6640625-2.9296875v-12.2460938h5.15625v-2.1875h-5.15625V229.0879822z"/>
	<path class="st2" d="M1075.1027832,237.0762634c-0.6708984-0.8330078-1.5009766-1.4746094-2.4902344-1.9238281
		c-0.9902344-0.4492188-2.1289063-0.6738281-3.4179688-0.6738281c-1.3154297,0-2.5263672,0.2636719-3.6328125,0.7910156
		c-1.1074219,0.5273438-2.0644531,1.2568359-2.8710938,2.1875c-0.8076172,0.9311523-1.4394531,2.034668-1.8945313,3.3105469
		c-0.4560547,1.2763672-0.6835938,2.6630859-0.6835938,4.1601563c0,1.6669922,0.2080078,3.1513672,0.625,4.453125
		c0.4160156,1.3017578,1.0087891,2.3994141,1.7773438,3.2910156c0.7675781,0.8916016,1.6992188,1.5722656,2.7929688,2.0410156
		s2.3105469,0.703125,3.6523438,0.703125c2.7207031,0,5.0390625-0.6835938,6.953125-2.0507813v-2.4609375
		c-2.0058594,1.5751953-4.1347656,2.3632813-6.3867188,2.3632813c-1.0546875,0-2.0019531-0.1787109-2.8417969-0.5371094
		s-1.5527344-0.8759766-2.1386719-1.5527344s-1.0351563-1.5039063-1.3476563-2.4804688s-0.4755859-2.0766602-0.4882813-3.3007813
		h14.453125v-1.25c0-1.484375-0.1757813-2.8251953-0.5273438-4.0234375
		C1076.2844238,238.9253845,1075.7727051,237.9097595,1075.1027832,237.0762634z M1062.7687988,243.2090759
		c0.1425781-1.015625,0.3935547-1.9301758,0.7519531-2.7441406c0.3574219-0.8134766,0.8105469-1.5039063,1.3574219-2.0703125
		s1.1816406-0.9990234,1.9042969-1.2988281c0.7226563-0.2993164,1.5068359-0.4492188,2.3535156-0.4492188
		c1.6923828,0,3.0136719,0.5732422,3.9648438,1.71875c0.9501953,1.1459961,1.4453125,2.7607422,1.484375,4.84375H1062.7687988z"/>
	<path class="st2" d="M1093.0617676,234.9473572l-4.4140625,7.1289063c-0.15625,0.2607422-0.3066406,0.5175781-0.4492188,0.7714844
		c-0.1435547,0.2539063-0.2998047,0.5048828-0.46875,0.7519531h-0.078125
		c-0.1044922-0.1821289-0.234375-0.4130859-0.390625-0.6933594c-0.15625-0.2797852-0.3388672-0.5957031-0.546875-0.9472656
		l-4.1601563-7.0117188h-2.9101563l6.5429688,10.2148438l-6.7578125,9.7851563h2.9492188l4.375-6.8945313
		c0.1953125-0.3251953,0.3613281-0.5957031,0.4980469-0.8105469s0.2373047-0.387207,0.3027344-0.5175781h0.078125
		c0.1689453,0.2998047,0.3349609,0.5791016,0.4980469,0.8398438c0.1621094,0.2607422,0.3222656,0.5146484,0.4785156,0.7617188
		l4.0625,6.6210938h3.0078125l-6.5625-9.84375l6.7578125-10.15625H1093.0617676z"/>
	<path class="st2" d="M1108.2756348,237.1348572v-2.1875h-5.15625v-5.859375l-2.5,0.8203125v5.0390625h-3.5146484v2.1875h3.5146484
		v12.6367188c0,3.7236328,1.6152344,5.5859375,4.84375,5.5859375c1.015625,0,1.953125-0.2148438,2.8125-0.6445313v-2.2070313
		c-0.7148438,0.46875-1.4648438,0.703125-2.2460938,0.703125c-1.0546875,0-1.8027344-0.2998047-2.2460938-0.8984375
		c-0.4414063-0.5986328-0.6640625-1.5751953-0.6640625-2.9296875v-12.2460938H1108.2756348z"/>
</g>
</svg>
