<?xml version="1.0" encoding="utf-8"?>
<!-- Generator: Adobe Illustrator 19.2.1, SVG Export Plug-In . SVG Version: 6.00 Build 0)  -->
<svg version="1.1" id="Layer_1" xmlns="http://www.w3.org/2000/svg" xmlns:xlink="http://www.w3.org/1999/xlink" x="0px" y="0px"
	 viewBox="0 0 1143.5 400" style="enable-background:new 0 0 1143.5 400;" xml:space="preserve">
<style type="text/css">
	.st0{fill:#193E45;}
	.st1{fill:#57B0C2;}
	.st2{fill:#307583;}
</style>
<g>
	<path class="st0" d="M246.4,238.7l0.3,0.1c2.2,0.7,4.7,1,7.3,1h138.1L362.8,202l3.9-6c11.3-17.3,17-36.9,17-58.1
		c0-29.6-9.9-54.1-30.4-74.6c-20.5-20.5-44.8-30.5-74.3-30.5c-29.4,0-53.7,10-74.1,30.5c-20.5,20.6-30.4,45-30.4,74.6
		c0,29.8,10,54.3,30.4,74.9C217,225.1,231,233.8,246.4,238.7z M255.8,108.2c6.1-6.4,14-9.8,23.1-9.8c9.1,0,17.2,3.4,23.2,9.8
		c6,6.3,9,14.3,9,23.6c0,8.2-2.3,15.3-6.9,21.2c-1.2-10.6-5.8-19.8-13.6-27.6c-0.5-0.4-0.9-0.9-1.4-1.3c-2.1-2-4.3-3.7-6.6-5.2
		c-7.5-5-16.1-7.4-25.6-7.4c-1.3,0-2.7,0.1-4,0.2C253.9,110.4,254.8,109.3,255.8,108.2z"/>
</g>
<g>
	<path class="st1" d="M371.8,253.6H248.3c-3.2,0-6.3-0.4-9-1.3l-0.3-0.1c-18.9-6-36.1-16.7-51.1-31.8c-18.5-18.7-30-39.9-34.8-64.5
		c-26.9-14-47.9-28.4-63.1-40.2c-4.5,15.5-31.4,117.3,31.4,188.7c15.5,17.7,35.6,32.5,60.1,44.5c34.6,16.9,68.1,22.3,100.8,16.5
		c32.6-5.9,57.7-21.8,75.3-47.7c14.3-21.1,19.1-42.2,14.5-63.5C371.9,254,371.9,253.8,371.8,253.6z"/>
	<g>
		<path class="st2" d="M69.4,140.2c-14.2-1.7-26.7-4-37.2-6.2c1.7,10.1,10.2,55.6,38.6,97.1C64.2,197.1,66,164.5,69.4,140.2z"/>
	</g>
</g>
<g>
	<path class="st0" d="M454.7,221.4c0-2-2.4-3.2-3.9-1.9c-2.6,2.2-5.3,3.9-8.1,5.2c-4.3,2-8.8,3-13.4,3c-18.4,0-27.6-9.9-27.6-29.8
		v-50.3c0-1.3,1.1-2.4,2.4-2.4h18.6c1.3,0,2.4,1.1,2.4,2.4V196c0,4.7,0.8,8.3,2.4,10.8c1.6,2.5,4.5,3.8,8.6,3.8
		c3.3,0,6.4-0.9,9.3-2.8c2.7-1.7,5.3-4,7.8-6.8c0.4-0.4,0.6-1,0.6-1.6v-51.7c0-1.3,1.1-2.4,2.4-2.4h18.5c1.3,0,2.4,1.1,2.4,2.4v76
		c0,1.3-1.1,2.4-2.4,2.4h-17.8c-1.3,0-2.4-1.1-2.4-2.4V221.4z"/>
	<path class="st0" d="M545.2,223.6c0-1.9-2.1-3-3.8-2c-2.6,1.7-5.4,3-8.3,4c-4.4,1.4-9.5,2.1-15.2,2.1c-4.1,0-7.9-0.5-11.3-1.5
		c-3.5-1-6.4-2.5-8.9-4.4c-2.5-2-4.5-4.4-5.9-7.4c-1.4-2.9-2.1-6.3-2.1-10.3c0-9.6,4-16.6,12-21.2c8-4.6,20.1-6.8,36.3-6.8l4.3,0
		c1.3,0,2.4-1.1,2.4-2.4c0-0.6,0-1.1,0-1.7c0-1.5-0.1-2.7-0.3-3.9c-0.4-3.8-1.7-6.7-3.9-8.6c-2.2-1.9-5.8-2.8-10.6-2.8
		c-5.1,0-8.9,1-11.4,2.9c-2.1,1.6-3.3,3.7-3.7,6.5c-0.2,1.2-1.2,2-2.4,2l-16.5,0c-1.5,0-2.6-1.3-2.4-2.8c2.3-14.7,14.7-22,37.1-22
		c3.3,0,6.2,0.1,8.8,0.3c2.6,0.2,5,0.5,7.2,1c2.2,0.5,4.2,1.1,6.1,1.9c1.9,0.7,3.7,1.7,5.6,2.9c1.7,1.1,3.2,2.4,4.4,3.8
		c1.2,1.4,2.3,3.1,3.1,5c0.8,2,1.5,4.2,1.9,6.7s0.6,5.5,0.6,8.8v49.8c0,1.3-1.1,2.4-2.4,2.4h-18.1
		C546.2,226,545.2,224.9,545.2,223.6L545.2,223.6z M544.7,191.8c0-1.3-1.1-2.4-2.4-2.4h-5.1c-7.9,0-13.9,1-17.9,3c-4,2-6,5.4-6,10.2
		c0,3.7,1.2,6.4,3.7,8.2s5.6,2.6,9.5,2.6c3.7,0,7.2-0.8,10.4-2.3c2.9-1.4,5.3-3.1,7.2-5.2c0.4-0.4,0.6-1,0.6-1.6V191.8z"/>
	<path class="st0" d="M606.1,149.7c0,2,2.4,3.2,3.9,1.8c2.5-2.2,5.2-3.9,8-5.2c4.2-2,8.7-3,13.3-3c18.6,0,27.8,9.9,27.8,29.8v50.4
		c0,1.3-1.1,2.4-2.4,2.4h-18.6c-1.3,0-2.4-1.1-2.4-2.4v-48.4c0-4.7-0.8-8.3-2.4-10.8c-1.6-2.5-4.5-3.8-8.6-3.8c-3.4,0-6.5,1-9.4,2.9
		c-2.6,1.8-5.2,4.1-7.8,6.9c-0.4,0.4-0.6,1-0.6,1.6v51.7c0,1.3-1.1,2.4-2.4,2.4h-18.6c-1.3,0-2.4-1.1-2.4-2.4v-76
		c0-1.3,1.1-2.4,2.4-2.4h17.9c1.3,0,2.4,1.1,2.4,2.4V149.7z"/>
	<path class="st0" d="M718.9,224.2c0,1.2-0.8,2.2-2,2.4c-3,0.5-6.6,0.8-10.6,0.8c-6.1,0-10.7-0.8-14.1-2.4s-5.8-3.9-7.3-6.8
		s-2.5-6.5-2.8-10.6c-0.3-4.1-0.4-8.7-0.4-13.8v-29.3c0-1.3-1.1-2.4-2.4-2.4h-5.8c-1.3,0-2.4-1.1-2.4-2.4v-12c0-1.3,1.1-2.4,2.4-2.4
		h5.8c1.3,0,2.4-1.1,2.4-2.4v-15.4c0-1.3,1.1-2.4,2.4-2.4h18.3c1.3,0,2.4,1.1,2.4,2.4v15.4c0,1.3,1.1,2.4,2.4,2.4h8.5
		c1.3,0,2.4,1.1,2.4,2.4v12c0,1.3-1.1,2.4-2.4,2.4h-8.5c-1.3,0-2.4,1.1-2.4,2.4V198c0,2.5,0.2,4.6,0.5,6.3c0.4,1.7,0.9,2.9,1.5,3.9
		c0.7,0.9,1.4,1.5,2.4,1.9c0.9,0.4,2,0.5,3.2,0.5c1.3,0,2.5-0.1,3.8-0.2c1.4-0.2,2.7,0.9,2.7,2.4V224.2z"/>
	<path class="st0" d="M771.2,227.8c-6.8,0-12.8-1-18.1-2.9s-9.7-4.7-13.3-8.3s-6.3-8-8.2-13.2s-2.8-11.1-2.8-17.6
		c0-6.6,0.9-12.6,2.8-17.8c1.9-5.2,4.6-9.7,8.2-13.3c3.5-3.6,7.9-6.4,13-8.3c5.1-1.9,10.9-2.9,17.4-2.9c6.3,0,12,0.9,17,2.7
		c5,1.8,9.3,4.5,12.8,8s6.2,7.9,8.1,13c1.9,5.2,2.8,11.1,2.8,17.8v3.3c0,1.3-1.1,2.4-2.4,2.4l-53.3,0c-1.4,0-2.5,1.2-2.4,2.5
		c0.2,3,0.7,5.6,1.4,7.8c0.9,2.9,2.2,5.2,3.9,7.1c1.6,1.9,3.5,3.2,5.7,4.1c2.2,0.8,4.6,1.3,7.3,1.3c4.4,0,7.9-0.9,10.7-2.7
		c2.4-1.6,4.1-4,5.2-7.2c0.3-1,1.2-1.7,2.3-1.7h17c1.6,0,2.7,1.5,2.3,3.1c-0.9,3-2.1,5.7-3.8,8.1c-2.2,3.2-5,5.9-8.3,8.1
		c-3.3,2.2-7.1,3.8-11.4,5S776.3,227.8,771.2,227.8z M785.2,177c1.4,0,2.6-1.3,2.4-2.7c-0.7-5.6-2.4-9.7-4.9-12.6
		c-3-3.3-7.1-4.9-12.4-4.9c-4.8,0-8.8,1.8-12,5.4c-2.7,3-4.3,7.1-5,12.1c-0.2,1.4,0.9,2.7,2.4,2.7H785.2z"/>
	<path class="st0" d="M890.4,226h-19.2c-0.9,0-1.6-0.5-2.1-1.2l-14-23.9c-0.9-1.6-3.2-1.6-4.1,0l-13.8,23.9
		c-0.4,0.7-1.2,1.2-2.1,1.2h-18.6c-1.9,0-3.1-2.1-2-3.7l24-36.8c0.5-0.8,0.5-1.8,0-2.6l-21.6-34c-1-1.6,0.1-3.7,2-3.7H837
		c0.9,0,1.7,0.5,2.1,1.2l12.5,21.9c0.9,1.6,3.3,1.6,4.2,0l12.5-21.9c0.4-0.7,1.2-1.2,2.1-1.2h18c1.9,0,3,2.1,2,3.7l-21.5,34
		c-0.5,0.8-0.5,1.8,0,2.6l23.7,36.8C893.5,223.9,892.3,226,890.4,226z"/>
	<path class="st0" d="M946.7,224.2c0,1.2-0.8,2.2-2,2.4c-3,0.5-6.6,0.8-10.6,0.8c-6.1,0-10.7-0.8-14.1-2.4s-5.8-3.9-7.3-6.8
		s-2.5-6.5-2.8-10.6c-0.3-4.1-0.4-8.7-0.4-13.8v-29.3c0-1.3-1.1-2.4-2.4-2.4h-5.8c-1.3,0-2.4-1.1-2.4-2.4v-12c0-1.3,1.1-2.4,2.4-2.4
		h5.8c1.3,0,2.4-1.1,2.4-2.4v-15.4c0-1.3,1.1-2.4,2.4-2.4h18.3c1.3,0,2.4,1.1,2.4,2.4v15.4c0,1.3,1.1,2.4,2.4,2.4h8.5
		c1.3,0,2.4,1.1,2.4,2.4v12c0,1.3-1.1,2.4-2.4,2.4H935c-1.3,0-2.4,1.1-2.4,2.4V198c0,2.5,0.2,4.6,0.5,6.3c0.4,1.7,0.9,2.9,1.5,3.9
		c0.7,0.9,1.4,1.5,2.4,1.9c0.9,0.4,2,0.5,3.2,0.5c1.3,0,2.5-0.1,3.8-0.2c1.4-0.2,2.7,0.9,2.7,2.4V224.2z"/>
</g>
<g>
	<path class="st0" d="M441.6,272.6h-4.2l-3.2-8.5h-11.7l-3.1,8.5h-3.9l10.7-27.9h4L441.6,272.6z M433.1,261.2l-4.9-12.9l-4.7,12.9
		H433.1z"/>
	<path class="st0" d="M447.8,255c1.8-2,3.8-3,6-3c4.6,0,6.8,2.5,6.8,7.4v13.2h-3.6v-13.1c0-1.7-0.3-2.8-0.9-3.6
		c-0.6-0.7-1.6-1.1-2.9-1.1c-1.8,0-3.6,1.1-5.5,3.2v14.5h-3.6v-20.2h3.6V255z"/>
	<path class="st0" d="M478.7,270.5c-1.9,1.7-4.2,2.6-7.1,2.6c-1,0-1.9-0.1-2.8-0.4c-0.8-0.3-1.6-0.7-2.2-1.2
		c-0.6-0.5-1.1-1.1-1.4-1.8c-0.3-0.7-0.5-1.5-0.5-2.4c0-4.7,4.1-7.1,12.2-7.1h1.8c0-0.7,0-1.4,0-1.9c0-0.5-0.1-0.9-0.2-1.3
		c-0.1-0.4-0.2-0.7-0.5-0.9c-0.2-0.2-0.5-0.5-0.8-0.7c-0.7-0.4-1.8-0.7-3.3-0.7c-3.2,0-4.8,1.1-4.9,3.4h-3.6
		c0.3-4.2,3.2-6.2,8.7-6.2c2.6,0,4.6,0.5,6.1,1.5c1.4,1,2.2,3,2.2,6.1v13.1h-3.6V270.5z M478.7,267.3v-4.5h-2.5
		c-5.2,0-7.8,1.4-7.8,4.2c0,1,0.4,1.8,1.1,2.4c0.8,0.6,1.8,0.8,3.1,0.8c0.6,0,1.2-0.1,1.7-0.2c0.6-0.1,1.1-0.3,1.7-0.6
		c0.5-0.3,1-0.6,1.5-0.9C478,268.1,478.4,267.7,478.7,267.3z"/>
	<path class="st0" d="M491.2,272.6h-3.6v-27.9h3.6V272.6z"/>
	<path class="st0" d="M497.6,277.5c1.8,0,3.2-1.6,4.4-4.9l-7.6-20.2h3.9l5.3,15.8l5.4-15.8h3.9l-7.6,20.2c-0.4,1-0.7,1.8-1,2.6
		c-0.3,0.7-0.6,1.4-0.8,1.9c-0.3,0.5-0.6,1-0.9,1.5c-0.3,0.4-0.7,0.8-1.1,1.2c-0.4,0.3-0.9,0.6-1.4,0.8c-0.5,0.2-1.1,0.3-1.7,0.3
		c-0.4,0-0.9,0-1.2-0.1c-0.4,0-0.7-0.1-1.1-0.2v-3.3C496.5,277.4,497.1,277.5,497.6,277.5z"/>
	<path class="st0" d="M523.2,273.1c-5.5,0-8.4-2.2-8.7-6.5h3.6c0,2.5,1.7,3.7,5,3.7c1.5,0,2.6-0.3,3.4-0.9c0.8-0.6,1.2-1.4,1.2-2.3
		c0-0.5-0.1-0.8-0.2-1.1c-0.2-0.3-0.4-0.6-0.9-0.8c-0.4-0.2-1-0.5-1.8-0.7c-0.8-0.2-1.8-0.5-3-0.8c-2.4-0.6-4.1-1.3-5.2-2
		c-1.1-0.7-1.6-2-1.6-3.9c0-0.8,0.2-1.6,0.5-2.3c0.4-0.7,0.9-1.3,1.5-1.8c0.7-0.5,1.5-0.9,2.4-1.2s2-0.4,3.1-0.4
		c5.3,0,8,1.9,8.1,5.6h-3.6c-0.1-1.9-1.6-2.9-4.3-2.9c-0.6,0-1.1,0.1-1.6,0.2c-0.5,0.1-0.9,0.3-1.3,0.5c-0.4,0.2-0.7,0.5-0.9,0.8
		c-0.2,0.3-0.3,0.7-0.3,1.2c0,0.8,0.3,1.4,0.9,1.7c0.6,0.3,2.1,0.8,4.6,1.4c1.2,0.3,2.3,0.6,3.2,1c0.9,0.3,1.6,0.7,2.2,1.1
		c0.6,0.4,1,0.9,1.3,1.6s0.4,1.5,0.4,2.5c0,0.9-0.2,1.8-0.6,2.6c-0.4,0.8-0.9,1.5-1.6,2c-0.7,0.6-1.6,1-2.6,1.3
		C525.5,272.9,524.4,273.1,523.2,273.1z"/>
	<path class="st0" d="M544.1,273.1c-1.5,0-2.8-0.2-4-0.7c-1.2-0.5-2.3-1.2-3.1-2.1c-0.9-0.9-1.5-2-2-3.3c-0.5-1.3-0.7-2.8-0.7-4.5
		s0.2-3.1,0.7-4.5c0.5-1.3,1.1-2.4,1.9-3.3c0.8-0.9,1.8-1.6,3-2.1c1.2-0.5,2.4-0.7,3.8-0.7c1.4,0,2.7,0.2,3.9,0.7
		c1.2,0.5,2.2,1.2,3,2.1c0.8,0.9,1.5,2,1.9,3.3c0.4,1.3,0.7,2.8,0.7,4.5v0.9h-15.2c0.1,1.2,0.3,2.2,0.6,3.1c0.3,0.9,0.8,1.6,1.3,2.1
		c0.5,0.6,1.2,1,1.9,1.3c0.7,0.3,1.5,0.4,2.3,0.4c0.6,0,1.2-0.1,1.8-0.2c0.6-0.2,1.1-0.4,1.6-0.7c0.5-0.3,0.8-0.7,1.1-1.2
		c0.3-0.5,0.5-1,0.5-1.6h3.7c-0.1,1-0.5,2-1,2.8c-0.5,0.8-1.1,1.5-1.9,2.1c-0.8,0.6-1.7,1-2.6,1.3
		C546.3,272.9,545.2,273.1,544.1,273.1z M549.4,260.5c-0.3-2-0.9-3.4-2-4.4c-1-1-2.3-1.4-3.7-1.4c-0.7,0-1.4,0.1-2,0.4
		c-0.6,0.2-1.2,0.6-1.7,1.1c-0.5,0.5-0.9,1.1-1.3,1.8s-0.6,1.6-0.7,2.6H549.4z"/>
	<path class="st0" d="M580,273.1c-5.5,0-8.4-2.2-8.7-6.5h3.6c0,2.5,1.7,3.7,5,3.7c1.5,0,2.6-0.3,3.4-0.9c0.8-0.6,1.2-1.4,1.2-2.3
		c0-0.5-0.1-0.8-0.2-1.1c-0.2-0.3-0.4-0.6-0.9-0.8c-0.4-0.2-1-0.5-1.8-0.7c-0.8-0.2-1.8-0.5-3-0.8c-2.4-0.6-4.1-1.3-5.2-2
		c-1.1-0.7-1.6-2-1.6-3.9c0-0.8,0.2-1.6,0.5-2.3c0.4-0.7,0.9-1.3,1.5-1.8c0.7-0.5,1.5-0.9,2.4-1.2s2-0.4,3.1-0.4
		c5.3,0,8,1.9,8.1,5.6h-3.6c-0.1-1.9-1.6-2.9-4.3-2.9c-0.6,0-1.1,0.1-1.6,0.2c-0.5,0.1-0.9,0.3-1.3,0.5c-0.4,0.2-0.7,0.5-0.9,0.8
		c-0.2,0.3-0.3,0.7-0.3,1.2c0,0.8,0.3,1.4,0.9,1.7c0.6,0.3,2.1,0.8,4.6,1.4c1.2,0.3,2.3,0.6,3.2,1c0.9,0.3,1.6,0.7,2.2,1.1
		c0.6,0.4,1,0.9,1.3,1.6s0.4,1.5,0.4,2.5c0,0.9-0.2,1.8-0.6,2.6c-0.4,0.8-0.9,1.5-1.6,2c-0.7,0.6-1.6,1-2.6,1.3
		C582.4,272.9,581.2,273.1,580,273.1z"/>
	<path class="st0" d="M600.2,272.6c-0.8,0.1-1.6,0.2-2.6,0.2c-1.2,0-2.1-0.2-2.7-0.5s-1.1-0.7-1.4-1.3c-0.3-0.5-0.5-1.2-0.5-2
		c-0.1-0.8-0.1-1.6-0.1-2.5v-11.5h-2.5v-2.8h2.5v-5h3.6v5h3.3v2.8h-3.3v11.6c0,0.7,0,1.3,0.1,1.7c0.1,0.4,0.2,0.7,0.4,1
		c0.2,0.2,0.4,0.4,0.6,0.4c0.2,0.1,0.5,0.1,0.8,0.1c0.6,0,1.2,0,1.8-0.1V272.6z"/>
	<path class="st0" d="M615.9,270c-1.8,2-3.8,3.1-6.1,3.1c-4.6,0-6.8-2.5-6.8-7.5v-13.2h3.6v13.1c0,1.6,0.3,2.8,0.9,3.6
		c0.6,0.7,1.5,1.1,2.9,1.1c2,0,3.8-1.1,5.5-3.2v-14.5h3.6v20.2h-3.6V270z"/>
	<path class="st0" d="M637.6,270.2c-1.6,1.9-3.5,2.9-5.8,2.9c-1.3,0-2.5-0.2-3.5-0.7c-1-0.5-1.9-1.2-2.6-2.1c-0.7-0.9-1.2-2-1.6-3.3
		c-0.4-1.3-0.5-2.7-0.5-4.3c0-1.6,0.2-3.1,0.6-4.4c0.4-1.3,1-2.4,1.8-3.4c0.8-0.9,1.7-1.6,2.7-2.1c1.1-0.5,2.2-0.8,3.4-0.8
		c2.2,0,4,0.7,5.5,2v-9.3h3.6v27.9h-3.6V270.2z M637.6,266.8v-9.6c-1.6-1.6-3.3-2.5-5.3-2.5c-1.5,0-2.8,0.7-3.7,2
		c-0.9,1.3-1.4,3.3-1.4,5.9c0,2.5,0.4,4.4,1.3,5.7c0.9,1.3,2.1,1.9,3.6,1.9C634.1,270.2,635.9,269.1,637.6,266.8z"/>
	<path class="st0" d="M655.1,273.1c-1.5,0-2.8-0.2-4-0.7c-1.2-0.5-2.3-1.2-3.1-2.1c-0.9-0.9-1.5-2-2-3.3c-0.5-1.3-0.7-2.8-0.7-4.5
		s0.2-3.1,0.7-4.5c0.5-1.3,1.1-2.4,1.9-3.3c0.8-0.9,1.8-1.6,3-2.1c1.2-0.5,2.4-0.7,3.8-0.7c1.4,0,2.7,0.2,3.9,0.7
		c1.2,0.5,2.2,1.2,3,2.1c0.8,0.9,1.5,2,1.9,3.3c0.4,1.3,0.7,2.8,0.7,4.5v0.9H649c0.1,1.2,0.3,2.2,0.6,3.1c0.3,0.9,0.8,1.6,1.3,2.1
		c0.5,0.6,1.2,1,1.9,1.3c0.7,0.3,1.5,0.4,2.3,0.4c0.6,0,1.2-0.1,1.8-0.2c0.6-0.2,1.1-0.4,1.6-0.7c0.5-0.3,0.8-0.7,1.1-1.2
		c0.3-0.5,0.5-1,0.5-1.6h3.7c-0.1,1-0.5,2-1,2.8c-0.5,0.8-1.1,1.5-1.9,2.1c-0.8,0.6-1.7,1-2.6,1.3
		C657.3,272.9,656.2,273.1,655.1,273.1z M660.4,260.5c-0.3-2-0.9-3.4-2-4.4c-1-1-2.3-1.4-3.7-1.4c-0.7,0-1.4,0.1-2,0.4
		c-0.6,0.2-1.2,0.6-1.7,1.1c-0.5,0.5-0.9,1.1-1.3,1.8s-0.6,1.6-0.7,2.6H660.4z"/>
	<path class="st0" d="M671.8,255c1.8-2,3.8-3,6-3c4.6,0,6.8,2.5,6.8,7.4v13.2h-3.6v-13.1c0-1.7-0.3-2.8-0.9-3.6
		c-0.6-0.7-1.6-1.1-2.9-1.1c-1.8,0-3.6,1.1-5.5,3.2v14.5h-3.6v-20.2h3.6V255z"/>
	<path class="st0" d="M697.7,272.6c-0.8,0.1-1.6,0.2-2.6,0.2c-1.2,0-2.1-0.2-2.7-0.5s-1.1-0.7-1.4-1.3c-0.3-0.5-0.5-1.2-0.5-2
		c-0.1-0.8-0.1-1.6-0.1-2.5v-11.5h-2.5v-2.8h2.5v-5h3.6v5h3.3v2.8h-3.3v11.6c0,0.7,0,1.3,0.1,1.7c0.1,0.4,0.2,0.7,0.4,1
		c0.2,0.2,0.4,0.4,0.6,0.4c0.2,0.1,0.5,0.1,0.8,0.1c0.6,0,1.2,0,1.8-0.1V272.6z"/>
	<path class="st0" d="M726.8,255.7c-0.5-0.2-1.2-0.2-2.2-0.2c-1.8,0-3.4,1-4.7,2.9v14.3h-3.6v-20.2h3.6v2.8c1.5-2.2,3.2-3.3,5.2-3.3
		c0.5,0,1,0,1.6,0.1V255.7z"/>
	<path class="st0" d="M737.9,273.1c-1.5,0-2.8-0.2-4-0.7c-1.2-0.5-2.3-1.2-3.1-2.1c-0.9-0.9-1.5-2-2-3.3c-0.5-1.3-0.7-2.8-0.7-4.5
		s0.2-3.1,0.7-4.5c0.5-1.3,1.1-2.4,1.9-3.3c0.8-0.9,1.8-1.6,3-2.1c1.2-0.5,2.4-0.7,3.8-0.7c1.4,0,2.7,0.2,3.9,0.7
		c1.2,0.5,2.2,1.2,3,2.1c0.8,0.9,1.5,2,1.9,3.3c0.4,1.3,0.7,2.8,0.7,4.5v0.9h-15.2c0.1,1.2,0.3,2.2,0.6,3.1c0.3,0.9,0.8,1.6,1.3,2.1
		c0.5,0.6,1.2,1,1.9,1.3c0.7,0.3,1.5,0.4,2.3,0.4c0.6,0,1.2-0.1,1.8-0.2c0.6-0.2,1.1-0.4,1.6-0.7c0.5-0.3,0.8-0.7,1.1-1.2
		c0.3-0.5,0.5-1,0.5-1.6h3.7c-0.1,1-0.5,2-1,2.8c-0.5,0.8-1.1,1.5-1.9,2.1c-0.8,0.6-1.7,1-2.6,1.3
		C740.1,272.9,739,273.1,737.9,273.1z M743.2,260.5c-0.3-2-0.9-3.4-2-4.4c-1-1-2.3-1.4-3.7-1.4c-0.7,0-1.4,0.1-2,0.4
		c-0.6,0.2-1.2,0.6-1.7,1.1c-0.5,0.5-0.9,1.1-1.3,1.8s-0.6,1.6-0.7,2.6H743.2z"/>
	<path class="st0" d="M758.2,273.1c-5.5,0-8.4-2.2-8.7-6.5h3.6c0,2.5,1.7,3.7,5,3.7c1.5,0,2.6-0.3,3.4-0.9c0.8-0.6,1.2-1.4,1.2-2.3
		c0-0.5-0.1-0.8-0.2-1.1c-0.2-0.3-0.4-0.6-0.9-0.8c-0.4-0.2-1-0.5-1.8-0.7c-0.8-0.2-1.8-0.5-3-0.8c-2.4-0.6-4.1-1.3-5.2-2
		c-1.1-0.7-1.6-2-1.6-3.9c0-0.8,0.2-1.6,0.5-2.3c0.4-0.7,0.9-1.3,1.5-1.8c0.7-0.5,1.5-0.9,2.4-1.2s2-0.4,3.1-0.4
		c5.3,0,8,1.9,8.1,5.6h-3.6c-0.1-1.9-1.6-2.9-4.3-2.9c-0.6,0-1.1,0.1-1.6,0.2c-0.5,0.1-0.9,0.3-1.3,0.5c-0.4,0.2-0.7,0.5-0.9,0.8
		c-0.2,0.3-0.3,0.7-0.3,1.2c0,0.8,0.3,1.4,0.9,1.7c0.6,0.3,2.1,0.8,4.6,1.4c1.2,0.3,2.3,0.6,3.2,1c0.9,0.3,1.6,0.7,2.2,1.1
		c0.6,0.4,1,0.9,1.3,1.6s0.4,1.5,0.4,2.5c0,0.9-0.2,1.8-0.6,2.6c-0.4,0.8-0.9,1.5-1.6,2c-0.7,0.6-1.6,1-2.6,1.3
		C760.6,272.9,759.4,273.1,758.2,273.1z"/>
	<path class="st0" d="M774.1,254.8c1.6-1.9,3.5-2.9,5.8-2.9c1.3,0,2.5,0.2,3.5,0.7s1.9,1.2,2.6,2.1c0.7,0.9,1.2,2,1.6,3.3
		c0.4,1.3,0.6,2.7,0.6,4.3c0,1.6-0.2,3.1-0.6,4.5c-0.4,1.3-1,2.5-1.8,3.4c-0.8,0.9-1.7,1.6-2.7,2.1c-1,0.5-2.2,0.8-3.4,0.8
		c-2.2,0-4-0.7-5.5-2.1v9.3h-3.6v-28h3.6V254.8z M774.1,267.8c1.5,1.6,3.3,2.5,5.3,2.5c1.6,0,2.8-0.7,3.7-2c0.9-1.3,1.4-3.3,1.4-5.9
		c0-2.5-0.4-4.4-1.3-5.7c-0.9-1.3-2.1-1.9-3.6-1.9c-2,0-3.8,1.2-5.4,3.5V267.8z"/>
	<path class="st0" d="M800.4,251.9c1.4,0,2.7,0.2,3.9,0.7c1.2,0.5,2.2,1.2,3,2.1c0.8,0.9,1.5,2,1.9,3.3c0.4,1.3,0.7,2.8,0.7,4.5
		c0,1.7-0.2,3.1-0.7,4.5c-0.4,1.3-1.1,2.4-1.9,3.3c-0.8,0.9-1.8,1.6-3,2.1c-1.2,0.5-2.5,0.7-3.9,0.7c-1.4,0-2.7-0.2-3.9-0.7
		c-1.2-0.5-2.2-1.2-3-2.1c-0.8-0.9-1.5-2-1.9-3.3c-0.4-1.3-0.7-2.8-0.7-4.5c0-1.7,0.2-3.2,0.7-4.5c0.5-1.3,1.1-2.4,1.9-3.3
		c0.8-0.9,1.8-1.6,3-2.1C797.7,252.2,799,251.9,800.4,251.9z M800.4,270.2c0.8,0,1.6-0.2,2.3-0.5c0.7-0.3,1.3-0.8,1.8-1.5
		c0.5-0.7,0.9-1.5,1.2-2.4c0.3-1,0.4-2.1,0.4-3.4c0-1.3-0.1-2.4-0.4-3.4c-0.3-1-0.7-1.8-1.2-2.4c-0.5-0.6-1.1-1.1-1.8-1.5
		c-0.7-0.3-1.5-0.5-2.3-0.5c-0.8,0-1.6,0.2-2.3,0.5c-0.7,0.3-1.3,0.8-1.8,1.5c-0.5,0.6-0.9,1.5-1.2,2.4c-0.3,1-0.4,2.1-0.4,3.4
		c0,1.3,0.1,2.4,0.4,3.4c0.3,1,0.7,1.8,1.2,2.4c0.5,0.7,1.1,1.1,1.8,1.5C798.7,270.1,799.5,270.2,800.4,270.2z"/>
	<path class="st0" d="M817.5,255c1.8-2,3.8-3,6-3c4.6,0,6.8,2.5,6.8,7.4v13.2h-3.6v-13.1c0-1.7-0.3-2.8-0.9-3.6
		c-0.6-0.7-1.6-1.1-2.9-1.1c-1.8,0-3.6,1.1-5.5,3.2v14.5h-3.6v-20.2h3.6V255z"/>
	<path class="st0" d="M842.8,273.1c-5.5,0-8.4-2.2-8.7-6.5h3.6c0,2.5,1.7,3.7,5,3.7c1.5,0,2.6-0.3,3.4-0.9c0.8-0.6,1.2-1.4,1.2-2.3
		c0-0.5-0.1-0.8-0.2-1.1c-0.2-0.3-0.4-0.6-0.9-0.8c-0.4-0.2-1-0.5-1.8-0.7c-0.8-0.2-1.8-0.5-3-0.8c-2.4-0.6-4.1-1.3-5.2-2
		c-1.1-0.7-1.6-2-1.6-3.9c0-0.8,0.2-1.6,0.5-2.3c0.4-0.7,0.9-1.3,1.5-1.8c0.7-0.5,1.5-0.9,2.4-1.2s2-0.4,3.1-0.4
		c5.3,0,8,1.9,8.1,5.6h-3.6c-0.1-1.9-1.6-2.9-4.3-2.9c-0.6,0-1.1,0.1-1.6,0.2c-0.5,0.1-0.9,0.3-1.3,0.5c-0.4,0.2-0.7,0.5-0.9,0.8
		c-0.2,0.3-0.3,0.7-0.3,1.2c0,0.8,0.3,1.4,0.9,1.7c0.6,0.3,2.1,0.8,4.6,1.4c1.2,0.3,2.3,0.6,3.2,1c0.9,0.3,1.6,0.7,2.2,1.1
		c0.6,0.4,1,0.9,1.3,1.6s0.4,1.5,0.4,2.5c0,0.9-0.2,1.8-0.6,2.6c-0.4,0.8-0.9,1.5-1.6,2c-0.7,0.6-1.6,1-2.6,1.3
		C845.1,272.9,844,273.1,842.8,273.1z"/>
	<path class="st0" d="M863.6,273.1c-1.5,0-2.8-0.2-4-0.7c-1.2-0.5-2.3-1.2-3.1-2.1c-0.9-0.9-1.5-2-2-3.3c-0.5-1.3-0.7-2.8-0.7-4.5
		s0.2-3.1,0.7-4.5c0.5-1.3,1.1-2.4,1.9-3.3c0.8-0.9,1.8-1.6,3-2.1c1.2-0.5,2.4-0.7,3.8-0.7c1.4,0,2.7,0.2,3.9,0.7
		c1.2,0.5,2.2,1.2,3,2.1c0.8,0.9,1.5,2,1.9,3.3c0.4,1.3,0.7,2.8,0.7,4.5v0.9h-15.2c0.1,1.2,0.3,2.2,0.6,3.1c0.3,0.9,0.8,1.6,1.3,2.1
		c0.5,0.6,1.2,1,1.9,1.3c0.7,0.3,1.5,0.4,2.3,0.4c0.6,0,1.2-0.1,1.8-0.2c0.6-0.2,1.1-0.4,1.6-0.7c0.5-0.3,0.8-0.7,1.1-1.2
		c0.3-0.5,0.5-1,0.5-1.6h3.7c-0.1,1-0.5,2-1,2.8c-0.5,0.8-1.1,1.5-1.9,2.1c-0.8,0.6-1.7,1-2.6,1.3
		C865.8,272.9,864.8,273.1,863.6,273.1z M868.9,260.5c-0.3-2-0.9-3.4-2-4.4c-1-1-2.3-1.4-3.7-1.4c-0.7,0-1.4,0.1-2,0.4
		c-0.6,0.2-1.2,0.6-1.7,1.1c-0.5,0.5-0.9,1.1-1.3,1.8s-0.6,1.6-0.7,2.6H868.9z"/>
	<path class="st0" d="M883.9,273.1c-5.5,0-8.4-2.2-8.7-6.5h3.6c0,2.5,1.7,3.7,5,3.7c1.5,0,2.6-0.3,3.4-0.9c0.8-0.6,1.2-1.4,1.2-2.3
		c0-0.5-0.1-0.8-0.2-1.1c-0.2-0.3-0.4-0.6-0.9-0.8c-0.4-0.2-1-0.5-1.8-0.7c-0.8-0.2-1.8-0.5-3-0.8c-2.4-0.6-4.1-1.3-5.2-2
		c-1.1-0.7-1.6-2-1.6-3.9c0-0.8,0.2-1.6,0.5-2.3c0.4-0.7,0.9-1.3,1.5-1.8c0.7-0.5,1.5-0.9,2.4-1.2s2-0.4,3.1-0.4
		c5.3,0,8,1.9,8.1,5.6h-3.6c-0.1-1.9-1.6-2.9-4.3-2.9c-0.6,0-1.1,0.1-1.6,0.2c-0.5,0.1-0.9,0.3-1.3,0.5c-0.4,0.2-0.7,0.5-0.9,0.8
		c-0.2,0.3-0.3,0.7-0.3,1.2c0,0.8,0.3,1.4,0.9,1.7c0.6,0.3,2.1,0.8,4.6,1.4c1.2,0.3,2.3,0.6,3.2,1c0.9,0.3,1.6,0.7,2.2,1.1
		c0.6,0.4,1,0.9,1.3,1.6s0.4,1.5,0.4,2.5c0,0.9-0.2,1.8-0.6,2.6c-0.4,0.8-0.9,1.5-1.6,2c-0.7,0.6-1.6,1-2.6,1.3
		C886.3,272.9,885.2,273.1,883.9,273.1z"/>
	<path class="st0" d="M915.5,248.6h-3.6v-3.9h3.6V248.6z M915.5,272.6h-3.6v-20.2h3.6V272.6z"/>
	<path class="st0" d="M924.3,255c1.8-2,3.8-3,6-3c4.6,0,6.8,2.5,6.8,7.4v13.2h-3.6v-13.1c0-1.7-0.3-2.8-0.9-3.6
		c-0.6-0.7-1.6-1.1-2.9-1.1c-1.8,0-3.6,1.1-5.5,3.2v14.5h-3.6v-20.2h3.6V255z"/>
	<path class="st0" d="M966.2,273.1c-1.4,0-2.7-0.2-3.9-0.7c-1.2-0.5-2.2-1.2-3-2.1c-0.8-0.9-1.5-2-1.9-3.3c-0.4-1.3-0.7-2.8-0.7-4.5
		c0-1.7,0.2-3.2,0.7-4.5c0.5-1.3,1.1-2.4,1.9-3.3c0.8-0.9,1.8-1.6,3-2.1c1.2-0.5,2.5-0.7,3.9-0.7c1.1,0,2.1,0.1,3.1,0.4
		c0.9,0.3,1.8,0.7,2.5,1.2c0.7,0.5,1.3,1.2,1.7,2c0.5,0.8,0.7,1.7,0.9,2.8h-3.7c0-0.6-0.2-1.1-0.4-1.6c-0.2-0.5-0.6-0.8-1-1.2
		c-0.4-0.3-0.9-0.5-1.4-0.7c-0.5-0.2-1.1-0.2-1.7-0.2c-0.8,0-1.6,0.2-2.3,0.5c-0.7,0.3-1.3,0.8-1.8,1.5c-0.5,0.6-0.9,1.5-1.2,2.4
		c-0.3,1-0.4,2.1-0.4,3.4c0,1.3,0.1,2.4,0.4,3.4c0.3,1,0.7,1.8,1.2,2.4c0.5,0.7,1.1,1.1,1.8,1.5c0.7,0.3,1.5,0.5,2.4,0.5
		c0.6,0,1.1-0.1,1.7-0.2c0.5-0.2,1-0.4,1.4-0.7c0.4-0.3,0.7-0.7,1-1.2c0.2-0.5,0.4-1,0.4-1.6h3.7c-0.1,1.1-0.4,2-0.9,2.8
		c-0.5,0.8-1,1.5-1.7,2c-0.7,0.6-1.5,1-2.5,1.3C968.3,272.9,967.3,273.1,966.2,273.1z"/>
	<path class="st0" d="M985.7,251.9c1.4,0,2.7,0.2,3.9,0.7c1.2,0.5,2.2,1.2,3,2.1c0.8,0.9,1.5,2,1.9,3.3c0.4,1.3,0.7,2.8,0.7,4.5
		c0,1.7-0.2,3.1-0.7,4.5c-0.4,1.3-1.1,2.4-1.9,3.3c-0.8,0.9-1.8,1.6-3,2.1c-1.2,0.5-2.5,0.7-3.9,0.7c-1.4,0-2.7-0.2-3.9-0.7
		c-1.2-0.5-2.2-1.2-3-2.1c-0.8-0.9-1.5-2-1.9-3.3c-0.4-1.3-0.7-2.8-0.7-4.5c0-1.7,0.2-3.2,0.7-4.5c0.5-1.3,1.1-2.4,1.9-3.3
		c0.8-0.9,1.8-1.6,3-2.1C983,252.2,984.3,251.9,985.7,251.9z M985.7,270.2c0.8,0,1.6-0.2,2.3-0.5c0.7-0.3,1.3-0.8,1.8-1.5
		c0.5-0.7,0.9-1.5,1.2-2.4c0.3-1,0.4-2.1,0.4-3.4c0-1.3-0.1-2.4-0.4-3.4c-0.3-1-0.7-1.8-1.2-2.4c-0.5-0.6-1.1-1.1-1.8-1.5
		c-0.7-0.3-1.5-0.5-2.3-0.5c-0.8,0-1.6,0.2-2.3,0.5c-0.7,0.3-1.3,0.8-1.8,1.5c-0.5,0.6-0.9,1.5-1.2,2.4c-0.3,1-0.4,2.1-0.4,3.4
		c0,1.3,0.1,2.4,0.4,3.4c0.3,1,0.7,1.8,1.2,2.4c0.5,0.7,1.1,1.1,1.8,1.5C984.1,270.1,984.9,270.2,985.7,270.2z"/>
	<path class="st0" d="M1002.8,255c1.8-2,3.8-3,6-3c4.6,0,6.8,2.5,6.8,7.4v13.2h-3.6v-13.1c0-1.7-0.3-2.8-0.9-3.6
		c-0.6-0.7-1.6-1.1-2.9-1.1c-1.8,0-3.6,1.1-5.5,3.2v14.5h-3.6v-20.2h3.6V255z"/>
	<path class="st0" d="M1028.8,272.6c-0.8,0.1-1.6,0.2-2.6,0.2c-1.2,0-2.1-0.2-2.7-0.5s-1.1-0.7-1.4-1.3c-0.3-0.5-0.5-1.2-0.5-2
		c-0.1-0.8-0.1-1.6-0.1-2.5v-11.5h-2.5v-2.8h2.5v-5h3.6v5h3.3v2.8h-3.3v11.6c0,0.7,0,1.3,0.1,1.7c0.1,0.4,0.2,0.7,0.4,1
		c0.2,0.2,0.4,0.4,0.6,0.4c0.2,0.1,0.5,0.1,0.8,0.1c0.6,0,1.2,0,1.8-0.1V272.6z"/>
	<path class="st0" d="M1040.3,273.1c-1.5,0-2.8-0.2-4-0.7c-1.2-0.5-2.3-1.2-3.1-2.1c-0.9-0.9-1.5-2-2-3.3c-0.5-1.3-0.7-2.8-0.7-4.5
		s0.2-3.1,0.7-4.5c0.5-1.3,1.1-2.4,1.9-3.3c0.8-0.9,1.8-1.6,3-2.1c1.2-0.5,2.4-0.7,3.8-0.7c1.4,0,2.7,0.2,3.9,0.7
		c1.2,0.5,2.2,1.2,3,2.1c0.8,0.9,1.5,2,1.9,3.3c0.4,1.3,0.7,2.8,0.7,4.5v0.9h-15.2c0.1,1.2,0.3,2.2,0.6,3.1c0.3,0.9,0.8,1.6,1.3,2.1
		c0.5,0.6,1.2,1,1.9,1.3c0.7,0.3,1.5,0.4,2.3,0.4c0.6,0,1.2-0.1,1.8-0.2c0.6-0.2,1.1-0.4,1.6-0.7c0.5-0.3,0.8-0.7,1.1-1.2
		c0.3-0.5,0.5-1,0.5-1.6h3.7c-0.1,1-0.5,2-1,2.8c-0.5,0.8-1.1,1.5-1.9,2.1c-0.8,0.6-1.7,1-2.6,1.3
		C1042.5,272.9,1041.5,273.1,1040.3,273.1z M1045.6,260.5c-0.3-2-0.9-3.4-2-4.4c-1-1-2.3-1.4-3.7-1.4c-0.7,0-1.4,0.1-2,0.4
		c-0.6,0.2-1.2,0.6-1.7,1.1c-0.5,0.5-0.9,1.1-1.3,1.8s-0.6,1.6-0.7,2.6H1045.6z"/>
	<path class="st0" d="M1070,272.6h-4.5l-5-7.9l-5,7.9h-4.4l7.5-10.5l-6.9-9.7h4.5l4.4,7.1l4.4-7.1h4.5l-6.9,9.7L1070,272.6z"/>
	<path class="st0" d="M1080.8,272.6c-0.8,0.1-1.6,0.2-2.6,0.2c-1.2,0-2.1-0.2-2.7-0.5s-1.1-0.7-1.4-1.3c-0.3-0.5-0.5-1.2-0.5-2
		c-0.1-0.8-0.1-1.6-0.1-2.5v-11.5h-2.5v-2.8h2.5v-5h3.6v5h3.3v2.8h-3.3v11.6c0,0.7,0,1.3,0.1,1.7c0.1,0.4,0.2,0.7,0.4,1
		c0.2,0.2,0.4,0.4,0.6,0.4c0.2,0.1,0.5,0.1,0.8,0.1c0.6,0,1.2,0,1.8-0.1V272.6z"/>
</g>
</svg>
