<?xml version="1.0" encoding="utf-8"?>
<!-- Generator: Adobe Illustrator 19.2.1, SVG Export Plug-In . SVG Version: 6.00 Build 0)  -->
<svg version="1.1" id="Layer_1" xmlns="http://www.w3.org/2000/svg" xmlns:xlink="http://www.w3.org/1999/xlink" x="0px" y="0px"
	 viewBox="0 0 700 200" style="enable-background:new 0 0 700 200;" xml:space="preserve">
<style type="text/css">
	.st0{fill:none;}
	.st1{fill:#193E45;}
</style>
<g>
	<path class="st0" d="M521.8,87.2c-1.6-1.6-3.5-2.9-5.7-3.6c-2.2-0.8-4.6-1.2-7.2-1.2c-4.9,0-9,1.6-12.4,5c-3,3-5.1,7.5-6.2,13.4
		c0,0.2,0.1,0.3,0.1,0.4c0.1,0.1,0.2,0.2,0.4,0.2h36.7c0.2,0,0.3-0.1,0.4-0.2c0.1-0.1,0.1-0.2,0.1-0.4c-0.5-2.7-1.2-5.2-2.1-7.3
		C524.8,91,523.4,88.8,521.8,87.2z"/>
	<path class="st0" d="M90.8,66c-2.8-3.5-6.3-6.3-10.4-8.3c-4-1.9-8.7-2.9-13.8-2.9c-5.2,0-9.9,1-14,3c-4.1,2-7.6,4.8-10.5,8.3
		c-2.9,3.6-5.1,7.9-6.7,12.9c-1.6,5-2.4,10.6-2.4,16.7c0,6.3,0.8,12,2.4,17.1c1.6,5,3.9,9.3,6.8,12.8c2.9,3.5,6.5,6.2,10.6,8.1
		c4.1,1.9,8.7,2.9,13.7,2.9c2.3,0,4.4-0.2,6.3-0.6c0.6-0.1,1.3-0.3,1.9-0.4c0.2-0.1,0.3-0.2,0.3-0.4c0-0.1,0-0.3-0.2-0.5l-5.2-4.2
		c-0.7-0.6-1.2-1.4-1.3-2.4c-0.1-0.9,0.2-1.9,0.8-2.6l7.3-8.6c1.2-1.5,3.4-1.7,4.9-0.5l9.6,7.8c0.1,0.1,0.3,0.1,0.4,0.1
		c0.1,0,0.2-0.1,0.4-0.2c2.4-3.4,4.2-7.2,5.5-11.5c1.5-5,2.3-10.7,2.3-16.9c0-6.1-0.8-11.8-2.3-16.8C95.9,73.9,93.7,69.5,90.8,66z"
		/>
	<path class="st0" d="M285.2,115h-6.8c-9.2,0-16.1,1.2-20.7,3.6c-4.3,2.3-6.4,5.7-6.4,10.5c0,3.4,1.2,5.9,3.6,7.7
		c2.6,1.8,6.1,2.7,10.5,2.7c2,0,4.1-0.2,6.1-0.7c2-0.5,3.9-1.1,5.7-2c1.8-0.9,3.4-1.9,4.9-3.1c1.3-1.1,2.5-2.3,3.5-3.6
		c0.1-0.1,0.1-0.2,0.1-0.3v-14.3C285.7,115.2,285.5,115,285.2,115z"/>
	<path class="st1" d="M121.5,147.9l-13.2-10.2c-0.1-0.1-0.2-0.3-0.2-0.3c0-0.1,0-0.2,0.1-0.4c4.2-5.1,7.6-10.9,9.8-17.4
		c2.5-7.2,3.8-15.2,3.8-24c0-8.8-1.4-17-4-24.3c-2.7-7.3-6.5-13.7-11.4-18.9c-4.9-5.2-10.8-9.3-17.5-12.1C82.2,37.5,74.6,36,66.5,36
		c-8.1,0-15.7,1.5-22.4,4.3c-6.7,2.9-12.6,6.9-17.5,12.1c-4.9,5.2-8.7,11.5-11.4,18.9c-2.7,7.3-4,15.5-4,24.3
		c0,8.7,1.3,16.8,3.8,24.1c2.5,7.3,6.3,13.7,11,18.9c4.8,5.3,10.7,9.4,17.5,12.3c6.8,2.9,14.6,4.4,23,4.4c4.8,0,9.4-0.5,13.8-1.6
		c3.9-1,7.6-2.4,10.9-4.2c0.2-0.1,0.4-0.1,0.6,0l17.2,13.7c0.6,0.5,1.4,0.8,2.2,0.8c1,0,2-0.4,2.7-1.2l8.3-9.8
		c0.6-0.7,0.9-1.7,0.8-2.6C122.8,149.4,122.3,148.5,121.5,147.9z M97.4,112.5c-1.3,4.2-3.2,8.1-5.5,11.5c-0.1,0.2-0.3,0.2-0.4,0.2
		c-0.1,0-0.2,0-0.4-0.1l-9.6-7.8c-1.5-1.2-3.7-1-4.9,0.5l-7.3,8.6c-0.6,0.7-0.9,1.6-0.8,2.6c0.1,0.9,0.5,1.8,1.3,2.4l5.2,4.2
		c0.2,0.2,0.2,0.4,0.2,0.5c0,0.1-0.1,0.3-0.3,0.4c-0.6,0.2-1.2,0.3-1.9,0.4c-1.9,0.4-4,0.6-6.3,0.6c-5,0-9.6-1-13.7-2.9
		c-4.1-1.9-7.6-4.6-10.6-8.1c-2.9-3.5-5.2-7.8-6.8-12.8c-1.6-5-2.4-10.8-2.4-17.1c0-6.1,0.8-11.7,2.4-16.7c1.6-5,3.8-9.3,6.7-12.9
		c2.9-3.5,6.4-6.3,10.5-8.3c4.1-2,8.8-3,14-3c5.1,0,9.8,1,13.8,2.9c4,1.9,7.5,4.7,10.4,8.3c2.9,3.6,5.1,7.9,6.6,12.9
		c1.5,5,2.3,10.7,2.3,16.8C99.7,101.9,98.9,107.5,97.4,112.5z"/>
	<path class="st1" d="M209.8,69h-14.3c-1.9,0-3.5,1.6-3.5,3.5v54.4c0,0.1,0,0.2-0.1,0.3c-2.9,3.5-5.9,6.2-8.9,8.1
		c-3.1,1.9-6.4,2.9-9.9,2.9c-4.4,0-7.4-1.1-9.2-3.5c-1.9-2.4-2.9-6.5-2.9-12.2v-50c0-1.9-1.6-3.5-3.5-3.5h-14.2
		c-1.9,0-3.5,1.6-3.5,3.5v51.2c0,21,9.8,31.6,29.2,31.6c4.8,0,9.4-1.1,13.8-3.2c3-1.5,5.9-3.5,8.7-6c0.2-0.2,0.4-0.2,0.6-0.1
		c0.1,0.1,0.3,0.2,0.3,0.4v3.5c0,1.9,1.6,3.5,3.5,3.5h14c1.9,0,3.5-1.6,3.5-3.5V72.5C213.3,70.5,211.7,69,209.8,69z"/>
	<path class="st1" d="M296.9,73.5c-3.4-2.3-7.3-4-11.7-5c-4.3-1-9.3-1.4-14.8-1.4c-22.9,0-35.5,8.2-37.5,24.3c-0.1,1,0.2,2,0.8,2.7
		c0.7,0.8,1.6,1.2,2.6,1.2h13.3c1.8,0,3.2-1.3,3.5-3.1c0.4-3.1,1.7-5.3,4-6.9c2.8-1.9,7-2.9,12.4-2.9c5.6,0,9.7,1,12,3.1
		c1.8,1.4,2.9,3.3,3.5,5.8c0.3,1,0.4,2.4,0.5,4.1c0.1,1.3,0.1,2.8,0.1,4.4c0,0.2-0.1,0.3-0.1,0.4c-0.1,0.1-0.2,0.1-0.4,0.1h-5
		c-16.6,0-29.2,2.4-37.6,7.3c-8.6,5-13,12.6-13,22.6c0,4.1,0.8,7.8,2.4,10.9c1.6,3.1,3.8,5.8,6.5,7.9c2.7,2.1,5.9,3.7,9.5,4.8
		c3.6,1.1,7.4,1.6,11.3,1.6c10,0,18.7-2.5,25.7-7.5c0.2-0.2,0.4-0.1,0.5,0c0.1,0.1,0.3,0.2,0.3,0.4v1.7c0,1.9,1.6,3.5,3.5,3.5h14.1
		c1.9,0,3.5-1.6,3.5-3.5V99.2c0-6.8-0.8-12.3-2.4-16.2C302.9,78.9,300.3,75.7,296.9,73.5z M285.7,129.8c0,0.1,0,0.2-0.1,0.3
		c-1,1.3-2.2,2.5-3.5,3.6c-1.5,1.2-3.1,2.3-4.9,3.1c-1.8,0.9-3.7,1.5-5.7,2c-2,0.5-4.1,0.7-6.1,0.7c-4.4,0-8-0.9-10.5-2.7
		c-2.4-1.7-3.6-4.2-3.6-7.7c0-4.8,2.1-8.3,6.4-10.5c4.5-2.4,11.5-3.6,20.7-3.6h6.8c0.3,0,0.5,0.2,0.5,0.5V129.8z"/>
	<path class="st1" d="M372.4,67.1c-8.3,0-15.9,3.1-22.6,9.3c-0.2,0.2-0.4,0.1-0.6,0.1c-0.1-0.1-0.3-0.2-0.3-0.4v-3.5
		c0-1.9-1.6-3.5-3.5-3.5h-13.8c-1.9,0-3.5,1.6-3.5,3.5v77.4c0,1.9,1.6,3.5,3.5,3.5h14.2c1.9,0,3.5-1.6,3.5-3.5V95.5
		c0-0.1,0-0.3,0.1-0.3c3.1-3.5,6.3-6.3,9.4-8.1c3.2-1.9,6.4-2.9,9.5-2.9c4.3,0,7.4,1.2,9.1,3.5c1.9,2.4,2.8,6.5,2.8,12.2v50
		c0,1.9,1.6,3.5,3.5,3.5h14.2c1.9,0,3.5-1.6,3.5-3.5V98.5C401.4,77.6,391.7,67.1,372.4,67.1z"/>
	<path class="st1" d="M456.6,137.7c-0.4,0.1-0.8,0.1-1.2,0.1c-2.2,0.2-4.5,0.3-6.1-0.3c-0.7-0.2-1.2-0.7-1.7-1.3
		c-0.5-0.7-1-1.9-1.3-3.3c-0.3-1.5-0.5-3.6-0.5-6.2V86.1c0-0.3,0.2-0.5,0.5-0.5h9.2c1.9,0,3.5-1.6,3.5-3.5v-9.6
		c0-1.9-1.6-3.5-3.5-3.5h-9.2c-0.3,0-0.5-0.2-0.5-0.5V52.2c0-1.9-1.6-3.5-3.5-3.5h-14.2c-1.9,0-3.5,1.6-3.5,3.5v16.3
		c0,0.3-0.2,0.5-0.5,0.5h-6.4c-1.9,0-3.5,1.6-3.5,3.5v9.6c0,1.9,1.6,3.5,3.5,3.5h6.4c0.3,0,0.5,0.2,0.5,0.5V129
		c0,4.1,0.3,7.8,0.9,10.9c0.6,3.3,1.8,6,3.6,8.2c1.8,2.2,4.3,3.9,7.4,4.9c3,1,6.9,1.6,11.5,1.6c2.1,0,4.1-0.1,6-0.3
		c1.3-0.1,2.5-0.3,3.8-0.6c1.6-0.3,2.8-1.8,2.8-3.4v-9.1c0-1-0.4-2-1.2-2.6C458.7,137.9,457.6,137.6,456.6,137.7z"/>
	<path class="st1" d="M538.8,78.5c-3.6-3.7-8-6.6-13-8.5c-5-1.9-10.7-2.9-16.9-2.9c-6.3,0-12,1-17.1,3c-5.1,2-9.4,5-13,8.8
		c-3.6,3.8-6.3,8.5-8.2,13.9c-1.9,5.4-2.8,11.6-2.8,18.3s0.9,13,2.8,18.4c1.9,5.5,4.7,10.2,8.3,14c3.6,3.8,8.1,6.8,13.4,8.8
		c5.2,2,11.3,3,17.9,3c5,0,9.7-0.6,13.9-1.8c4.3-1.2,8.1-3,11.5-5.3c3.3-2.3,6.1-5.2,8.3-8.6c1.7-2.7,3-5.8,3.8-9.2
		c0.2-1,0-2.1-0.7-3c-0.7-0.8-1.7-1.3-2.8-1.3h-13.7c-1.6,0-3,1.1-3.4,2.7c-0.4,1.6-0.9,3-1.7,4.1c-1,1.5-2.3,2.8-3.8,3.7
		c-1.5,1-3.2,1.7-5.1,2.2c-2,0.5-4,0.7-6.2,0.7c-2.8,0-5.5-0.5-7.9-1.4c-2.4-0.9-4.5-2.4-6.3-4.3c-1.8-1.9-3.3-4.5-4.5-7.5
		c-1-2.6-1.6-5.6-1.9-9c0-0.2,0.1-0.3,0.1-0.4c0.1-0.1,0.2-0.2,0.4-0.2h56.2c1.9,0,3.5-1.6,3.5-3.5v-2.3c0-6.9-1-13.2-2.9-18.6
		C545.2,86.9,542.4,82.2,538.8,78.5z M527.9,101.2c-0.1,0.1-0.2,0.2-0.4,0.2h-36.7c-0.2,0-0.3-0.1-0.4-0.2c-0.1-0.1-0.1-0.2-0.1-0.4
		c1-5.9,3.1-10.4,6.2-13.4c3.4-3.4,7.5-5,12.4-5c2.6,0,5,0.4,7.2,1.2c2.1,0.8,4,2,5.7,3.6c1.7,1.7,3.1,3.8,4.2,6.4
		c0.9,2.1,1.6,4.5,2.1,7.3C528,101,527.9,101.2,527.9,101.2z"/>
	<path class="st1" d="M610.6,109.8c-0.1-0.2-0.1-0.4,0-0.6l23.7-34.8v0c0.7-1.1,0.8-2.5,0.2-3.6c-0.6-1.1-1.8-1.9-3.1-1.9h-15.7
		c-1.2,0-2.4,0.7-3,1.7l-14.4,24.2c-0.1,0.2-0.3,0.2-0.4,0.2s-0.3,0-0.4-0.2L583,70.7c-0.6-1.1-1.8-1.7-3-1.7h-15.8
		c-1.3,0-2.5,0.7-3.1,1.9c-0.6,1.1-0.5,2.5,0.2,3.6l23.8,35c0.1,0.2,0.1,0.4,0,0.6l-26,37.9c-0.7,1.1-0.8,2.5-0.2,3.6
		c0.6,1.2,1.8,1.9,3.1,1.9h16.2c1.2,0,2.4-0.6,3-1.7l16.4-26.7c0.1-0.2,0.3-0.2,0.4-0.2c0.1,0,0.3,0,0.4,0.2l16.3,26.7
		c0.6,1,1.8,1.7,3,1.7h16.2c1.3,0,2.5-0.7,3.1-1.9c0.6-1.2,0.5-2.5-0.2-3.6L610.6,109.8z"/>
	<path class="st1" d="M687.7,138.6c-0.8-0.7-1.8-1-2.8-0.9c-0.4,0.1-0.8,0.1-1.2,0.1c-2.2,0.2-4.5,0.3-6.1-0.3
		c-0.7-0.2-1.2-0.7-1.7-1.3c-0.5-0.7-1-1.9-1.3-3.3c-0.3-1.5-0.5-3.6-0.5-6.2V86.1c0-0.3,0.2-0.5,0.5-0.5h9.2c1.9,0,3.5-1.6,3.5-3.5
		v-9.6c0-1.9-1.6-3.5-3.5-3.5h-9.2c-0.3,0-0.5-0.2-0.5-0.5V52.2c0-1.9-1.6-3.5-3.5-3.5h-14.2c-1.9,0-3.5,1.6-3.5,3.5v16.3
		c0,0.3-0.2,0.5-0.5,0.5H646c-1.9,0-3.5,1.6-3.5,3.5v9.6c0,1.9,1.6,3.5,3.5,3.5h6.4c0.3,0,0.5,0.2,0.5,0.5V129
		c0,4.1,0.3,7.8,0.9,10.9c0.6,3.3,1.8,6,3.6,8.2c1.8,2.2,4.3,3.9,7.4,4.9c3,1,6.9,1.6,11.5,1.6c2.1,0,4.1-0.1,6-0.3
		c1.3-0.1,2.5-0.3,3.8-0.6c1.6-0.3,2.8-1.8,2.8-3.4v-9.1C688.9,140.2,688.4,139.2,687.7,138.6z"/>
</g>
</svg>
