<?xml version="1.0" encoding="utf-8"?>
<!-- Generator: Adobe Illustrator 19.2.1, SVG Export Plug-In . SVG Version: 6.00 Build 0)  -->
<svg version="1.1" id="Layer_1" xmlns="http://www.w3.org/2000/svg" xmlns:xlink="http://www.w3.org/1999/xlink" x="0px" y="0px"
	 viewBox="0 0 485.975708 368.9815369" style="enable-background:new 0 0 485.975708 368.9815369;" xml:space="preserve">
<style type="text/css">
	.st0{fill:#FFFFFF;}
	.st1{fill:#292B2C;}
</style>
<g>
	<path class="st0" d="M264.7495728,269.9329224c-1.9829102-0.5102539-3.965332-1.074707-5.8920898-1.6787109
		c-18.5708008-5.8164063-35.3764648-16.2207184-49.9487305-30.9228668
		c-24.0351563-24.2456055-36.2226563-54.1889648-36.2226563-88.9975586c0-12.5842285,1.6103516-24.5251465,4.7979736-35.7907104
		c-18.4542236,16.7823486-32.3504639,41.171814-41.9156494,73.3873901l-0.8242188,2.7749023l-2.8798828-0.2885742
		c-43.3989258-4.34375-76.9575195-24.0444336-99.8305664-58.5844727l-1.1967773,1.6567383
		c10.4233398,58.7280273,37.3056602,108.3618164,79.9169922,147.5488434
		c42.8789063,39.4335938,90.4462891,59.4277344,141.3808594,59.4277344c40.3071289,0,73.7485352-11.9130859,99.394043-35.4086914
		c10.6533203-9.7629395,19.1090088-20.7224731,25.357666-32.809082h-110.911377L264.7495728,269.9329224z"/>
	<path class="st0" d="M381.0669556,212.4143524l3.8837891-5.9633789
		c11.2695313-17.3046875,16.9833984-36.8579102,16.9833984-58.1171875c0-29.6474609-9.9482422-54.0527344-30.4121094-74.6098633
		c-20.453125-20.5410118-44.7524414-30.5268517-74.2851563-30.5268517c-29.4370117,0-53.6879883,9.9853516-74.1386719,30.5268517
		c-20.4643555,20.5546875-30.4121094,44.9594727-30.4121094,74.6098633c0,29.7587891,9.9526367,54.2646484,30.4267578,74.9179688
		c12.2558594,12.3642578,26.293457,21.0839844,41.7236328,25.9169922c1.2128906,0.3803711,2.4526367,0.7416992,3.7001953,1.0791016
		h141.8798828L381.0669556,212.4143524z M322.5715942,163.5265961
		c-1.2461548-10.5744019-5.7789307-19.7893066-13.6228027-27.6351929
		c-9.3271484-9.3242188-20.5332031-13.9892578-33.6181641-13.9892578c-1.3392944,0-2.6534424,0.0610352-3.9529419,0.1572876
		c0.8453369-1.1660156,1.7554932-2.2976685,2.770813-3.3721313v-0.0004883
		c3.7854004-4.0054321,8.3236084-6.8308105,13.4039307-8.3865356c3.0481567-0.9334717,6.2915039-1.4098511,9.6844482-1.4098511
		c9.140625,0,17.1748047,3.387207,23.2329102,9.7949219c5.9951172,6.3466797,9.0327148,14.2998047,9.0327148,23.6425781
		C329.5025024,150.510788,327.1730347,157.6264496,322.5715942,163.5265961z"/>
	<path class="st1" d="M405.4634399,211.2336884c10.9345703-19.0449219,16.4707031-40.1689453,16.4707031-62.8999023
		c0-34.7148438-12.1923828-64.5649414-36.2392578-88.7207031c-24.0595703-24.1640625-53.8212891-36.4160156-88.4580078-36.4160156
		c-34.5424805,0-64.2548828,12.2524433-88.3120117,36.4160156c-12.1264038,12.1798668-21.2340698,25.8105431-27.2879028,40.7820396
		c-23.2631836,17.24823-40.6313477,44.2112427-51.9313354,80.7457886
		c-41.5170898-4.887207-73.3022461-24.8500977-94.5107422-59.3666992l-2.7470703-4.4711914l-9.012207,12.4785156l0.25,1.4506836
		c10.5058594,60.9169922,38.2060547,112.3793945,82.3300781,152.9580231
		c44.2119141,40.6591797,93.3735352,61.2753906,146.1191406,61.2753906c42.1132813,0,77.1450195-12.5317383,104.1225586-37.2475586
		c12.230957-11.2085571,21.7270508-23.8959351,28.4729004-37.9702148h66.5144043L405.4634399,211.2336884z M351.5288696,303.0569458
		c-25.6455078,23.4956055-59.0869141,35.4086914-99.394043,35.4086914c-50.9345703,0-98.5019531-19.9941406-141.3808594-59.4277344
		c-42.6113281-39.187027-69.4936523-88.820816-79.9169922-147.5488434l1.1967773-1.6567383
		c22.8730469,34.5400391,56.4316368,54.2407227,99.8305664,58.5844727l2.8798828,0.2885742l0.8242188-2.7749023
		c9.5651855-32.2155762,23.4614258-56.6050415,41.9156494-73.3873901
		c-3.1876221,11.265564-4.7979736,23.2064819-4.7979736,35.7907104c0,34.8085938,12.1875,64.7519531,36.2226563,88.9975586
		c14.5722656,14.7021484,31.3779297,25.1064606,49.9487305,30.9228668c1.9267578,0.6040039,3.9091797,1.168457,5.8920898,1.6787109
		l1.2255859,0.3149414h110.911377C370.6378784,282.3344727,362.1821899,293.2940063,351.5288696,303.0569458z
		 M268.5366821,250.2478485c-1.2475586-0.3374023-2.4873047-0.6987305-3.7001953-1.0791016
		c-15.4301758-4.8330078-29.4677734-13.5527344-41.7236328-25.9169922
		c-20.4741211-20.6533203-30.4267578-45.1591797-30.4267578-74.9179688c0-29.6503906,9.9477539-54.0551758,30.4121094-74.6098633
		c20.4506836-20.5415001,44.7016602-30.5268517,74.1386719-30.5268517c29.5327148,0,53.8320313,9.9858398,74.2851563,30.5268517
		c20.4638672,20.5571289,30.4121094,44.9624023,30.4121094,74.6098633c0,21.2592773-5.7138672,40.8125-16.9833984,58.1171875
		l-3.8837891,5.9633789l29.3496094,37.8334961H268.5366821z"/>
	<path class="st1" d="M297.2368774,108.8904266c-3.3929443,0-6.6362915,0.4763794-9.6844482,1.4098511
		c-5.0803223,1.5557251-9.6185303,4.3811035-13.4039307,8.3865356v0.0004883
		c-1.0153198,1.0744629-1.9254761,2.2061157-2.770813,3.3721313c1.2994995-0.0962524,2.6136475-0.1572876,3.9529419-0.1572876
		c13.0849609,0,24.2910156,4.6650391,33.6181641,13.9892578c7.8438721,7.8458862,12.3766479,17.060791,13.6228027,27.6351929
		c4.6014404-5.9001465,6.9309082-13.0158081,6.9309082-21.1986694c0-9.3427734-3.0375977-17.2958984-9.0327148-23.6425781
		C314.4116821,112.2776337,306.3775024,108.8904266,297.2368774,108.8904266z"/>
</g>
</svg>
