<?xml version="1.0" encoding="utf-8"?>
<!-- Generator: Adobe Illustrator 19.2.1, SVG Export Plug-In . SVG Version: 6.00 Build 0)  -->
<svg version="1.1" id="Layer_1" xmlns="http://www.w3.org/2000/svg" xmlns:xlink="http://www.w3.org/1999/xlink" x="0px" y="0px"
	 viewBox="0 0 200 200" style="enable-background:new 0 0 200 200;" xml:space="preserve">
<style type="text/css">
	.st0{fill:#EE8825;}
	.st1{fill:#57B0C2;}
	.st2{fill:#FFFFFF;}
</style>
<g>
	<path class="st0" d="M139.2441406,62.2944336l-8.2819824,1.4120483c0.8028564,1.5194092,1.4957275,3.1043701,2.0710449,4.7450562
		L139.2441406,62.2944336z"/>
	<path class="st1" d="M83.265625,87.1098633l16.75,9.8334961l17.1669922-9.8334961l9.8900146,5.8065186
		C128.9476318,89.0022583,130,84.6219482,130,80c0-16.5419922-13.4580078-30-30-30S70,63.4580078,70,80
		c0,4.6577148,1.0672607,9.0708008,2.9696045,13.0079346L83.265625,87.1098633z M105,65c2.7568359,0,5,2.2431641,5,5
		s-2.2431641,5-5,5s-5-2.2431641-5-5S102.2431641,65,105,65z"/>
	<path class="st2" d="M133.8017578,102.6650391l-16.6503906-9.7749023l-17.1669922,9.8334961l-16.75-9.8334961
		l-17.0673828,9.7768555l-11.1242065-6.1890259C53.3963013,103.2650146,52.5,109.6558228,52.5,115
		c0,0.75,0.0195313,1.4609375,0.0541992,2.140625C53.6918945,142.5830078,74.5322266,162.5,100,162.5
		s46.3085938-19.9169922,47.4453125-45.3417969C147.4804688,116.4609375,147.5,115.75,147.5,115
		c0-5.4009399-0.904541-11.7426758-2.5111694-18.3986816L133.8017578,102.6650391z M103,150.5
		c-23.3876953,0-38.5-15.1123047-38.5-38.5c0-1.3808594,1.1191406-2.5,2.5-2.5s2.5,1.1191406,2.5,2.5
		c0,20.6630859,12.8364258,33.5,33.5,33.5c1.3808594,0,2.5,1.1191406,2.5,2.5S104.3808594,150.5,103,150.5z"/>
	<path d="M149.5571289,94.1251221c-0.4126587-1.6350098-0.8641968-3.2817383-1.3554077-4.9379272l-4.5117188,2.4884644
		l-9.6577759,5.3267822l-2.6389771-1.5493774C133.6983643,90.7893066,135,85.5447998,135,80
		c0-2.0278931-0.1831055-4.0126953-0.5158081-5.9470825l9.40448-9.3214722
		c1.4003906-1.3891602,1.7353516-3.5004883,0.8330078-5.2543945c-0.9013672-1.7539063-2.8144531-2.7089844-4.7578125-2.3774414
		l-11.8876343,2.0269775C121.6902466,50.5592651,111.4825439,45,100,45c-19.2988281,0-35,15.7011719-35,35
		c0,5.5615234,1.3100586,10.8205566,3.6282349,15.494873L66,97.0004883l-9.6452637-5.4604492l-4.4976807-2.5462646
		c-0.4949951,1.6596069-0.9534302,3.31073-1.369812,4.949646C48.5697021,101.4916382,47.5,108.7472534,47.5,115
		c0,0.8398438,0.0214844,1.6367188,0.0600586,2.3808594C48.8164063,145.4853516,71.8510742,167.5,100,167.5
		c28.1494141,0,51.1835938-22.0146484,52.4394531-50.1015625C152.4785156,116.6367188,152.5,115.8398438,152.5,115
		C152.5,108.7976074,151.4456177,101.6077881,149.5571289,94.1251221z M139.2441406,62.2944336l-6.2109375,6.1571045
		c-0.5753174-1.640686-1.2681885-3.225647-2.0710449-4.7450562L139.2441406,62.2944336z M100,50c16.5419922,0,30,13.4580078,30,30
		c0,4.6219482-1.0523682,9.0022583-2.9273682,12.9163818l-9.8900146-5.8065186l-17.1669922,9.8334961l-16.75-9.8334961
		l-10.2960205,5.8980713C71.0672607,89.0708008,70,84.6577148,70,80C70,63.4580078,83.4580078,50,100,50z M147.4453125,117.1582031
		C146.3085938,142.5830078,125.4677734,162.5,100,162.5s-46.3081055-19.9169922-47.4458008-45.359375
		C52.5195313,116.4609375,52.5,115.75,52.5,115c0-5.3441772,0.8963013-11.7349854,2.5427856-18.5220337l11.1242065,6.1890259
		l17.0673828-9.7768555l16.75,9.8334961l17.1669922-9.8334961l16.6503906,9.7749023l11.1870728-6.0637207
		C146.595459,103.2573242,147.5,109.5990601,147.5,115C147.5,115.75,147.4804688,116.4609375,147.4453125,117.1582031z"/>
	<path d="M103,145.5c-20.6635742,0-33.5-12.8369141-33.5-33.5c0-1.3808594-1.1191406-2.5-2.5-2.5s-2.5,1.1191406-2.5,2.5
		c0,23.3876953,15.1123047,38.5,38.5,38.5c1.3808594,0,2.5-1.1191406,2.5-2.5S104.3808594,145.5,103,145.5z"/>
	<circle cx="105" cy="70" r="5"/>
</g>
</svg>
