<?xml version="1.0" encoding="utf-8"?>
<!-- Generator: Adobe Illustrator 19.2.1, SVG Export Plug-In . SVG Version: 6.00 Build 0)  -->
<svg version="1.1" id="Layer_1" xmlns="http://www.w3.org/2000/svg" xmlns:xlink="http://www.w3.org/1999/xlink" x="0px" y="0px"
	 viewBox="0 0 485.975708 368.9815369" style="enable-background:new 0 0 485.975708 368.9815369;" xml:space="preserve">
<style type="text/css">
	.st0{fill:none;}
	.st1{fill:#FFFFFF;}
</style>
<g>
	<path class="st0" d="M308.9487915,135.8914032c7.8438721,7.8458862,12.3766479,17.060791,13.6228027,27.6351929
		c4.6014404-5.9001465,6.9309082-13.0158081,6.9309082-21.1986694c0-9.3427734-3.0375977-17.2958984-9.0327148-23.6425781
		c-6.0581055-6.4077148-14.0922852-9.7949219-23.2329102-9.7949219c-3.3929443,0-6.6362915,0.4763794-9.6844482,1.4098511
		c-5.0803223,1.5557251-9.6185303,4.3811035-13.4039307,8.3865356v0.0004883
		c-1.0153198,1.0744629-1.9254761,2.2061157-2.770813,3.3721313c1.2994995-0.0962524,2.6136475-0.1572876,3.9529419-0.1572876
		C288.4155884,121.9021454,299.6216431,126.5671844,308.9487915,135.8914032z"/>
	<path class="st1" d="M264.7495728,269.9329224c-1.9829102-0.5102539-3.965332-1.074707-5.8920898-1.6787109
		c-18.5708008-5.8164063-35.3764648-16.2207184-49.9487305-30.9228668
		c-24.0351563-24.2456055-36.2226563-54.1889648-36.2226563-88.9975586c0-12.5842285,1.6103516-24.5251465,4.7979736-35.7907104
		c-18.4542236,16.7823486-32.3504639,41.171814-41.9156494,73.3873901l-0.8242188,2.7749023l-2.8798828-0.2885742
		c-43.3989258-4.34375-76.9575195-24.0444336-99.8305664-58.5844727l-1.1967773,1.6567383
		c10.4233398,58.7280273,37.3056602,108.3618164,79.9169922,147.5488434
		c42.8789063,39.4335938,90.4462891,59.4277344,141.3808594,59.4277344c40.3071289,0,73.7485352-11.9130859,99.394043-35.4086914
		c10.6533203-9.7629395,19.1090088-20.7224731,25.357666-32.809082h-110.911377L264.7495728,269.9329224z"/>
	<path class="st1" d="M264.8364868,249.1687469c1.2128906,0.3803711,2.4526367,0.7416992,3.7001953,1.0791016h141.8798828
		l-29.3496094-37.8334961l3.8837891-5.9633789c11.2695313-17.3046875,16.9833984-36.8579102,16.9833984-58.1171875
		c0-29.6474609-9.9482422-54.0527344-30.4121094-74.6098633c-20.453125-20.5410118-44.7524414-30.5268517-74.2851563-30.5268517
		c-29.4370117,0-53.6879883,9.9853516-74.1386719,30.5268517c-20.4643555,20.5546875-30.4121094,44.9594727-30.4121094,74.6098633
		c0,29.7587891,9.9526367,54.2646484,30.4267578,74.9179688
		C235.3687134,235.6160126,249.406311,244.3357391,264.8364868,249.1687469z M274.1484985,118.6873016v-0.0004883
		c3.7854004-4.0054321,8.3236084-6.8308105,13.4039307-8.3865356c3.0481567-0.9334717,6.2915039-1.4098511,9.6844482-1.4098511
		c9.140625,0,17.1748047,3.387207,23.2329102,9.7949219c5.9951172,6.3466797,9.0327148,14.2998047,9.0327148,23.6425781
		c0,8.1828613-2.3294678,15.2985229-6.9309082,21.1986694c-1.2461548-10.5744019-5.7789307-19.7893066-13.6228027-27.6351929
		c-9.3271484-9.3242188-20.5332031-13.9892578-33.6181641-13.9892578c-1.3392944,0-2.6534424,0.0610352-3.9529419,0.1572876
		C272.2230225,120.8934174,273.1331787,119.7617645,274.1484985,118.6873016z"/>
</g>
</svg>
