<?xml version="1.0" encoding="utf-8"?>
<!-- Generator: Adobe Illustrator 19.2.1, SVG Export Plug-In . SVG Version: 6.00 Build 0)  -->
<svg version="1.1" id="Layer_1" xmlns="http://www.w3.org/2000/svg" xmlns:xlink="http://www.w3.org/1999/xlink" x="0px" y="0px"
	 viewBox="0 0 200 200" style="enable-background:new 0 0 200 200;" xml:space="preserve">
<style type="text/css">
	.st0{fill:none;}
	.st1{fill:#57B0C2;}
	.st2{fill:#EE8825;}
</style>
<g>
	<path class="st0" d="M94.0477295,73.9271851c-0.0168457-0.2463989-0.0345459-0.4924927-0.0454102-0.7404785l0.0081177,0.7432861
		C94.0228271,73.9294434,94.0353394,73.9277344,94.0477295,73.9271851z"/>
	<path class="st1" d="M154.2724609,126.7509766c-8.638916-4.5100708-20.6866455-10.8075562-28.1543579-21.7506714
		c-0.6882324-1.0084839-1.3412476-2.0524902-1.9453125-3.1422119c-0.0682983,0.0004883-0.1356201,0.005188-0.2040405,0.005188
		c-0.993103,0-1.9743652-0.0512085-2.9429932-0.1459961c-12.7872314-1.2510376-23.239624-10.56427-26.2056885-22.7752075
		c-7.3929443,0.2280273-15.012146,2.4364624-20.973877,6.4221802c-11.4987793,7.6883545-16.8218994,21.1916504-14.7014771,34.026062
		c1.6673584,6.9278564,3.9141846,12.0980835,6.583374,14.881958c2.7825928,2.6679688,7.949707,4.9141846,14.8734131,6.5813599
		c5.5654297,1.3400879,12.2607422,2.3063354,19.7566528,2.817627c3.3189697,0.2263794,6.7922363,0.3649292,10.395752,0.4058838
		c22.1328125,0.2578125,43.6357422-3.2070313,51.1396484-8.2246094c2.0488281-1.3701172,2.4804688-2.2373047,2.4697266-2.4326172
		C164.2851563,131.9785156,158.2597656,128.8320313,154.2724609,126.7509766z"/>
	<path class="st2" d="M158.2130127,56.1576538l-7.9100952,1.3486328c0.7861938,1.4362793,1.4525146,2.9460449,1.99823,4.5119629
		L158.2130127,56.1576538z"/>
	<path class="st1" d="M99.4058838,76.4949951c0.1669922,0.8872681,0.3781128,1.7589111,0.6364746,2.6107178
		c2.7764893,9.1547852,10.6716919,16.1015015,20.3410034,17.4966431c0.4768677,0.0688477,0.9586182,0.121582,1.4437256,0.1629639
		c0.706665,0.0603027,1.4196777,0.0979614,2.1416626,0.0979614c0.5175781,0,1.0301514-0.020874,1.5400391-0.052063
		c0.5591431-0.0341187,1.1124268-0.0894165,1.6611328-0.1599121c12.277832-1.5772705,21.7988281-12.0880127,21.7988281-24.7880249
		c0-13.7851563-11.2148438-25-25-25c-13.3427124,0-24.2766113,10.5067139-24.9647827,23.6811523
		c-0.0228271,0.4368286-0.0352173,0.8764038-0.0352173,1.3188477c0,0.7180176,0.0374756,1.427124,0.0971069,2.1300049
		C99.1376953,74.8399048,99.2514648,75.6742554,99.4058838,76.4949951z M128.9688721,58.8632202c2.7568359,0,5,2.2431641,5,5
		s-2.2431641,5-5,5s-5-2.2431641-5-5S126.2120361,58.8632202,128.9688721,58.8632202z"/>
	<path class="st1" d="M71.0668945,81.2080078c6.6323242-4.4346313,14.8516846-6.9249878,22.9435425-7.2780151l-0.0081177-0.7432861
		C83.668457,65.6824341,77.6213989,54.1014404,73.2495117,45.7280273
		c-2.0820313-3.9873047-5.2280273-10.0126953-6.6689453-10.0908203c-0.0024414-0.0004883-0.0048828-0.0004883-0.0073242-0.0004883
		c-0.2089844,0-1.0717773,0.4448242-2.4257813,2.4702148c-5.0170898,7.5039063-8.4755859,29.0107422-8.2241211,51.1386719
		c0.0409546,3.6049194,0.1795654,7.0795898,0.4060669,10.3997192
		C59.1315918,92.3721924,64.1096191,85.8596802,71.0668945,81.2080078z"/>
	<circle cx="128.9688721" cy="63.8632202" r="5"/>
	<path d="M156.5859375,122.3183594c-8.8445435-4.6177368-20.3005981-10.6068115-26.9251709-21.0036621
		c13.8284912-2.6676636,24.3079834-14.855835,24.3079834-29.451416c0-1.4138184-0.1055298-2.8029175-0.2956543-4.1652222
		l9.1844482-9.1033936c1.4003906-1.3891602,1.7353516-3.5004883,0.8330078-5.2543945
		c-0.9013672-1.7539063-2.8144531-2.7089844-4.7578125-2.3774414L147.239502,52.956665
		c-5.5053101-6.7632446-13.890564-11.0933838-23.270752-11.0933838c-14.9241333,0-27.3339233,10.9556885-29.6193848,25.2460327
		c-7.8035889-6.7247925-12.7329712-16.1588135-16.6677246-23.6952515
		c-3.9418945-7.5498047-6.5458984-12.5375977-10.8310547-12.7695313c-3.5854492-0.215332-6.0527344,3.4765625-6.859375,4.6831055
		c-8.9206543,13.3422852-12.2446899,57.9656982-5.7722168,84.9122314c0.0003052,0.0016479,0.0006714,0.0033569,0.0009766,0.0050049
		l-9.1184082,9.1184082H33.1367188c-1.3808594,0-2.5,1.1191406-2.5,2.5s1.1191406,2.5,2.5,2.5h6.9648438l-5.7324219,5.7324219
		c-0.9765625,0.9765625-0.9765625,2.5585938,0,3.5351563c0.487793,0.4882813,1.1279297,0.7324219,1.7675781,0.7324219
		s1.2797852-0.2441406,1.7675781-0.7324219l5.7324219-5.7324219v6.9648438c0,1.3808594,1.1191406,2.5,2.5,2.5s2.5-1.1191406,2.5-2.5
		v-11.9648438l6.9741821-6.9741821c1.0819702,3.329834,2.625061,6.567688,4.664978,9.6187134
		c0.5007935,0.7490234,1.116333,1.4603271,1.815918,2.1425171c0.7481689,0.7981567,1.5355835,1.4841309,2.3657227,2.0391235
		c3.0532227,2.0414429,6.2937012,3.5785522,9.6256104,4.6571045l-6.9815674,6.9815674H55.1367188
		c-1.3808594,0-2.5,1.1191406-2.5,2.5s1.1191406,2.5,2.5,2.5h6.9648438l-5.7324219,5.7324219
		c-0.9765625,0.9765625-0.9765625,2.5585938,0,3.5351563c0.487793,0.4882813,1.1279297,0.7324219,1.7675781,0.7324219
		s1.2797852-0.2441406,1.7675781-0.7324219l5.7324219-5.7324219v6.9648438c0,1.3808594,1.1191406,2.5,2.5,2.5s2.5-1.1191406,2.5-2.5
		v-11.9648438l9.1217651-9.1217651c9.6398926,2.3161621,21.5341797,3.3834839,33.4602661,3.3834839
		c21.4072266,0,42.8847656-3.421875,51.4541016-9.1513672c1.2060547-0.8066406,4.8779297-3.2617188,4.6826172-6.859375
		C169.1240234,128.8642578,164.1357422,126.2597656,156.5859375,122.3183594z M158.2130127,56.1576538l-5.9118652,5.8605957
		c-0.5457153-1.565918-1.2120361-3.0756836-1.99823-4.5119629L158.2130127,56.1576538z M99.0039673,70.5444336
		c0.6881714-13.1744385,11.6220703-23.6811523,24.9647827-23.6811523c13.7851563,0,25,11.2148438,25,25
		c0,12.7000122-9.5209961,23.2107544-21.7988281,24.7880249c-0.5487061,0.0704956-1.1019897,0.1257935-1.6611328,0.1599121
		c-0.5098877,0.031189-1.0224609,0.052063-1.5400391,0.052063c-0.7219849,0-1.4349976-0.0376587-2.1416626-0.0979614
		c-0.4851074-0.0413818-0.9668579-0.0941162-1.4437256-0.1629639c-9.6693115-1.3951416-17.5645142-8.3418579-20.3410034-17.4966431
		c-0.2583618-0.8518066-0.4694824-1.7234497-0.6364746-2.6107178c-0.1544189-0.8207397-0.2681885-1.6550903-0.3400269-2.501709
		c-0.0596313-0.7028809-0.0971069-1.4119873-0.0971069-2.1300049C98.96875,71.4208374,98.9811401,70.9812622,99.0039673,70.5444336z
		 M55.9233398,89.2456055c-0.2514648-22.1279297,3.2070313-43.6347656,8.2241211-51.1386719
		c1.3540039-2.0253906,2.2167969-2.4702148,2.4257813-2.4702148c0.0024414,0,0.0048828,0,0.0073242,0.0004883
		c1.440918,0.078125,4.5869141,6.1035156,6.6689453,10.0908203c4.3718872,8.3734131,10.4189453,19.9544067,20.7528076,27.4586792
		c0.0108643,0.2479858,0.0285645,0.4940796,0.0454102,0.7404785c-0.0123901,0.0005493-0.0249023,0.0022583-0.0372925,0.0028076
		c-8.0918579,0.3530273-16.3112183,2.8433838-22.9435425,7.2780151
		c-6.9572754,4.6516724-11.9353027,11.1641846-14.7374878,18.4373169
		C56.1029053,96.3251953,55.9642944,92.8505249,55.9233398,89.2456055z M161.8935547,135.8525391
		c-7.5039063,5.0175781-29.0068359,8.4824219-51.1396484,8.2246094c-3.6035156-0.0409546-7.0767822-0.1795044-10.395752-0.4058838
		c-7.4959106-0.5112915-14.1912231-1.4775391-19.7566528-2.817627c-6.9237061-1.6671753-12.0908203-3.9133911-14.8734131-6.5813599
		c-2.6691895-2.7838745-4.9160156-7.9541016-6.583374-14.881958c-2.1204224-12.8344116,3.2026978-26.3377075,14.7014771-34.026062
		c5.961731-3.9857178,13.5809326-6.1941528,20.973877-6.4221802c2.9660645,12.2109375,13.418457,21.5241699,26.2056885,22.7752075
		c0.9686279,0.0947876,1.9498901,0.1459961,2.9429932,0.1459961c0.0684204,0,0.1357422-0.0046997,0.2040405-0.005188
		c0.6040649,1.0897217,1.2570801,2.133728,1.9453125,3.1422119c7.4677124,10.9431152,19.5154419,17.2406006,28.1543579,21.7506714
		c3.9873047,2.0810547,10.0126953,5.2275391,10.0908203,6.6689453
		C164.3740234,133.6152344,163.9423828,134.4824219,161.8935547,135.8525391z"/>
</g>
</svg>
